solid OpenSCAD_Model
  facet normal 0.980787 0.195081 0
    outer loop
      vertex 4.95722 0.652631 1.5
      vertex 4.82963 1.2941 0
      vertex 4.82963 1.2941 1.5
    endloop
  endfacet
  facet normal 0.980787 0.195081 0
    outer loop
      vertex 4.82963 1.2941 0
      vertex 4.95722 0.652631 1.5
      vertex 4.95722 0.652631 0
    endloop
  endfacet
  facet normal 0.997858 0.0654097 0
    outer loop
      vertex 5 0 1.5
      vertex 4.95722 0.652631 0
      vertex 4.95722 0.652631 1.5
    endloop
  endfacet
  facet normal 0.997858 0.0654097 0
    outer loop
      vertex 4.95722 0.652631 0
      vertex 5 0 1.5
      vertex 5 0 0
    endloop
  endfacet
  facet normal 0.321438 -0.946931 0
    outer loop
      vertex 1.2941 -4.82963 0
      vertex 1.91342 -4.6194 1.5
      vertex 1.2941 -4.82963 1.5
    endloop
  endfacet
  facet normal 0.321438 -0.946931 0
    outer loop
      vertex 1.91342 -4.6194 1.5
      vertex 1.2941 -4.82963 0
      vertex 1.91342 -4.6194 0
    endloop
  endfacet
  facet normal 0.831471 0.555568 0
    outer loop
      vertex 4.33013 2.5 1.5
      vertex 3.96677 3.04381 0
      vertex 3.96677 3.04381 1.5
    endloop
  endfacet
  facet normal 0.831471 0.555568 0
    outer loop
      vertex 3.96677 3.04381 0
      vertex 4.33013 2.5 1.5
      vertex 4.33013 2.5 0
    endloop
  endfacet
  facet normal -0.896872 0.44229 0
    outer loop
      vertex -4.6194 1.91342 0
      vertex -4.33013 2.5 1.5
      vertex -4.33013 2.5 0
    endloop
  endfacet
  facet normal -0.896872 0.44229 0
    outer loop
      vertex -4.33013 2.5 1.5
      vertex -4.6194 1.91342 0
      vertex -4.6194 1.91342 1.5
    endloop
  endfacet
  facet normal -0.555568 0.831471 0
    outer loop
      vertex -2.5 4.33013 0
      vertex -3.04381 3.96677 1.5
      vertex -2.5 4.33013 1.5
    endloop
  endfacet
  facet normal -0.555568 0.831471 0
    outer loop
      vertex -3.04381 3.96677 1.5
      vertex -2.5 4.33013 0
      vertex -3.04381 3.96677 0
    endloop
  endfacet
  facet normal -0.659357 0.75183 0
    outer loop
      vertex -3.04381 3.96677 0
      vertex -3.53553 3.53553 1.5
      vertex -3.04381 3.96677 1.5
    endloop
  endfacet
  facet normal -0.659357 0.75183 0
    outer loop
      vertex -3.53553 3.53553 1.5
      vertex -3.04381 3.96677 0
      vertex -3.53553 3.53553 0
    endloop
  endfacet
  facet normal -0.75183 0.659357 0
    outer loop
      vertex -3.96677 3.04381 0
      vertex -3.53553 3.53553 1.5
      vertex -3.53553 3.53553 0
    endloop
  endfacet
  facet normal -0.75183 0.659357 0
    outer loop
      vertex -3.53553 3.53553 1.5
      vertex -3.96677 3.04381 0
      vertex -3.96677 3.04381 1.5
    endloop
  endfacet
  facet normal 0.946931 -0.321438 0
    outer loop
      vertex 4.6194 -1.91342 1.5
      vertex 4.82963 -1.2941 0
      vertex 4.82963 -1.2941 1.5
    endloop
  endfacet
  facet normal 0.946931 -0.321438 0
    outer loop
      vertex 4.82963 -1.2941 0
      vertex 4.6194 -1.91342 1.5
      vertex 4.6194 -1.91342 0
    endloop
  endfacet
  facet normal -0.997858 0.0654097 0
    outer loop
      vertex -5 0 0
      vertex -4.95722 0.652631 1.5
      vertex -4.95722 0.652631 0
    endloop
  endfacet
  facet normal -0.997858 0.0654097 0
    outer loop
      vertex -4.95722 0.652631 1.5
      vertex -5 0 0
      vertex -5 0 1.5
    endloop
  endfacet
  facet normal 0.555568 0.831471 -0
    outer loop
      vertex 3.04381 3.96677 0
      vertex 2.5 4.33013 1.5
      vertex 3.04381 3.96677 1.5
    endloop
  endfacet
  facet normal 0.555568 0.831471 0
    outer loop
      vertex 2.5 4.33013 1.5
      vertex 3.04381 3.96677 0
      vertex 2.5 4.33013 0
    endloop
  endfacet
  facet normal -0.321438 -0.946931 0
    outer loop
      vertex -1.91342 -4.6194 0
      vertex -1.2941 -4.82963 1.5
      vertex -1.91342 -4.6194 1.5
    endloop
  endfacet
  facet normal -0.321438 -0.946931 -0
    outer loop
      vertex -1.2941 -4.82963 1.5
      vertex -1.91342 -4.6194 0
      vertex -1.2941 -4.82963 0
    endloop
  endfacet
  facet normal 0.195081 -0.980787 0
    outer loop
      vertex 0.652631 -4.95722 0
      vertex 1.2941 -4.82963 1.5
      vertex 0.652631 -4.95722 1.5
    endloop
  endfacet
  facet normal 0.195081 -0.980787 0
    outer loop
      vertex 1.2941 -4.82963 1.5
      vertex 0.652631 -4.95722 0
      vertex 1.2941 -4.82963 0
    endloop
  endfacet
  facet normal -0.321438 0.946931 0
    outer loop
      vertex -1.2941 4.82963 0
      vertex -1.91342 4.6194 1.5
      vertex -1.2941 4.82963 1.5
    endloop
  endfacet
  facet normal -0.321438 0.946931 0
    outer loop
      vertex -1.91342 4.6194 1.5
      vertex -1.2941 4.82963 0
      vertex -1.91342 4.6194 0
    endloop
  endfacet
  facet normal -0.831471 -0.555568 0
    outer loop
      vertex -3.96677 -3.04381 0
      vertex -4.33013 -2.5 1.5
      vertex -4.33013 -2.5 0
    endloop
  endfacet
  facet normal -0.831471 -0.555568 0
    outer loop
      vertex -4.33013 -2.5 1.5
      vertex -3.96677 -3.04381 0
      vertex -3.96677 -3.04381 1.5
    endloop
  endfacet
  facet normal 0.555568 -0.831471 0
    outer loop
      vertex 2.5 -4.33013 0
      vertex 3.04381 -3.96677 1.5
      vertex 2.5 -4.33013 1.5
    endloop
  endfacet
  facet normal 0.555568 -0.831471 0
    outer loop
      vertex 3.04381 -3.96677 1.5
      vertex 2.5 -4.33013 0
      vertex 3.04381 -3.96677 0
    endloop
  endfacet
  facet normal -0.946931 0.321438 0
    outer loop
      vertex -4.82963 1.2941 0
      vertex -4.6194 1.91342 1.5
      vertex -4.6194 1.91342 0
    endloop
  endfacet
  facet normal -0.946931 0.321438 0
    outer loop
      vertex -4.6194 1.91342 1.5
      vertex -4.82963 1.2941 0
      vertex -4.82963 1.2941 1.5
    endloop
  endfacet
  facet normal 0.321438 0.946931 -0
    outer loop
      vertex 1.91342 4.6194 0
      vertex 1.2941 4.82963 1.5
      vertex 1.91342 4.6194 1.5
    endloop
  endfacet
  facet normal 0.321438 0.946931 0
    outer loop
      vertex 1.2941 4.82963 1.5
      vertex 1.91342 4.6194 0
      vertex 1.2941 4.82963 0
    endloop
  endfacet
  facet normal 0.0654097 0.997858 -0
    outer loop
      vertex 0.652631 4.95722 0
      vertex 0 5 1.5
      vertex 0.652631 4.95722 1.5
    endloop
  endfacet
  facet normal 0.0654097 0.997858 0
    outer loop
      vertex 0 5 1.5
      vertex 0.652631 4.95722 0
      vertex 0 5 0
    endloop
  endfacet
  facet normal -0.44229 0.896872 0
    outer loop
      vertex -1.91342 4.6194 0
      vertex -2.5 4.33013 1.5
      vertex -1.91342 4.6194 1.5
    endloop
  endfacet
  facet normal -0.44229 0.896872 0
    outer loop
      vertex -2.5 4.33013 1.5
      vertex -1.91342 4.6194 0
      vertex -2.5 4.33013 0
    endloop
  endfacet
  facet normal 0.831471 -0.555568 0
    outer loop
      vertex 3.96677 -3.04381 1.5
      vertex 4.33013 -2.5 0
      vertex 4.33013 -2.5 1.5
    endloop
  endfacet
  facet normal 0.831471 -0.555568 0
    outer loop
      vertex 4.33013 -2.5 0
      vertex 3.96677 -3.04381 1.5
      vertex 3.96677 -3.04381 0
    endloop
  endfacet
  facet normal -0.997858 -0.0654097 0
    outer loop
      vertex -4.95722 -0.652631 0
      vertex -5 0 1.5
      vertex -5 0 0
    endloop
  endfacet
  facet normal -0.997858 -0.0654097 0
    outer loop
      vertex -5 0 1.5
      vertex -4.95722 -0.652631 0
      vertex -4.95722 -0.652631 1.5
    endloop
  endfacet
  facet normal -0.946931 -0.321438 0
    outer loop
      vertex -4.6194 -1.91342 0
      vertex -4.82963 -1.2941 1.5
      vertex -4.82963 -1.2941 0
    endloop
  endfacet
  facet normal -0.946931 -0.321438 0
    outer loop
      vertex -4.82963 -1.2941 1.5
      vertex -4.6194 -1.91342 0
      vertex -4.6194 -1.91342 1.5
    endloop
  endfacet
  facet normal -0.659357 -0.75183 0
    outer loop
      vertex -3.53553 -3.53553 0
      vertex -3.04381 -3.96677 1.5
      vertex -3.53553 -3.53553 1.5
    endloop
  endfacet
  facet normal -0.659357 -0.75183 -0
    outer loop
      vertex -3.04381 -3.96677 1.5
      vertex -3.53553 -3.53553 0
      vertex -3.04381 -3.96677 0
    endloop
  endfacet
  facet normal 0.44229 0.896872 -0
    outer loop
      vertex 2.5 4.33013 0
      vertex 1.91342 4.6194 1.5
      vertex 2.5 4.33013 1.5
    endloop
  endfacet
  facet normal 0.44229 0.896872 0
    outer loop
      vertex 1.91342 4.6194 1.5
      vertex 2.5 4.33013 0
      vertex 1.91342 4.6194 0
    endloop
  endfacet
  facet normal -0.195081 0.980787 0
    outer loop
      vertex -0.652631 4.95722 0
      vertex -1.2941 4.82963 1.5
      vertex -0.652631 4.95722 1.5
    endloop
  endfacet
  facet normal -0.195081 0.980787 0
    outer loop
      vertex -1.2941 4.82963 1.5
      vertex -0.652631 4.95722 0
      vertex -1.2941 4.82963 0
    endloop
  endfacet
  facet normal 0.75183 0.659357 0
    outer loop
      vertex 3.96677 3.04381 1.5
      vertex 3.53553 3.53553 0
      vertex 3.53553 3.53553 1.5
    endloop
  endfacet
  facet normal 0.75183 0.659357 0
    outer loop
      vertex 3.53553 3.53553 0
      vertex 3.96677 3.04381 1.5
      vertex 3.96677 3.04381 0
    endloop
  endfacet
  facet normal 0.195081 0.980787 -0
    outer loop
      vertex 1.2941 4.82963 0
      vertex 0.652631 4.95722 1.5
      vertex 1.2941 4.82963 1.5
    endloop
  endfacet
  facet normal 0.195081 0.980787 0
    outer loop
      vertex 0.652631 4.95722 1.5
      vertex 1.2941 4.82963 0
      vertex 0.652631 4.95722 0
    endloop
  endfacet
  facet normal 0.75183 -0.659357 0
    outer loop
      vertex 3.53553 -3.53553 1.5
      vertex 3.96677 -3.04381 0
      vertex 3.96677 -3.04381 1.5
    endloop
  endfacet
  facet normal 0.75183 -0.659357 0
    outer loop
      vertex 3.96677 -3.04381 0
      vertex 3.53553 -3.53553 1.5
      vertex 3.53553 -3.53553 0
    endloop
  endfacet
  facet normal -0.44229 -0.896872 0
    outer loop
      vertex -2.5 -4.33013 0
      vertex -1.91342 -4.6194 1.5
      vertex -2.5 -4.33013 1.5
    endloop
  endfacet
  facet normal -0.44229 -0.896872 -0
    outer loop
      vertex -1.91342 -4.6194 1.5
      vertex -2.5 -4.33013 0
      vertex -1.91342 -4.6194 0
    endloop
  endfacet
  facet normal -0.0654097 0.997858 0
    outer loop
      vertex 0 5 0
      vertex -0.652631 4.95722 1.5
      vertex 0 5 1.5
    endloop
  endfacet
  facet normal -0.0654097 0.997858 0
    outer loop
      vertex -0.652631 4.95722 1.5
      vertex 0 5 0
      vertex -0.652631 4.95722 0
    endloop
  endfacet
  facet normal -0.980787 0.195081 0
    outer loop
      vertex -4.95722 0.652631 0
      vertex -4.82963 1.2941 1.5
      vertex -4.82963 1.2941 0
    endloop
  endfacet
  facet normal -0.980787 0.195081 0
    outer loop
      vertex -4.82963 1.2941 1.5
      vertex -4.95722 0.652631 0
      vertex -4.95722 0.652631 1.5
    endloop
  endfacet
  facet normal 0.0654097 -0.997858 0
    outer loop
      vertex 0 -5 0
      vertex 0.652631 -4.95722 1.5
      vertex 0 -5 1.5
    endloop
  endfacet
  facet normal 0.0654097 -0.997858 0
    outer loop
      vertex 0.652631 -4.95722 1.5
      vertex 0 -5 0
      vertex 0.652631 -4.95722 0
    endloop
  endfacet
  facet normal 0.44229 -0.896872 0
    outer loop
      vertex 1.91342 -4.6194 0
      vertex 2.5 -4.33013 1.5
      vertex 1.91342 -4.6194 1.5
    endloop
  endfacet
  facet normal 0.44229 -0.896872 0
    outer loop
      vertex 2.5 -4.33013 1.5
      vertex 1.91342 -4.6194 0
      vertex 2.5 -4.33013 0
    endloop
  endfacet
  facet normal 0.659357 -0.75183 0
    outer loop
      vertex 3.04381 -3.96677 0
      vertex 3.53553 -3.53553 1.5
      vertex 3.04381 -3.96677 1.5
    endloop
  endfacet
  facet normal 0.659357 -0.75183 0
    outer loop
      vertex 3.53553 -3.53553 1.5
      vertex 3.04381 -3.96677 0
      vertex 3.53553 -3.53553 0
    endloop
  endfacet
  facet normal -0.896872 -0.44229 0
    outer loop
      vertex -4.33013 -2.5 0
      vertex -4.6194 -1.91342 1.5
      vertex -4.6194 -1.91342 0
    endloop
  endfacet
  facet normal -0.896872 -0.44229 0
    outer loop
      vertex -4.6194 -1.91342 1.5
      vertex -4.33013 -2.5 0
      vertex -4.33013 -2.5 1.5
    endloop
  endfacet
  facet normal 0.896872 -0.44229 0
    outer loop
      vertex 4.33013 -2.5 1.5
      vertex 4.6194 -1.91342 0
      vertex 4.6194 -1.91342 1.5
    endloop
  endfacet
  facet normal 0.896872 -0.44229 0
    outer loop
      vertex 4.6194 -1.91342 0
      vertex 4.33013 -2.5 1.5
      vertex 4.33013 -2.5 0
    endloop
  endfacet
  facet normal 0.659357 0.75183 -0
    outer loop
      vertex 3.53553 3.53553 0
      vertex 3.04381 3.96677 1.5
      vertex 3.53553 3.53553 1.5
    endloop
  endfacet
  facet normal 0.659357 0.75183 0
    outer loop
      vertex 3.04381 3.96677 1.5
      vertex 3.53553 3.53553 0
      vertex 3.04381 3.96677 0
    endloop
  endfacet
  facet normal 0.997858 -0.0654097 0
    outer loop
      vertex 4.95722 -0.652631 1.5
      vertex 5 0 0
      vertex 5 0 1.5
    endloop
  endfacet
  facet normal 0.997858 -0.0654097 0
    outer loop
      vertex 5 0 0
      vertex 4.95722 -0.652631 1.5
      vertex 4.95722 -0.652631 0
    endloop
  endfacet
  facet normal -0.555568 -0.831471 0
    outer loop
      vertex -3.04381 -3.96677 0
      vertex -2.5 -4.33013 1.5
      vertex -3.04381 -3.96677 1.5
    endloop
  endfacet
  facet normal -0.555568 -0.831471 -0
    outer loop
      vertex -2.5 -4.33013 1.5
      vertex -3.04381 -3.96677 0
      vertex -2.5 -4.33013 0
    endloop
  endfacet
  facet normal 0.896872 0.44229 0
    outer loop
      vertex 4.6194 1.91342 1.5
      vertex 4.33013 2.5 0
      vertex 4.33013 2.5 1.5
    endloop
  endfacet
  facet normal 0.896872 0.44229 0
    outer loop
      vertex 4.33013 2.5 0
      vertex 4.6194 1.91342 1.5
      vertex 4.6194 1.91342 0
    endloop
  endfacet
  facet normal 0.980787 -0.195081 0
    outer loop
      vertex 4.82963 -1.2941 1.5
      vertex 4.95722 -0.652631 0
      vertex 4.95722 -0.652631 1.5
    endloop
  endfacet
  facet normal 0.980787 -0.195081 0
    outer loop
      vertex 4.95722 -0.652631 0
      vertex 4.82963 -1.2941 1.5
      vertex 4.82963 -1.2941 0
    endloop
  endfacet
  facet normal 0.946931 0.321438 0
    outer loop
      vertex 4.82963 1.2941 1.5
      vertex 4.6194 1.91342 0
      vertex 4.6194 1.91342 1.5
    endloop
  endfacet
  facet normal 0.946931 0.321438 0
    outer loop
      vertex 4.6194 1.91342 0
      vertex 4.82963 1.2941 1.5
      vertex 4.82963 1.2941 0
    endloop
  endfacet
  facet normal 0 0 -1
    outer loop
      vertex 4.95722 -0.652631 0
      vertex 4.95722 0.652631 0
      vertex 5 0 0
    endloop
  endfacet
  facet normal 0 0 -1
    outer loop
      vertex 4.82963 -1.2941 0
      vertex 4.95722 0.652631 0
      vertex 4.95722 -0.652631 0
    endloop
  endfacet
  facet normal 0 0 -1
    outer loop
      vertex 4.82963 -1.2941 0
      vertex 4.82963 1.2941 0
      vertex 4.95722 0.652631 0
    endloop
  endfacet
  facet normal 0 0 -1
    outer loop
      vertex 4.6194 -1.91342 0
      vertex 4.82963 1.2941 0
      vertex 4.82963 -1.2941 0
    endloop
  endfacet
  facet normal 0 0 -1
    outer loop
      vertex 4.6194 -1.91342 0
      vertex 4.6194 1.91342 0
      vertex 4.82963 1.2941 0
    endloop
  endfacet
  facet normal 0 0 -1
    outer loop
      vertex 4.33013 -2.5 0
      vertex 4.6194 1.91342 0
      vertex 4.6194 -1.91342 0
    endloop
  endfacet
  facet normal 0 0 -1
    outer loop
      vertex 4.33013 -2.5 0
      vertex 4.33013 2.5 0
      vertex 4.6194 1.91342 0
    endloop
  endfacet
  facet normal 0 0 -1
    outer loop
      vertex 3.96677 -3.04381 0
      vertex 4.33013 2.5 0
      vertex 4.33013 -2.5 0
    endloop
  endfacet
  facet normal 0 0 -1
    outer loop
      vertex 3.96677 -3.04381 0
      vertex 3.96677 3.04381 0
      vertex 4.33013 2.5 0
    endloop
  endfacet
  facet normal 0 0 -1
    outer loop
      vertex 3.53553 -3.53553 0
      vertex 3.96677 3.04381 0
      vertex 3.96677 -3.04381 0
    endloop
  endfacet
  facet normal 0 0 -1
    outer loop
      vertex 3.53553 -3.53553 0
      vertex 3.53553 3.53553 0
      vertex 3.96677 3.04381 0
    endloop
  endfacet
  facet normal 0 0 -1
    outer loop
      vertex 3.04381 -3.96677 0
      vertex 3.53553 3.53553 0
      vertex 3.53553 -3.53553 0
    endloop
  endfacet
  facet normal 0 0 -1
    outer loop
      vertex 3.04381 -3.96677 0
      vertex 3.04381 3.96677 0
      vertex 3.53553 3.53553 0
    endloop
  endfacet
  facet normal 0 0 -1
    outer loop
      vertex 2.5 -4.33013 0
      vertex 3.04381 3.96677 0
      vertex 3.04381 -3.96677 0
    endloop
  endfacet
  facet normal 0 0 -1
    outer loop
      vertex 2.5 -4.33013 0
      vertex 2.5 4.33013 0
      vertex 3.04381 3.96677 0
    endloop
  endfacet
  facet normal 0 0 -1
    outer loop
      vertex 1.91342 -4.6194 0
      vertex 2.5 4.33013 0
      vertex 2.5 -4.33013 0
    endloop
  endfacet
  facet normal 0 0 -1
    outer loop
      vertex 1.91342 -4.6194 0
      vertex 1.91342 4.6194 0
      vertex 2.5 4.33013 0
    endloop
  endfacet
  facet normal 0 0 -1
    outer loop
      vertex 1.2941 -4.82963 0
      vertex 1.91342 4.6194 0
      vertex 1.91342 -4.6194 0
    endloop
  endfacet
  facet normal 0 0 -1
    outer loop
      vertex 1.2941 -4.82963 0
      vertex 1.2941 4.82963 0
      vertex 1.91342 4.6194 0
    endloop
  endfacet
  facet normal 0 0 -1
    outer loop
      vertex 0.652631 -4.95722 0
      vertex 1.2941 4.82963 0
      vertex 1.2941 -4.82963 0
    endloop
  endfacet
  facet normal 0 0 -1
    outer loop
      vertex 0.652631 -4.95722 0
      vertex 0.652631 4.95722 0
      vertex 1.2941 4.82963 0
    endloop
  endfacet
  facet normal 0 0 -1
    outer loop
      vertex 0 -5 0
      vertex 0.652631 4.95722 0
      vertex 0.652631 -4.95722 0
    endloop
  endfacet
  facet normal 0 0 -1
    outer loop
      vertex 0 -5 0
      vertex 0 5 0
      vertex 0.652631 4.95722 0
    endloop
  endfacet
  facet normal 0 0 -1
    outer loop
      vertex -0.652631 -4.95722 0
      vertex 0 5 0
      vertex 0 -5 0
    endloop
  endfacet
  facet normal 0 0 -1
    outer loop
      vertex -0.652631 -4.95722 0
      vertex -0.652631 4.95722 0
      vertex 0 5 0
    endloop
  endfacet
  facet normal 0 0 -1
    outer loop
      vertex -1.2941 -4.82963 0
      vertex -0.652631 4.95722 0
      vertex -0.652631 -4.95722 0
    endloop
  endfacet
  facet normal 0 0 -1
    outer loop
      vertex -1.2941 -4.82963 0
      vertex -1.2941 4.82963 0
      vertex -0.652631 4.95722 0
    endloop
  endfacet
  facet normal 0 0 -1
    outer loop
      vertex -1.91342 -4.6194 0
      vertex -1.2941 4.82963 0
      vertex -1.2941 -4.82963 0
    endloop
  endfacet
  facet normal 0 0 -1
    outer loop
      vertex -1.91342 -4.6194 0
      vertex -1.91342 4.6194 0
      vertex -1.2941 4.82963 0
    endloop
  endfacet
  facet normal 0 0 -1
    outer loop
      vertex -2.5 -4.33013 0
      vertex -1.91342 4.6194 0
      vertex -1.91342 -4.6194 0
    endloop
  endfacet
  facet normal 0 0 -1
    outer loop
      vertex -2.5 -4.33013 0
      vertex -2.5 4.33013 0
      vertex -1.91342 4.6194 0
    endloop
  endfacet
  facet normal 0 0 -1
    outer loop
      vertex -3.04381 -3.96677 0
      vertex -2.5 4.33013 0
      vertex -2.5 -4.33013 0
    endloop
  endfacet
  facet normal 0 0 -1
    outer loop
      vertex -3.04381 -3.96677 0
      vertex -3.04381 3.96677 0
      vertex -2.5 4.33013 0
    endloop
  endfacet
  facet normal 0 0 -1
    outer loop
      vertex -3.53553 -3.53553 0
      vertex -3.04381 3.96677 0
      vertex -3.04381 -3.96677 0
    endloop
  endfacet
  facet normal 0 0 -1
    outer loop
      vertex -3.53553 -3.53553 0
      vertex -3.53553 3.53553 0
      vertex -3.04381 3.96677 0
    endloop
  endfacet
  facet normal 0 0 -1
    outer loop
      vertex -3.96677 -3.04381 0
      vertex -3.53553 3.53553 0
      vertex -3.53553 -3.53553 0
    endloop
  endfacet
  facet normal 0 0 -1
    outer loop
      vertex -3.96677 -3.04381 0
      vertex -3.96677 3.04381 0
      vertex -3.53553 3.53553 0
    endloop
  endfacet
  facet normal 0 0 -1
    outer loop
      vertex -4.33013 -2.5 0
      vertex -3.96677 3.04381 0
      vertex -3.96677 -3.04381 0
    endloop
  endfacet
  facet normal 0 0 -1
    outer loop
      vertex -4.33013 -2.5 0
      vertex -4.33013 2.5 0
      vertex -3.96677 3.04381 0
    endloop
  endfacet
  facet normal 0 0 -1
    outer loop
      vertex -4.6194 -1.91342 0
      vertex -4.33013 2.5 0
      vertex -4.33013 -2.5 0
    endloop
  endfacet
  facet normal 0 0 -1
    outer loop
      vertex -4.6194 -1.91342 0
      vertex -4.6194 1.91342 0
      vertex -4.33013 2.5 0
    endloop
  endfacet
  facet normal 0 0 -1
    outer loop
      vertex -4.82963 -1.2941 0
      vertex -4.6194 1.91342 0
      vertex -4.6194 -1.91342 0
    endloop
  endfacet
  facet normal 0 0 -1
    outer loop
      vertex -4.82963 -1.2941 0
      vertex -4.82963 1.2941 0
      vertex -4.6194 1.91342 0
    endloop
  endfacet
  facet normal 0 0 -1
    outer loop
      vertex -4.95722 -0.652631 0
      vertex -4.82963 1.2941 0
      vertex -4.82963 -1.2941 0
    endloop
  endfacet
  facet normal 0 0 -1
    outer loop
      vertex -4.95722 -0.652631 0
      vertex -4.95722 0.652631 0
      vertex -4.82963 1.2941 0
    endloop
  endfacet
  facet normal 0 -0 -1
    outer loop
      vertex -4.95722 0.652631 0
      vertex -4.95722 -0.652631 0
      vertex -5 0 0
    endloop
  endfacet
  facet normal -0.980787 -0.195081 0
    outer loop
      vertex -4.82963 -1.2941 0
      vertex -4.95722 -0.652631 1.5
      vertex -4.95722 -0.652631 0
    endloop
  endfacet
  facet normal -0.980787 -0.195081 0
    outer loop
      vertex -4.95722 -0.652631 1.5
      vertex -4.82963 -1.2941 0
      vertex -4.82963 -1.2941 1.5
    endloop
  endfacet
  facet normal -0.75183 -0.659357 0
    outer loop
      vertex -3.53553 -3.53553 0
      vertex -3.96677 -3.04381 1.5
      vertex -3.96677 -3.04381 0
    endloop
  endfacet
  facet normal -0.75183 -0.659357 0
    outer loop
      vertex -3.96677 -3.04381 1.5
      vertex -3.53553 -3.53553 0
      vertex -3.53553 -3.53553 1.5
    endloop
  endfacet
  facet normal 0 0 1
    outer loop
      vertex 2 0 1.5
      vertex 5 0 1.5
      vertex 4.95722 0.652631 1.5
    endloop
  endfacet
  facet normal 0 0 1
    outer loop
      vertex 1.98289 0.261052 1.5
      vertex 4.95722 0.652631 1.5
      vertex 4.82963 1.2941 1.5
    endloop
  endfacet
  facet normal 0 0 1
    outer loop
      vertex 5 0 1.5
      vertex 2 0 1.5
      vertex 4.95722 -0.652631 1.5
    endloop
  endfacet
  facet normal 0 0 1
    outer loop
      vertex 1.93185 0.517637 1.5
      vertex 4.82963 1.2941 1.5
      vertex 4.6194 1.91342 1.5
    endloop
  endfacet
  facet normal -0 0 1
    outer loop
      vertex 1.98289 -0.261052 1.5
      vertex 4.95722 -0.652631 1.5
      vertex 2 0 1.5
    endloop
  endfacet
  facet normal 0 0 1
    outer loop
      vertex 1.84776 0.765367 1.5
      vertex 4.6194 1.91342 1.5
      vertex 4.33013 2.5 1.5
    endloop
  endfacet
  facet normal 0 0 1
    outer loop
      vertex 4.95722 -0.652631 1.5
      vertex 1.98289 -0.261052 1.5
      vertex 4.82963 -1.2941 1.5
    endloop
  endfacet
  facet normal 0 0 1
    outer loop
      vertex 1.73205 1 1.5
      vertex 4.33013 2.5 1.5
      vertex 3.96677 3.04381 1.5
    endloop
  endfacet
  facet normal -0 0 1
    outer loop
      vertex 1.93185 -0.517637 1.5
      vertex 4.82963 -1.2941 1.5
      vertex 1.98289 -0.261052 1.5
    endloop
  endfacet
  facet normal 0 0 1
    outer loop
      vertex 1.58671 1.21752 1.5
      vertex 3.96677 3.04381 1.5
      vertex 3.53553 3.53553 1.5
    endloop
  endfacet
  facet normal 0 0 1
    outer loop
      vertex 4.82963 -1.2941 1.5
      vertex 1.93185 -0.517637 1.5
      vertex 4.6194 -1.91342 1.5
    endloop
  endfacet
  facet normal 0 0 1
    outer loop
      vertex 1.41421 1.41421 1.5
      vertex 3.53553 3.53553 1.5
      vertex 3.04381 3.96677 1.5
    endloop
  endfacet
  facet normal -0 0 1
    outer loop
      vertex 1.84776 -0.765367 1.5
      vertex 4.6194 -1.91342 1.5
      vertex 1.93185 -0.517637 1.5
    endloop
  endfacet
  facet normal 0 0 1
    outer loop
      vertex 1.21752 1.58671 1.5
      vertex 3.04381 3.96677 1.5
      vertex 2.5 4.33013 1.5
    endloop
  endfacet
  facet normal 0 0 1
    outer loop
      vertex 4.6194 -1.91342 1.5
      vertex 1.84776 -0.765367 1.5
      vertex 4.33013 -2.5 1.5
    endloop
  endfacet
  facet normal -0 0 1
    outer loop
      vertex 1.73205 -1 1.5
      vertex 4.33013 -2.5 1.5
      vertex 1.84776 -0.765367 1.5
    endloop
  endfacet
  facet normal 0 0 1
    outer loop
      vertex 4.95722 0.652631 1.5
      vertex 1.98289 0.261052 1.5
      vertex 2 0 1.5
    endloop
  endfacet
  facet normal 0 0 1
    outer loop
      vertex 4.82963 1.2941 1.5
      vertex 1.93185 0.517637 1.5
      vertex 1.98289 0.261052 1.5
    endloop
  endfacet
  facet normal 0 0 1
    outer loop
      vertex 1 1.73205 1.5
      vertex 2.5 4.33013 1.5
      vertex 1.91342 4.6194 1.5
    endloop
  endfacet
  facet normal 0 0 1
    outer loop
      vertex 4.6194 1.91342 1.5
      vertex 1.84776 0.765367 1.5
      vertex 1.93185 0.517637 1.5
    endloop
  endfacet
  facet normal 0 0 1
    outer loop
      vertex 4.33013 2.5 1.5
      vertex 1.73205 1 1.5
      vertex 1.84776 0.765367 1.5
    endloop
  endfacet
  facet normal 0 0 1
    outer loop
      vertex 3.96677 3.04381 1.5
      vertex 1.58671 1.21752 1.5
      vertex 1.73205 1 1.5
    endloop
  endfacet
  facet normal 0 0 1
    outer loop
      vertex 3.53553 3.53553 1.5
      vertex 1.41421 1.41421 1.5
      vertex 1.58671 1.21752 1.5
    endloop
  endfacet
  facet normal 0 0 1
    outer loop
      vertex 0.765367 1.84776 1.5
      vertex 1.91342 4.6194 1.5
      vertex 1.2941 4.82963 1.5
    endloop
  endfacet
  facet normal 0 0 1
    outer loop
      vertex 3.04381 3.96677 1.5
      vertex 1.21752 1.58671 1.5
      vertex 1.41421 1.41421 1.5
    endloop
  endfacet
  facet normal 0 0 1
    outer loop
      vertex 2.5 4.33013 1.5
      vertex 1 1.73205 1.5
      vertex 1.21752 1.58671 1.5
    endloop
  endfacet
  facet normal 0 0 1
    outer loop
      vertex 1.91342 4.6194 1.5
      vertex 0.765367 1.84776 1.5
      vertex 1 1.73205 1.5
    endloop
  endfacet
  facet normal 0 0 1
    outer loop
      vertex 0.517637 1.93185 1.5
      vertex 1.2941 4.82963 1.5
      vertex 0.652631 4.95722 1.5
    endloop
  endfacet
  facet normal 0 0 1
    outer loop
      vertex 1.2941 4.82963 1.5
      vertex 0.517637 1.93185 1.5
      vertex 0.765367 1.84776 1.5
    endloop
  endfacet
  facet normal 0 0 1
    outer loop
      vertex 0.652631 4.95722 1.5
      vertex 0.261052 1.98289 1.5
      vertex 0.517637 1.93185 1.5
    endloop
  endfacet
  facet normal 0 0 1
    outer loop
      vertex 0 5 1.5
      vertex 0.261052 1.98289 1.5
      vertex 0.652631 4.95722 1.5
    endloop
  endfacet
  facet normal 0 0 1
    outer loop
      vertex 0 5 1.5
      vertex 0 2 1.5
      vertex 0.261052 1.98289 1.5
    endloop
  endfacet
  facet normal 0 0 1
    outer loop
      vertex 0 5 1.5
      vertex -0.261052 1.98289 1.5
      vertex 0 2 1.5
    endloop
  endfacet
  facet normal -0 0 1
    outer loop
      vertex -0.652631 4.95722 1.5
      vertex -0.261052 1.98289 1.5
      vertex 0 5 1.5
    endloop
  endfacet
  facet normal 0 0 1
    outer loop
      vertex -0.261052 1.98289 1.5
      vertex -0.652631 4.95722 1.5
      vertex -0.517637 1.93185 1.5
    endloop
  endfacet
  facet normal -0 0 1
    outer loop
      vertex -1.2941 4.82963 1.5
      vertex -0.517637 1.93185 1.5
      vertex -0.652631 4.95722 1.5
    endloop
  endfacet
  facet normal 0 0 1
    outer loop
      vertex -0.517637 1.93185 1.5
      vertex -1.2941 4.82963 1.5
      vertex -0.765367 1.84776 1.5
    endloop
  endfacet
  facet normal -0 0 1
    outer loop
      vertex -1.91342 4.6194 1.5
      vertex -0.765367 1.84776 1.5
      vertex -1.2941 4.82963 1.5
    endloop
  endfacet
  facet normal 0 0 1
    outer loop
      vertex -0.765367 1.84776 1.5
      vertex -1.91342 4.6194 1.5
      vertex -1 1.73205 1.5
    endloop
  endfacet
  facet normal -0 0 1
    outer loop
      vertex -2.5 4.33013 1.5
      vertex -1 1.73205 1.5
      vertex -1.91342 4.6194 1.5
    endloop
  endfacet
  facet normal 0 0 1
    outer loop
      vertex -1 1.73205 1.5
      vertex -2.5 4.33013 1.5
      vertex -1.21752 1.58671 1.5
    endloop
  endfacet
  facet normal -0 0 1
    outer loop
      vertex -3.04381 3.96677 1.5
      vertex -1.21752 1.58671 1.5
      vertex -2.5 4.33013 1.5
    endloop
  endfacet
  facet normal 0 0 1
    outer loop
      vertex -1.21752 1.58671 1.5
      vertex -3.04381 3.96677 1.5
      vertex -1.41421 1.41421 1.5
    endloop
  endfacet
  facet normal -0 0 1
    outer loop
      vertex -3.53553 3.53553 1.5
      vertex -1.41421 1.41421 1.5
      vertex -3.04381 3.96677 1.5
    endloop
  endfacet
  facet normal 0 0 1
    outer loop
      vertex -1.41421 1.41421 1.5
      vertex -3.53553 3.53553 1.5
      vertex -1.58671 1.21752 1.5
    endloop
  endfacet
  facet normal -0 0 1
    outer loop
      vertex -3.96677 3.04381 1.5
      vertex -1.58671 1.21752 1.5
      vertex -3.53553 3.53553 1.5
    endloop
  endfacet
  facet normal 0 0 1
    outer loop
      vertex -1.58671 1.21752 1.5
      vertex -3.96677 3.04381 1.5
      vertex -1.73205 1 1.5
    endloop
  endfacet
  facet normal -0 0 1
    outer loop
      vertex -4.33013 2.5 1.5
      vertex -1.73205 1 1.5
      vertex -3.96677 3.04381 1.5
    endloop
  endfacet
  facet normal 0 0 1
    outer loop
      vertex 4.33013 -2.5 1.5
      vertex 1.73205 -1 1.5
      vertex 3.96677 -3.04381 1.5
    endloop
  endfacet
  facet normal -0 0 1
    outer loop
      vertex 1.58671 -1.21752 1.5
      vertex 3.96677 -3.04381 1.5
      vertex 1.73205 -1 1.5
    endloop
  endfacet
  facet normal 0 0 1
    outer loop
      vertex 3.96677 -3.04381 1.5
      vertex 1.58671 -1.21752 1.5
      vertex 3.53553 -3.53553 1.5
    endloop
  endfacet
  facet normal -0 0 1
    outer loop
      vertex 1.41421 -1.41421 1.5
      vertex 3.53553 -3.53553 1.5
      vertex 1.58671 -1.21752 1.5
    endloop
  endfacet
  facet normal 0 0 1
    outer loop
      vertex 3.53553 -3.53553 1.5
      vertex 1.41421 -1.41421 1.5
      vertex 3.04381 -3.96677 1.5
    endloop
  endfacet
  facet normal -0 0 1
    outer loop
      vertex 1.21752 -1.58671 1.5
      vertex 3.04381 -3.96677 1.5
      vertex 1.41421 -1.41421 1.5
    endloop
  endfacet
  facet normal 0 0 1
    outer loop
      vertex 3.04381 -3.96677 1.5
      vertex 1.21752 -1.58671 1.5
      vertex 2.5 -4.33013 1.5
    endloop
  endfacet
  facet normal -0 0 1
    outer loop
      vertex 1 -1.73205 1.5
      vertex 2.5 -4.33013 1.5
      vertex 1.21752 -1.58671 1.5
    endloop
  endfacet
  facet normal 0 0 1
    outer loop
      vertex 2.5 -4.33013 1.5
      vertex 1 -1.73205 1.5
      vertex 1.91342 -4.6194 1.5
    endloop
  endfacet
  facet normal -0 0 1
    outer loop
      vertex 0.765367 -1.84776 1.5
      vertex 1.91342 -4.6194 1.5
      vertex 1 -1.73205 1.5
    endloop
  endfacet
  facet normal 0 0 1
    outer loop
      vertex 1.91342 -4.6194 1.5
      vertex 0.765367 -1.84776 1.5
      vertex 1.2941 -4.82963 1.5
    endloop
  endfacet
  facet normal -0 0 1
    outer loop
      vertex 0.517637 -1.93185 1.5
      vertex 1.2941 -4.82963 1.5
      vertex 0.765367 -1.84776 1.5
    endloop
  endfacet
  facet normal 0 0 1
    outer loop
      vertex 1.2941 -4.82963 1.5
      vertex 0.517637 -1.93185 1.5
      vertex 0.652631 -4.95722 1.5
    endloop
  endfacet
  facet normal -0 0 1
    outer loop
      vertex 0.261052 -1.98289 1.5
      vertex 0.652631 -4.95722 1.5
      vertex 0.517637 -1.93185 1.5
    endloop
  endfacet
  facet normal -0 0 1
    outer loop
      vertex 0 -2 1.5
      vertex 0.652631 -4.95722 1.5
      vertex 0.261052 -1.98289 1.5
    endloop
  endfacet
  facet normal 0 0 1
    outer loop
      vertex 0 -2 1.5
      vertex 0 -5 1.5
      vertex 0.652631 -4.95722 1.5
    endloop
  endfacet
  facet normal 0 0 1
    outer loop
      vertex -0.261052 -1.98289 1.5
      vertex 0 -5 1.5
      vertex 0 -2 1.5
    endloop
  endfacet
  facet normal 0 0 1
    outer loop
      vertex -0.652631 -4.95722 1.5
      vertex -0.261052 -1.98289 1.5
      vertex -0.517637 -1.93185 1.5
    endloop
  endfacet
  facet normal 0 0 1
    outer loop
      vertex -0.261052 -1.98289 1.5
      vertex -0.652631 -4.95722 1.5
      vertex 0 -5 1.5
    endloop
  endfacet
  facet normal 0 0 1
    outer loop
      vertex -1.2941 -4.82963 1.5
      vertex -0.517637 -1.93185 1.5
      vertex -0.765367 -1.84776 1.5
    endloop
  endfacet
  facet normal 0 0 1
    outer loop
      vertex -1.91342 -4.6194 1.5
      vertex -0.765367 -1.84776 1.5
      vertex -1 -1.73205 1.5
    endloop
  endfacet
  facet normal 0 0 1
    outer loop
      vertex -2.5 -4.33013 1.5
      vertex -1 -1.73205 1.5
      vertex -1.21752 -1.58671 1.5
    endloop
  endfacet
  facet normal 0 0 1
    outer loop
      vertex -0.517637 -1.93185 1.5
      vertex -1.2941 -4.82963 1.5
      vertex -0.652631 -4.95722 1.5
    endloop
  endfacet
  facet normal 0 0 1
    outer loop
      vertex -3.04381 -3.96677 1.5
      vertex -1.21752 -1.58671 1.5
      vertex -1.41421 -1.41421 1.5
    endloop
  endfacet
  facet normal 0 0 1
    outer loop
      vertex -3.53553 -3.53553 1.5
      vertex -1.41421 -1.41421 1.5
      vertex -1.58671 -1.21752 1.5
    endloop
  endfacet
  facet normal 0 0 1
    outer loop
      vertex -3.96677 -3.04381 1.5
      vertex -1.58671 -1.21752 1.5
      vertex -1.73205 -1 1.5
    endloop
  endfacet
  facet normal 0 0 1
    outer loop
      vertex -4.33013 -2.5 1.5
      vertex -1.73205 -1 1.5
      vertex -1.84776 -0.765367 1.5
    endloop
  endfacet
  facet normal 0 0 1
    outer loop
      vertex -0.765367 -1.84776 1.5
      vertex -1.91342 -4.6194 1.5
      vertex -1.2941 -4.82963 1.5
    endloop
  endfacet
  facet normal 0 0 1
    outer loop
      vertex -4.6194 -1.91342 1.5
      vertex -1.84776 -0.765367 1.5
      vertex -1.93185 -0.517637 1.5
    endloop
  endfacet
  facet normal 0 0 1
    outer loop
      vertex -4.82963 -1.2941 1.5
      vertex -1.93185 -0.517637 1.5
      vertex -1.98289 -0.261052 1.5
    endloop
  endfacet
  facet normal 0 0 1
    outer loop
      vertex -4.95722 -0.652631 1.5
      vertex -1.98289 -0.261052 1.5
      vertex -2 0 1.5
    endloop
  endfacet
  facet normal 0 0 1
    outer loop
      vertex -1.73205 1 1.5
      vertex -4.33013 2.5 1.5
      vertex -1.84776 0.765367 1.5
    endloop
  endfacet
  facet normal 0 0 1
    outer loop
      vertex -1 -1.73205 1.5
      vertex -2.5 -4.33013 1.5
      vertex -1.91342 -4.6194 1.5
    endloop
  endfacet
  facet normal -0 0 1
    outer loop
      vertex -4.6194 1.91342 1.5
      vertex -1.84776 0.765367 1.5
      vertex -4.33013 2.5 1.5
    endloop
  endfacet
  facet normal 0 0 1
    outer loop
      vertex -1.21752 -1.58671 1.5
      vertex -3.04381 -3.96677 1.5
      vertex -2.5 -4.33013 1.5
    endloop
  endfacet
  facet normal 0 0 1
    outer loop
      vertex -1.84776 0.765367 1.5
      vertex -4.6194 1.91342 1.5
      vertex -1.93185 0.517637 1.5
    endloop
  endfacet
  facet normal 0 0 1
    outer loop
      vertex -1.41421 -1.41421 1.5
      vertex -3.53553 -3.53553 1.5
      vertex -3.04381 -3.96677 1.5
    endloop
  endfacet
  facet normal -0 0 1
    outer loop
      vertex -4.82963 1.2941 1.5
      vertex -1.93185 0.517637 1.5
      vertex -4.6194 1.91342 1.5
    endloop
  endfacet
  facet normal 0 0 1
    outer loop
      vertex -1.58671 -1.21752 1.5
      vertex -3.96677 -3.04381 1.5
      vertex -3.53553 -3.53553 1.5
    endloop
  endfacet
  facet normal 0 0 1
    outer loop
      vertex -1.93185 0.517637 1.5
      vertex -4.82963 1.2941 1.5
      vertex -1.98289 0.261052 1.5
    endloop
  endfacet
  facet normal 0 0 1
    outer loop
      vertex -1.73205 -1 1.5
      vertex -4.33013 -2.5 1.5
      vertex -3.96677 -3.04381 1.5
    endloop
  endfacet
  facet normal -0 0 1
    outer loop
      vertex -4.95722 0.652631 1.5
      vertex -1.98289 0.261052 1.5
      vertex -4.82963 1.2941 1.5
    endloop
  endfacet
  facet normal 0 0 1
    outer loop
      vertex -1.84776 -0.765367 1.5
      vertex -4.6194 -1.91342 1.5
      vertex -4.33013 -2.5 1.5
    endloop
  endfacet
  facet normal 0 0 1
    outer loop
      vertex -1.98289 0.261052 1.5
      vertex -4.95722 0.652631 1.5
      vertex -2 0 1.5
    endloop
  endfacet
  facet normal 0 0 1
    outer loop
      vertex -1.93185 -0.517637 1.5
      vertex -4.82963 -1.2941 1.5
      vertex -4.6194 -1.91342 1.5
    endloop
  endfacet
  facet normal 0 0 1
    outer loop
      vertex -5 0 1.5
      vertex -2 0 1.5
      vertex -4.95722 0.652631 1.5
    endloop
  endfacet
  facet normal 0 0 1
    outer loop
      vertex -1.98289 -0.261052 1.5
      vertex -4.95722 -0.652631 1.5
      vertex -4.82963 -1.2941 1.5
    endloop
  endfacet
  facet normal 0 0 1
    outer loop
      vertex -2 0 1.5
      vertex -5 0 1.5
      vertex -4.95722 -0.652631 1.5
    endloop
  endfacet
  facet normal -0.195081 -0.980787 0
    outer loop
      vertex -1.2941 -4.82963 0
      vertex -0.652631 -4.95722 1.5
      vertex -1.2941 -4.82963 1.5
    endloop
  endfacet
  facet normal -0.195081 -0.980787 -0
    outer loop
      vertex -0.652631 -4.95722 1.5
      vertex -1.2941 -4.82963 0
      vertex -0.652631 -4.95722 0
    endloop
  endfacet
  facet normal -0.831471 0.555568 0
    outer loop
      vertex -4.33013 2.5 0
      vertex -3.96677 3.04381 1.5
      vertex -3.96677 3.04381 0
    endloop
  endfacet
  facet normal -0.831471 0.555568 0
    outer loop
      vertex -3.96677 3.04381 1.5
      vertex -4.33013 2.5 0
      vertex -4.33013 2.5 1.5
    endloop
  endfacet
  facet normal -0.0654097 -0.997858 0
    outer loop
      vertex -0.652631 -4.95722 0
      vertex 0 -5 1.5
      vertex -0.652631 -4.95722 1.5
    endloop
  endfacet
  facet normal -0.0654097 -0.997858 -0
    outer loop
      vertex 0 -5 1.5
      vertex -0.652631 -4.95722 0
      vertex 0 -5 0
    endloop
  endfacet
  facet normal 0.980784 0.195098 0
    outer loop
      vertex 1.98289 0.261052 3.7
      vertex 1.93185 0.517637 1.5
      vertex 1.93185 0.517637 3.7
    endloop
  endfacet
  facet normal 0.980784 0.195098 0
    outer loop
      vertex 1.93185 0.517637 1.5
      vertex 1.98289 0.261052 3.7
      vertex 1.98289 0.261052 1.5
    endloop
  endfacet
  facet normal 0.997859 0.0654022 0
    outer loop
      vertex 2 0 3.7
      vertex 1.98289 0.261052 1.5
      vertex 1.98289 0.261052 3.7
    endloop
  endfacet
  facet normal 0.997859 0.0654022 0
    outer loop
      vertex 1.98289 0.261052 1.5
      vertex 2 0 3.7
      vertex 2 0 1.5
    endloop
  endfacet
  facet normal 0.0654022 0.997859 -0
    outer loop
      vertex 0.261052 1.98289 1.5
      vertex 0 2 3.7
      vertex 0.261052 1.98289 3.7
    endloop
  endfacet
  facet normal 0.0654022 0.997859 0
    outer loop
      vertex 0 2 3.7
      vertex 0.261052 1.98289 1.5
      vertex 0 2 1.5
    endloop
  endfacet
  facet normal -0.195098 0.980784 0
    outer loop
      vertex -0.261052 1.98289 1.5
      vertex -0.517637 1.93185 3.7
      vertex -0.261052 1.98289 3.7
    endloop
  endfacet
  facet normal -0.195098 0.980784 0
    outer loop
      vertex -0.517637 1.93185 3.7
      vertex -0.261052 1.98289 1.5
      vertex -0.517637 1.93185 1.5
    endloop
  endfacet
  facet normal -0.946934 -0.321429 0
    outer loop
      vertex -1.84776 -0.765367 1.5
      vertex -1.93185 -0.517637 3.7
      vertex -1.93185 -0.517637 1.5
    endloop
  endfacet
  facet normal -0.946934 -0.321429 0
    outer loop
      vertex -1.93185 -0.517637 3.7
      vertex -1.84776 -0.765367 1.5
      vertex -1.84776 -0.765367 3.7
    endloop
  endfacet
  facet normal 0.555564 -0.831474 0
    outer loop
      vertex 1 -1.73205 1.5
      vertex 1.21752 -1.58671 3.7
      vertex 1 -1.73205 3.7
    endloop
  endfacet
  facet normal 0.555564 -0.831474 0
    outer loop
      vertex 1.21752 -1.58671 3.7
      vertex 1 -1.73205 1.5
      vertex 1.21752 -1.58671 1.5
    endloop
  endfacet
  facet normal -0.89687 0.442294 0
    outer loop
      vertex -1.84776 0.765367 1.5
      vertex -1.73205 1 3.7
      vertex -1.73205 1 1.5
    endloop
  endfacet
  facet normal -0.89687 0.442294 0
    outer loop
      vertex -1.73205 1 3.7
      vertex -1.84776 0.765367 1.5
      vertex -1.84776 0.765367 3.7
    endloop
  endfacet
  facet normal -0.946934 0.321429 0
    outer loop
      vertex -1.93185 0.517637 1.5
      vertex -1.84776 0.765367 3.7
      vertex -1.84776 0.765367 1.5
    endloop
  endfacet
  facet normal -0.946934 0.321429 0
    outer loop
      vertex -1.84776 0.765367 3.7
      vertex -1.93185 0.517637 1.5
      vertex -1.93185 0.517637 3.7
    endloop
  endfacet
  facet normal -0.321429 0.946934 0
    outer loop
      vertex -0.517637 1.93185 1.5
      vertex -0.765367 1.84776 3.7
      vertex -0.517637 1.93185 3.7
    endloop
  endfacet
  facet normal -0.321429 0.946934 0
    outer loop
      vertex -0.765367 1.84776 3.7
      vertex -0.517637 1.93185 1.5
      vertex -0.765367 1.84776 1.5
    endloop
  endfacet
  facet normal 0.997859 -0.0654022 0
    outer loop
      vertex 1.98289 -0.261052 3.7
      vertex 2 0 1.5
      vertex 2 0 3.7
    endloop
  endfacet
  facet normal 0.997859 -0.0654022 0
    outer loop
      vertex 2 0 1.5
      vertex 1.98289 -0.261052 3.7
      vertex 1.98289 -0.261052 1.5
    endloop
  endfacet
  facet normal -0.831474 0.555564 0
    outer loop
      vertex -1.73205 1 1.5
      vertex -1.58671 1.21752 3.7
      vertex -1.58671 1.21752 1.5
    endloop
  endfacet
  facet normal -0.831474 0.555564 0
    outer loop
      vertex -1.58671 1.21752 3.7
      vertex -1.73205 1 1.5
      vertex -1.73205 1 3.7
    endloop
  endfacet
  facet normal -0.980784 0.195098 0
    outer loop
      vertex -1.98289 0.261052 1.5
      vertex -1.93185 0.517637 3.7
      vertex -1.93185 0.517637 1.5
    endloop
  endfacet
  facet normal -0.980784 0.195098 0
    outer loop
      vertex -1.93185 0.517637 3.7
      vertex -1.98289 0.261052 1.5
      vertex -1.98289 0.261052 3.7
    endloop
  endfacet
  facet normal 0.946934 -0.321429 0
    outer loop
      vertex 1.84776 -0.765367 3.7
      vertex 1.93185 -0.517637 1.5
      vertex 1.93185 -0.517637 3.7
    endloop
  endfacet
  facet normal 0.946934 -0.321429 0
    outer loop
      vertex 1.93185 -0.517637 1.5
      vertex 1.84776 -0.765367 3.7
      vertex 1.84776 -0.765367 1.5
    endloop
  endfacet
  facet normal 0.659362 -0.751826 0
    outer loop
      vertex 1.21752 -1.58671 1.5
      vertex 1.41421 -1.41421 3.7
      vertex 1.21752 -1.58671 3.7
    endloop
  endfacet
  facet normal 0.659362 -0.751826 0
    outer loop
      vertex 1.41421 -1.41421 3.7
      vertex 1.21752 -1.58671 1.5
      vertex 1.41421 -1.41421 1.5
    endloop
  endfacet
  facet normal 0.321429 0.946934 -0
    outer loop
      vertex 0.765367 1.84776 1.5
      vertex 0.517637 1.93185 3.7
      vertex 0.765367 1.84776 3.7
    endloop
  endfacet
  facet normal 0.321429 0.946934 0
    outer loop
      vertex 0.517637 1.93185 3.7
      vertex 0.765367 1.84776 1.5
      vertex 0.517637 1.93185 1.5
    endloop
  endfacet
  facet normal -0.751826 -0.659362 0
    outer loop
      vertex -1.41421 -1.41421 1.5
      vertex -1.58671 -1.21752 3.7
      vertex -1.58671 -1.21752 1.5
    endloop
  endfacet
  facet normal -0.751826 -0.659362 0
    outer loop
      vertex -1.58671 -1.21752 3.7
      vertex -1.41421 -1.41421 1.5
      vertex -1.41421 -1.41421 3.7
    endloop
  endfacet
  facet normal -0.659362 0.751826 0
    outer loop
      vertex -1.21752 1.58671 1.5
      vertex -1.41421 1.41421 3.7
      vertex -1.21752 1.58671 3.7
    endloop
  endfacet
  facet normal -0.659362 0.751826 0
    outer loop
      vertex -1.41421 1.41421 3.7
      vertex -1.21752 1.58671 1.5
      vertex -1.41421 1.41421 1.5
    endloop
  endfacet
  facet normal -0.997859 0.0654022 0
    outer loop
      vertex -2 0 1.5
      vertex -1.98289 0.261052 3.7
      vertex -1.98289 0.261052 1.5
    endloop
  endfacet
  facet normal -0.997859 0.0654022 0
    outer loop
      vertex -1.98289 0.261052 3.7
      vertex -2 0 1.5
      vertex -2 0 3.7
    endloop
  endfacet
  facet normal 0.555564 0.831474 -0
    outer loop
      vertex 1.21752 1.58671 1.5
      vertex 1 1.73205 3.7
      vertex 1.21752 1.58671 3.7
    endloop
  endfacet
  facet normal 0.555564 0.831474 0
    outer loop
      vertex 1 1.73205 3.7
      vertex 1.21752 1.58671 1.5
      vertex 1 1.73205 1.5
    endloop
  endfacet
  facet normal 0.831474 -0.555564 0
    outer loop
      vertex 1.58671 -1.21752 3.7
      vertex 1.73205 -1 1.5
      vertex 1.73205 -1 3.7
    endloop
  endfacet
  facet normal 0.831474 -0.555564 0
    outer loop
      vertex 1.73205 -1 1.5
      vertex 1.58671 -1.21752 3.7
      vertex 1.58671 -1.21752 1.5
    endloop
  endfacet
  facet normal 0.831474 0.555564 0
    outer loop
      vertex 1.73205 1 3.7
      vertex 1.58671 1.21752 1.5
      vertex 1.58671 1.21752 3.7
    endloop
  endfacet
  facet normal 0.831474 0.555564 0
    outer loop
      vertex 1.58671 1.21752 1.5
      vertex 1.73205 1 3.7
      vertex 1.73205 1 1.5
    endloop
  endfacet
  facet normal -0.751826 0.659362 0
    outer loop
      vertex -1.58671 1.21752 1.5
      vertex -1.41421 1.41421 3.7
      vertex -1.41421 1.41421 1.5
    endloop
  endfacet
  facet normal -0.751826 0.659362 0
    outer loop
      vertex -1.41421 1.41421 3.7
      vertex -1.58671 1.21752 1.5
      vertex -1.58671 1.21752 3.7
    endloop
  endfacet
  facet normal 0.321429 -0.946934 0
    outer loop
      vertex 0.517637 -1.93185 1.5
      vertex 0.765367 -1.84776 3.7
      vertex 0.517637 -1.93185 3.7
    endloop
  endfacet
  facet normal 0.321429 -0.946934 0
    outer loop
      vertex 0.765367 -1.84776 3.7
      vertex 0.517637 -1.93185 1.5
      vertex 0.765367 -1.84776 1.5
    endloop
  endfacet
  facet normal 0.751826 0.659362 0
    outer loop
      vertex 1.58671 1.21752 3.7
      vertex 1.41421 1.41421 1.5
      vertex 1.41421 1.41421 3.7
    endloop
  endfacet
  facet normal 0.751826 0.659362 0
    outer loop
      vertex 1.41421 1.41421 1.5
      vertex 1.58671 1.21752 3.7
      vertex 1.58671 1.21752 1.5
    endloop
  endfacet
  facet normal 0.0654022 -0.997859 0
    outer loop
      vertex 0 -2 1.5
      vertex 0.261052 -1.98289 3.7
      vertex 0 -2 3.7
    endloop
  endfacet
  facet normal 0.0654022 -0.997859 0
    outer loop
      vertex 0.261052 -1.98289 3.7
      vertex 0 -2 1.5
      vertex 0.261052 -1.98289 1.5
    endloop
  endfacet
  facet normal 0.659362 0.751826 -0
    outer loop
      vertex 1.41421 1.41421 1.5
      vertex 1.21752 1.58671 3.7
      vertex 1.41421 1.41421 3.7
    endloop
  endfacet
  facet normal 0.659362 0.751826 0
    outer loop
      vertex 1.21752 1.58671 3.7
      vertex 1.41421 1.41421 1.5
      vertex 1.21752 1.58671 1.5
    endloop
  endfacet
  facet normal -0.997859 -0.0654022 0
    outer loop
      vertex -1.98289 -0.261052 1.5
      vertex -2 0 3.7
      vertex -2 0 1.5
    endloop
  endfacet
  facet normal -0.997859 -0.0654022 0
    outer loop
      vertex -2 0 3.7
      vertex -1.98289 -0.261052 1.5
      vertex -1.98289 -0.261052 3.7
    endloop
  endfacet
  facet normal -0.659362 -0.751826 0
    outer loop
      vertex -1.41421 -1.41421 1.5
      vertex -1.21752 -1.58671 3.7
      vertex -1.41421 -1.41421 3.7
    endloop
  endfacet
  facet normal -0.659362 -0.751826 -0
    outer loop
      vertex -1.21752 -1.58671 3.7
      vertex -1.41421 -1.41421 1.5
      vertex -1.21752 -1.58671 1.5
    endloop
  endfacet
  facet normal -0.555564 0.831474 0
    outer loop
      vertex -1 1.73205 1.5
      vertex -1.21752 1.58671 3.7
      vertex -1 1.73205 3.7
    endloop
  endfacet
  facet normal -0.555564 0.831474 0
    outer loop
      vertex -1.21752 1.58671 3.7
      vertex -1 1.73205 1.5
      vertex -1.21752 1.58671 1.5
    endloop
  endfacet
  facet normal 0.89687 0.442294 0
    outer loop
      vertex 1.84776 0.765367 3.7
      vertex 1.73205 1 1.5
      vertex 1.73205 1 3.7
    endloop
  endfacet
  facet normal 0.89687 0.442294 0
    outer loop
      vertex 1.73205 1 1.5
      vertex 1.84776 0.765367 3.7
      vertex 1.84776 0.765367 1.5
    endloop
  endfacet
  facet normal -0.0654022 -0.997859 0
    outer loop
      vertex -0.261052 -1.98289 1.5
      vertex 0 -2 3.7
      vertex -0.261052 -1.98289 3.7
    endloop
  endfacet
  facet normal -0.0654022 -0.997859 -0
    outer loop
      vertex 0 -2 3.7
      vertex -0.261052 -1.98289 1.5
      vertex 0 -2 1.5
    endloop
  endfacet
  facet normal 0.195098 -0.980784 0
    outer loop
      vertex 0.261052 -1.98289 1.5
      vertex 0.517637 -1.93185 3.7
      vertex 0.261052 -1.98289 3.7
    endloop
  endfacet
  facet normal 0.195098 -0.980784 0
    outer loop
      vertex 0.517637 -1.93185 3.7
      vertex 0.261052 -1.98289 1.5
      vertex 0.517637 -1.93185 1.5
    endloop
  endfacet
  facet normal 0.442294 0.89687 -0
    outer loop
      vertex 1 1.73205 1.5
      vertex 0.765367 1.84776 3.7
      vertex 1 1.73205 3.7
    endloop
  endfacet
  facet normal 0.442294 0.89687 0
    outer loop
      vertex 0.765367 1.84776 3.7
      vertex 1 1.73205 1.5
      vertex 0.765367 1.84776 1.5
    endloop
  endfacet
  facet normal 0.89687 -0.442294 0
    outer loop
      vertex 1.73205 -1 3.7
      vertex 1.84776 -0.765367 1.5
      vertex 1.84776 -0.765367 3.7
    endloop
  endfacet
  facet normal 0.89687 -0.442294 0
    outer loop
      vertex 1.84776 -0.765367 1.5
      vertex 1.73205 -1 3.7
      vertex 1.73205 -1 1.5
    endloop
  endfacet
  facet normal 0.980784 -0.195098 0
    outer loop
      vertex 1.93185 -0.517637 3.7
      vertex 1.98289 -0.261052 1.5
      vertex 1.98289 -0.261052 3.7
    endloop
  endfacet
  facet normal 0.980784 -0.195098 0
    outer loop
      vertex 1.98289 -0.261052 1.5
      vertex 1.93185 -0.517637 3.7
      vertex 1.93185 -0.517637 1.5
    endloop
  endfacet
  facet normal -0.980784 -0.195098 0
    outer loop
      vertex -1.93185 -0.517637 1.5
      vertex -1.98289 -0.261052 3.7
      vertex -1.98289 -0.261052 1.5
    endloop
  endfacet
  facet normal -0.980784 -0.195098 0
    outer loop
      vertex -1.98289 -0.261052 3.7
      vertex -1.93185 -0.517637 1.5
      vertex -1.93185 -0.517637 3.7
    endloop
  endfacet
  facet normal -0.195098 -0.980784 0
    outer loop
      vertex -0.517637 -1.93185 1.5
      vertex -0.261052 -1.98289 3.7
      vertex -0.517637 -1.93185 3.7
    endloop
  endfacet
  facet normal -0.195098 -0.980784 -0
    outer loop
      vertex -0.261052 -1.98289 3.7
      vertex -0.517637 -1.93185 1.5
      vertex -0.261052 -1.98289 1.5
    endloop
  endfacet
  facet normal 0.195098 0.980784 -0
    outer loop
      vertex 0.517637 1.93185 1.5
      vertex 0.261052 1.98289 3.7
      vertex 0.517637 1.93185 3.7
    endloop
  endfacet
  facet normal 0.195098 0.980784 0
    outer loop
      vertex 0.261052 1.98289 3.7
      vertex 0.517637 1.93185 1.5
      vertex 0.261052 1.98289 1.5
    endloop
  endfacet
  facet normal 0.946934 0.321429 0
    outer loop
      vertex 1.93185 0.517637 3.7
      vertex 1.84776 0.765367 1.5
      vertex 1.84776 0.765367 3.7
    endloop
  endfacet
  facet normal 0.946934 0.321429 0
    outer loop
      vertex 1.84776 0.765367 1.5
      vertex 1.93185 0.517637 3.7
      vertex 1.93185 0.517637 1.5
    endloop
  endfacet
  facet normal 0.442294 -0.89687 0
    outer loop
      vertex 0.765367 -1.84776 1.5
      vertex 1 -1.73205 3.7
      vertex 0.765367 -1.84776 3.7
    endloop
  endfacet
  facet normal 0.442294 -0.89687 0
    outer loop
      vertex 1 -1.73205 3.7
      vertex 0.765367 -1.84776 1.5
      vertex 1 -1.73205 1.5
    endloop
  endfacet
  facet normal 0.751826 -0.659362 0
    outer loop
      vertex 1.41421 -1.41421 3.7
      vertex 1.58671 -1.21752 1.5
      vertex 1.58671 -1.21752 3.7
    endloop
  endfacet
  facet normal 0.751826 -0.659362 0
    outer loop
      vertex 1.58671 -1.21752 1.5
      vertex 1.41421 -1.41421 3.7
      vertex 1.41421 -1.41421 1.5
    endloop
  endfacet
  facet normal -0.831474 -0.555564 0
    outer loop
      vertex -1.58671 -1.21752 1.5
      vertex -1.73205 -1 3.7
      vertex -1.73205 -1 1.5
    endloop
  endfacet
  facet normal -0.831474 -0.555564 0
    outer loop
      vertex -1.73205 -1 3.7
      vertex -1.58671 -1.21752 1.5
      vertex -1.58671 -1.21752 3.7
    endloop
  endfacet
  facet normal -0.0654022 0.997859 0
    outer loop
      vertex 0 2 1.5
      vertex -0.261052 1.98289 3.7
      vertex 0 2 3.7
    endloop
  endfacet
  facet normal -0.0654022 0.997859 0
    outer loop
      vertex -0.261052 1.98289 3.7
      vertex 0 2 1.5
      vertex -0.261052 1.98289 1.5
    endloop
  endfacet
  facet normal -0.321429 -0.946934 0
    outer loop
      vertex -0.765367 -1.84776 1.5
      vertex -0.517637 -1.93185 3.7
      vertex -0.765367 -1.84776 3.7
    endloop
  endfacet
  facet normal -0.321429 -0.946934 -0
    outer loop
      vertex -0.517637 -1.93185 3.7
      vertex -0.765367 -1.84776 1.5
      vertex -0.517637 -1.93185 1.5
    endloop
  endfacet
  facet normal -0.442294 0.89687 0
    outer loop
      vertex -0.765367 1.84776 1.5
      vertex -1 1.73205 3.7
      vertex -0.765367 1.84776 3.7
    endloop
  endfacet
  facet normal -0.442294 0.89687 0
    outer loop
      vertex -1 1.73205 3.7
      vertex -0.765367 1.84776 1.5
      vertex -1 1.73205 1.5
    endloop
  endfacet
  facet normal -0.442294 -0.89687 0
    outer loop
      vertex -1 -1.73205 1.5
      vertex -0.765367 -1.84776 3.7
      vertex -1 -1.73205 3.7
    endloop
  endfacet
  facet normal -0.442294 -0.89687 -0
    outer loop
      vertex -0.765367 -1.84776 3.7
      vertex -1 -1.73205 1.5
      vertex -0.765367 -1.84776 1.5
    endloop
  endfacet
  facet normal -0.89687 -0.442294 0
    outer loop
      vertex -1.73205 -1 1.5
      vertex -1.84776 -0.765367 3.7
      vertex -1.84776 -0.765367 1.5
    endloop
  endfacet
  facet normal -0.89687 -0.442294 0
    outer loop
      vertex -1.84776 -0.765367 3.7
      vertex -1.73205 -1 1.5
      vertex -1.73205 -1 3.7
    endloop
  endfacet
  facet normal -0.555564 -0.831474 0
    outer loop
      vertex -1.21752 -1.58671 1.5
      vertex -1 -1.73205 3.7
      vertex -1.21752 -1.58671 3.7
    endloop
  endfacet
  facet normal -0.555564 -0.831474 -0
    outer loop
      vertex -1 -1.73205 3.7
      vertex -1.21752 -1.58671 1.5
      vertex -1 -1.73205 1.5
    endloop
  endfacet
  facet normal 0 0 1
    outer loop
      vertex 1.98289 0.261052 3.7
      vertex 1.98289 -0.261052 3.7
      vertex 2 0 3.7
    endloop
  endfacet
  facet normal 0 0 1
    outer loop
      vertex 1.93185 0.517637 3.7
      vertex 1.98289 -0.261052 3.7
      vertex 1.98289 0.261052 3.7
    endloop
  endfacet
  facet normal 0 0 1
    outer loop
      vertex 1.93185 0.517637 3.7
      vertex 1.93185 -0.517637 3.7
      vertex 1.98289 -0.261052 3.7
    endloop
  endfacet
  facet normal 0 0 1
    outer loop
      vertex 1.84776 0.765367 3.7
      vertex 1.93185 -0.517637 3.7
      vertex 1.93185 0.517637 3.7
    endloop
  endfacet
  facet normal 0 0 1
    outer loop
      vertex 1.84776 0.765367 3.7
      vertex 1.84776 -0.765367 3.7
      vertex 1.93185 -0.517637 3.7
    endloop
  endfacet
  facet normal 0 0 1
    outer loop
      vertex 1.73205 1 3.7
      vertex 1.84776 -0.765367 3.7
      vertex 1.84776 0.765367 3.7
    endloop
  endfacet
  facet normal 0 0 1
    outer loop
      vertex 1.73205 1 3.7
      vertex 1.73205 -1 3.7
      vertex 1.84776 -0.765367 3.7
    endloop
  endfacet
  facet normal 0 0 1
    outer loop
      vertex 1.58671 1.21752 3.7
      vertex 1.73205 -1 3.7
      vertex 1.73205 1 3.7
    endloop
  endfacet
  facet normal 0 0 1
    outer loop
      vertex 1.58671 1.21752 3.7
      vertex 1.58671 -1.21752 3.7
      vertex 1.73205 -1 3.7
    endloop
  endfacet
  facet normal 0 0 1
    outer loop
      vertex 1.41421 1.41421 3.7
      vertex 1.58671 -1.21752 3.7
      vertex 1.58671 1.21752 3.7
    endloop
  endfacet
  facet normal 0 0 1
    outer loop
      vertex 1.41421 1.41421 3.7
      vertex 1.41421 -1.41421 3.7
      vertex 1.58671 -1.21752 3.7
    endloop
  endfacet
  facet normal 0 0 1
    outer loop
      vertex 1.21752 1.58671 3.7
      vertex 1.41421 -1.41421 3.7
      vertex 1.41421 1.41421 3.7
    endloop
  endfacet
  facet normal 0 0 1
    outer loop
      vertex 1.21752 1.58671 3.7
      vertex 1.21752 -1.58671 3.7
      vertex 1.41421 -1.41421 3.7
    endloop
  endfacet
  facet normal 0 0 1
    outer loop
      vertex 1 1.73205 3.7
      vertex 1.21752 -1.58671 3.7
      vertex 1.21752 1.58671 3.7
    endloop
  endfacet
  facet normal 0 0 1
    outer loop
      vertex 1 1.73205 3.7
      vertex 1 -1.73205 3.7
      vertex 1.21752 -1.58671 3.7
    endloop
  endfacet
  facet normal 0 0 1
    outer loop
      vertex 0.765367 1.84776 3.7
      vertex 1 -1.73205 3.7
      vertex 1 1.73205 3.7
    endloop
  endfacet
  facet normal 0 0 1
    outer loop
      vertex 0.765367 1.84776 3.7
      vertex 0.765367 -1.84776 3.7
      vertex 1 -1.73205 3.7
    endloop
  endfacet
  facet normal 0 0 1
    outer loop
      vertex 0.517637 1.93185 3.7
      vertex 0.765367 -1.84776 3.7
      vertex 0.765367 1.84776 3.7
    endloop
  endfacet
  facet normal 0 0 1
    outer loop
      vertex 0.517637 1.93185 3.7
      vertex 0.517637 -1.93185 3.7
      vertex 0.765367 -1.84776 3.7
    endloop
  endfacet
  facet normal 0 0 1
    outer loop
      vertex 0.261052 1.98289 3.7
      vertex 0.517637 -1.93185 3.7
      vertex 0.517637 1.93185 3.7
    endloop
  endfacet
  facet normal 0 0 1
    outer loop
      vertex 0.261052 1.98289 3.7
      vertex 0.261052 -1.98289 3.7
      vertex 0.517637 -1.93185 3.7
    endloop
  endfacet
  facet normal 0 0 1
    outer loop
      vertex 0 2 3.7
      vertex 0.261052 -1.98289 3.7
      vertex 0.261052 1.98289 3.7
    endloop
  endfacet
  facet normal 0 0 1
    outer loop
      vertex 0 2 3.7
      vertex 0 -2 3.7
      vertex 0.261052 -1.98289 3.7
    endloop
  endfacet
  facet normal -0 0 1
    outer loop
      vertex -0.261052 1.98289 3.7
      vertex 0 -2 3.7
      vertex 0 2 3.7
    endloop
  endfacet
  facet normal 0 0 1
    outer loop
      vertex -0.261052 1.98289 3.7
      vertex -0.261052 -1.98289 3.7
      vertex 0 -2 3.7
    endloop
  endfacet
  facet normal -0 0 1
    outer loop
      vertex -0.517637 1.93185 3.7
      vertex -0.261052 -1.98289 3.7
      vertex -0.261052 1.98289 3.7
    endloop
  endfacet
  facet normal 0 0 1
    outer loop
      vertex -0.517637 1.93185 3.7
      vertex -0.517637 -1.93185 3.7
      vertex -0.261052 -1.98289 3.7
    endloop
  endfacet
  facet normal -0 0 1
    outer loop
      vertex -0.765367 1.84776 3.7
      vertex -0.517637 -1.93185 3.7
      vertex -0.517637 1.93185 3.7
    endloop
  endfacet
  facet normal 0 0 1
    outer loop
      vertex -0.765367 1.84776 3.7
      vertex -0.765367 -1.84776 3.7
      vertex -0.517637 -1.93185 3.7
    endloop
  endfacet
  facet normal -0 0 1
    outer loop
      vertex -1 1.73205 3.7
      vertex -0.765367 -1.84776 3.7
      vertex -0.765367 1.84776 3.7
    endloop
  endfacet
  facet normal 0 0 1
    outer loop
      vertex -1 1.73205 3.7
      vertex -1 -1.73205 3.7
      vertex -0.765367 -1.84776 3.7
    endloop
  endfacet
  facet normal -0 0 1
    outer loop
      vertex -1.21752 1.58671 3.7
      vertex -1 -1.73205 3.7
      vertex -1 1.73205 3.7
    endloop
  endfacet
  facet normal 0 0 1
    outer loop
      vertex -1.21752 1.58671 3.7
      vertex -1.21752 -1.58671 3.7
      vertex -1 -1.73205 3.7
    endloop
  endfacet
  facet normal -0 0 1
    outer loop
      vertex -1.41421 1.41421 3.7
      vertex -1.21752 -1.58671 3.7
      vertex -1.21752 1.58671 3.7
    endloop
  endfacet
  facet normal 0 0 1
    outer loop
      vertex -1.41421 1.41421 3.7
      vertex -1.41421 -1.41421 3.7
      vertex -1.21752 -1.58671 3.7
    endloop
  endfacet
  facet normal -0 0 1
    outer loop
      vertex -1.58671 1.21752 3.7
      vertex -1.41421 -1.41421 3.7
      vertex -1.41421 1.41421 3.7
    endloop
  endfacet
  facet normal 0 0 1
    outer loop
      vertex -1.58671 1.21752 3.7
      vertex -1.58671 -1.21752 3.7
      vertex -1.41421 -1.41421 3.7
    endloop
  endfacet
  facet normal -0 0 1
    outer loop
      vertex -1.73205 1 3.7
      vertex -1.58671 -1.21752 3.7
      vertex -1.58671 1.21752 3.7
    endloop
  endfacet
  facet normal 0 0 1
    outer loop
      vertex -1.73205 1 3.7
      vertex -1.73205 -1 3.7
      vertex -1.58671 -1.21752 3.7
    endloop
  endfacet
  facet normal -0 0 1
    outer loop
      vertex -1.84776 0.765367 3.7
      vertex -1.73205 -1 3.7
      vertex -1.73205 1 3.7
    endloop
  endfacet
  facet normal 0 0 1
    outer loop
      vertex -1.84776 0.765367 3.7
      vertex -1.84776 -0.765367 3.7
      vertex -1.73205 -1 3.7
    endloop
  endfacet
  facet normal -0 0 1
    outer loop
      vertex -1.93185 0.517637 3.7
      vertex -1.84776 -0.765367 3.7
      vertex -1.84776 0.765367 3.7
    endloop
  endfacet
  facet normal 0 0 1
    outer loop
      vertex -1.93185 0.517637 3.7
      vertex -1.93185 -0.517637 3.7
      vertex -1.84776 -0.765367 3.7
    endloop
  endfacet
  facet normal -0 0 1
    outer loop
      vertex -1.98289 0.261052 3.7
      vertex -1.93185 -0.517637 3.7
      vertex -1.93185 0.517637 3.7
    endloop
  endfacet
  facet normal 0 0 1
    outer loop
      vertex -1.98289 0.261052 3.7
      vertex -1.98289 -0.261052 3.7
      vertex -1.93185 -0.517637 3.7
    endloop
  endfacet
  facet normal 0 -0 1
    outer loop
      vertex -1.98289 -0.261052 3.7
      vertex -1.98289 0.261052 3.7
      vertex -2 0 3.7
    endloop
  endfacet
endsolid OpenSCAD_Model
