<svg xmlns="http://www.w3.org/2000/svg" width="1000" height="496" viewBox="0 0 1000 496" font-family="Helvetica, Arial, sans-serif"><defs><marker id="a" markerWidth="6" markerHeight="6" refX="3" refY="3" orient="auto"><circle cx="3" cy="3" r="1.5" fill="#b00"/></marker></defs><rect width="100%" height="100%" fill="#fff"/><text x="70" y="30" font-size="15" font-weight="bold" fill="#111">Cap-brim clip — top plate (sits on the brim)</text><text x="70" y="48" font-size="11" fill="#555">3 mm plate, two Ø8.4 × 2.2 magnet pockets opening downward, polarity opposite to the lid  ·  all dimensions mm, 1 px = 0.167 mm</text><rect x="70.0" y="150.0" width="276.0" height="216.0" rx="18.0" fill="none" stroke="#111" stroke-width="1.2"/><circle cx="142.0" cy="258.0" r="25.2" fill="none" stroke="#111" stroke-width="1.2"/><line x1="138" y1="258.0" x2="146" y2="258.0" stroke="#111" stroke-width="0.6"/><line x1="142.0" y1="254" x2="142.0" y2="262" stroke="#111" stroke-width="0.6"/><text x="171.2" y="262.0" font-size="11" fill="#334">Ø8.4</text><circle cx="274.0" cy="258.0" r="25.2" fill="none" stroke="#111" stroke-width="1.2"/><line x1="270" y1="258.0" x2="278" y2="258.0" stroke="#111" stroke-width="0.6"/><line x1="274.0" y1="254" x2="274.0" y2="262" stroke="#111" stroke-width="0.6"/><text x="303.2" y="262.0" font-size="11" fill="#334">Ø8.4</text><line x1="142.0" y1="395.0" x2="274.0" y2="395.0" stroke="#b00" stroke-width="0.8" marker-start="url(#a)" marker-end="url(#a)"/><line x1="142.0" y1="389.0" x2="142.0" y2="401.0" stroke="#b00" stroke-width="0.6"/><line x1="274.0" y1="389.0" x2="274.0" y2="401.0" stroke="#b00" stroke-width="0.6"/><text x="208.0" y="391.0" font-size="11" text-anchor="middle" fill="#b00">22</text><line x1="42.0" y1="258.0" x2="42.0" y2="366.0" stroke="#b00" stroke-width="0.8" marker-start="url(#a)" marker-end="url(#a)"/><line x1="36.0" y1="258.0" x2="48.0" y2="258.0" stroke="#b00" stroke-width="0.6"/><line x1="36.0" y1="366.0" x2="48.0" y2="366.0" stroke="#b00" stroke-width="0.6"/><text x="46.0" y="316.0" font-size="11" fill="#b00" transform="rotate(-90 46.0 316.0)" text-anchor="middle">18</text></svg>