solid OpenSCAD_Model
  facet normal 0.32141 0.94694 -0
    outer loop
      vertex 10.913 13.9431 0
      vertex 10.3927 14.1197 2.19
      vertex 10.913 13.9431 2.19
    endloop
  endfacet
  facet normal 0.32141 0.94694 0
    outer loop
      vertex 10.3927 14.1197 2.19
      vertex 10.913 13.9431 0
      vertex 10.3927 14.1197 0
    endloop
  endfacet
  facet normal 0.659413 0.751781 -0
    outer loop
      vertex 9.4432 14.6679 0
      vertex 9.03015 15.0302 2.19
      vertex 9.4432 14.6679 2.19
    endloop
  endfacet
  facet normal 0.659413 0.751781 0
    outer loop
      vertex 9.03015 15.0302 2.19
      vertex 9.4432 14.6679 0
      vertex 9.03015 15.0302 0
    endloop
  endfacet
  facet normal -0.980776 -0.195136 0
    outer loop
      vertex 16.1641 18.5482 0
      vertex 16.0569 19.087 2.19
      vertex 16.0569 19.087 0
    endloop
  endfacet
  facet normal -0.980776 -0.195136 0
    outer loop
      vertex 16.0569 19.087 2.19
      vertex 16.1641 18.5482 0
      vertex 16.1641 18.5482 2.19
    endloop
  endfacet
  facet normal -0.997863 -0.0653471 0
    outer loop
      vertex 16.2 18 0
      vertex 16.1641 18.5482 2.19
      vertex 16.1641 18.5482 0
    endloop
  endfacet
  facet normal -0.997863 -0.0653471 0
    outer loop
      vertex 16.1641 18.5482 2.19
      vertex 16.2 18 0
      vertex 16.2 18 2.19
    endloop
  endfacet
  facet normal -0.94694 -0.32141 0
    outer loop
      vertex 16.0569 19.087 0
      vertex 15.8803 19.6073 2.19
      vertex 15.8803 19.6073 0
    endloop
  endfacet
  facet normal -0.94694 -0.32141 0
    outer loop
      vertex 15.8803 19.6073 2.19
      vertex 16.0569 19.087 0
      vertex 16.0569 19.087 2.19
    endloop
  endfacet
  facet normal -0.0653471 -0.997863 0
    outer loop
      vertex 12 22.2 0
      vertex 12.5482 22.1641 2.19
      vertex 12 22.2 2.19
    endloop
  endfacet
  facet normal -0.0653471 -0.997863 -0
    outer loop
      vertex 12.5482 22.1641 2.19
      vertex 12 22.2 0
      vertex 12.5482 22.1641 0
    endloop
  endfacet
  facet normal 0.997859 -0.0654015 0
    outer loop
      vertex 7.8 18 2.19
      vertex 7.83593 18.5482 0
      vertex 7.83593 18.5482 2.19
    endloop
  endfacet
  facet normal 0.997859 -0.0654015 0
    outer loop
      vertex 7.83593 18.5482 0
      vertex 7.8 18 2.19
      vertex 7.8 18 0
    endloop
  endfacet
  facet normal -0.32141 -0.94694 0
    outer loop
      vertex 13.087 22.0569 0
      vertex 13.6073 21.8803 2.19
      vertex 13.087 22.0569 2.19
    endloop
  endfacet
  facet normal -0.32141 -0.94694 -0
    outer loop
      vertex 13.6073 21.8803 2.19
      vertex 13.087 22.0569 0
      vertex 13.6073 21.8803 0
    endloop
  endfacet
  facet normal -0.0653471 0.997863 0
    outer loop
      vertex 12.5482 13.8359 0
      vertex 12 13.8 2.19
      vertex 12.5482 13.8359 2.19
    endloop
  endfacet
  facet normal -0.0653471 0.997863 0
    outer loop
      vertex 12 13.8 2.19
      vertex 12.5482 13.8359 0
      vertex 12 13.8 0
    endloop
  endfacet
  facet normal -0.32141 0.94694 0
    outer loop
      vertex 13.6073 14.1197 0
      vertex 13.087 13.9431 2.19
      vertex 13.6073 14.1197 2.19
    endloop
  endfacet
  facet normal -0.32141 0.94694 0
    outer loop
      vertex 13.087 13.9431 2.19
      vertex 13.6073 14.1197 0
      vertex 13.087 13.9431 0
    endloop
  endfacet
  facet normal -0.83149 -0.55554 0
    outer loop
      vertex 15.6373 20.1 0
      vertex 15.3321 20.5568 2.19
      vertex 15.3321 20.5568 0
    endloop
  endfacet
  facet normal -0.83149 -0.55554 0
    outer loop
      vertex 15.3321 20.5568 2.19
      vertex 15.6373 20.1 0
      vertex 15.6373 20.1 2.19
    endloop
  endfacet
  facet normal -0.896853 -0.442329 0
    outer loop
      vertex 15.8803 19.6073 0
      vertex 15.6373 20.1 2.19
      vertex 15.6373 20.1 0
    endloop
  endfacet
  facet normal -0.896853 -0.442329 0
    outer loop
      vertex 15.6373 20.1 2.19
      vertex 15.8803 19.6073 0
      vertex 15.8803 19.6073 2.19
    endloop
  endfacet
  facet normal 0 0 -1
    outer loop
      vertex 16.1641 17.4518 2.19
      vertex 16.1641 18.5482 2.19
      vertex 16.2 18 2.19
    endloop
  endfacet
  facet normal 0 0 -1
    outer loop
      vertex 16.0569 16.913 2.19
      vertex 16.1641 18.5482 2.19
      vertex 16.1641 17.4518 2.19
    endloop
  endfacet
  facet normal 0 0 -1
    outer loop
      vertex 16.0569 16.913 2.19
      vertex 16.0569 19.087 2.19
      vertex 16.1641 18.5482 2.19
    endloop
  endfacet
  facet normal 0 0 -1
    outer loop
      vertex 15.8803 16.3927 2.19
      vertex 16.0569 19.087 2.19
      vertex 16.0569 16.913 2.19
    endloop
  endfacet
  facet normal 0 0 -1
    outer loop
      vertex 15.8803 16.3927 2.19
      vertex 15.8803 19.6073 2.19
      vertex 16.0569 19.087 2.19
    endloop
  endfacet
  facet normal 0 0 -1
    outer loop
      vertex 15.6373 15.9 2.19
      vertex 15.8803 19.6073 2.19
      vertex 15.8803 16.3927 2.19
    endloop
  endfacet
  facet normal 0 0 -1
    outer loop
      vertex 15.6373 15.9 2.19
      vertex 15.6373 20.1 2.19
      vertex 15.8803 19.6073 2.19
    endloop
  endfacet
  facet normal 0 0 -1
    outer loop
      vertex 15.3321 15.4432 2.19
      vertex 15.6373 20.1 2.19
      vertex 15.6373 15.9 2.19
    endloop
  endfacet
  facet normal 0 0 -1
    outer loop
      vertex 15.3321 15.4432 2.19
      vertex 15.3321 20.5568 2.19
      vertex 15.6373 20.1 2.19
    endloop
  endfacet
  facet normal 0 0 -1
    outer loop
      vertex 14.9698 15.0302 2.19
      vertex 15.3321 20.5568 2.19
      vertex 15.3321 15.4432 2.19
    endloop
  endfacet
  facet normal 0 0 -1
    outer loop
      vertex 14.9698 15.0302 2.19
      vertex 14.9698 20.9698 2.19
      vertex 15.3321 20.5568 2.19
    endloop
  endfacet
  facet normal 0 0 -1
    outer loop
      vertex 14.5568 14.6679 2.19
      vertex 14.9698 20.9698 2.19
      vertex 14.9698 15.0302 2.19
    endloop
  endfacet
  facet normal 0 0 -1
    outer loop
      vertex 14.5568 14.6679 2.19
      vertex 14.5568 21.3321 2.19
      vertex 14.9698 20.9698 2.19
    endloop
  endfacet
  facet normal 0 0 -1
    outer loop
      vertex 14.1 14.3627 2.19
      vertex 14.5568 21.3321 2.19
      vertex 14.5568 14.6679 2.19
    endloop
  endfacet
  facet normal 0 0 -1
    outer loop
      vertex 14.1 14.3627 2.19
      vertex 14.1 21.6373 2.19
      vertex 14.5568 21.3321 2.19
    endloop
  endfacet
  facet normal 0 0 -1
    outer loop
      vertex 13.6073 14.1197 2.19
      vertex 14.1 21.6373 2.19
      vertex 14.1 14.3627 2.19
    endloop
  endfacet
  facet normal 0 0 -1
    outer loop
      vertex 13.6073 14.1197 2.19
      vertex 13.6073 21.8803 2.19
      vertex 14.1 21.6373 2.19
    endloop
  endfacet
  facet normal 0 0 -1
    outer loop
      vertex 13.087 13.9431 2.19
      vertex 13.6073 21.8803 2.19
      vertex 13.6073 14.1197 2.19
    endloop
  endfacet
  facet normal 0 0 -1
    outer loop
      vertex 13.087 13.9431 2.19
      vertex 13.087 22.0569 2.19
      vertex 13.6073 21.8803 2.19
    endloop
  endfacet
  facet normal 0 0 -1
    outer loop
      vertex 12.5482 13.8359 2.19
      vertex 13.087 22.0569 2.19
      vertex 13.087 13.9431 2.19
    endloop
  endfacet
  facet normal 0 0 -1
    outer loop
      vertex 12.5482 13.8359 2.19
      vertex 12.5482 22.1641 2.19
      vertex 13.087 22.0569 2.19
    endloop
  endfacet
  facet normal 0 0 -1
    outer loop
      vertex 12 13.8 2.19
      vertex 12.5482 22.1641 2.19
      vertex 12.5482 13.8359 2.19
    endloop
  endfacet
  facet normal 0 0 -1
    outer loop
      vertex 12 13.8 2.19
      vertex 12 22.2 2.19
      vertex 12.5482 22.1641 2.19
    endloop
  endfacet
  facet normal 0 0 -1
    outer loop
      vertex 11.4518 13.8359 2.19
      vertex 12 22.2 2.19
      vertex 12 13.8 2.19
    endloop
  endfacet
  facet normal 0 0 -1
    outer loop
      vertex 11.4518 13.8359 2.19
      vertex 11.4518 22.1641 2.19
      vertex 12 22.2 2.19
    endloop
  endfacet
  facet normal 0 0 -1
    outer loop
      vertex 10.913 13.9431 2.19
      vertex 11.4518 22.1641 2.19
      vertex 11.4518 13.8359 2.19
    endloop
  endfacet
  facet normal 0 0 -1
    outer loop
      vertex 10.913 13.9431 2.19
      vertex 10.913 22.0569 2.19
      vertex 11.4518 22.1641 2.19
    endloop
  endfacet
  facet normal 0 0 -1
    outer loop
      vertex 10.3927 14.1197 2.19
      vertex 10.913 22.0569 2.19
      vertex 10.913 13.9431 2.19
    endloop
  endfacet
  facet normal 0 0 -1
    outer loop
      vertex 10.3927 14.1197 2.19
      vertex 10.3927 21.8803 2.19
      vertex 10.913 22.0569 2.19
    endloop
  endfacet
  facet normal 0 0 -1
    outer loop
      vertex 9.9 14.3627 2.19
      vertex 10.3927 21.8803 2.19
      vertex 10.3927 14.1197 2.19
    endloop
  endfacet
  facet normal 0 0 -1
    outer loop
      vertex 9.9 14.3627 2.19
      vertex 9.9 21.6373 2.19
      vertex 10.3927 21.8803 2.19
    endloop
  endfacet
  facet normal 0 0 -1
    outer loop
      vertex 9.4432 14.6679 2.19
      vertex 9.9 21.6373 2.19
      vertex 9.9 14.3627 2.19
    endloop
  endfacet
  facet normal 0 0 -1
    outer loop
      vertex 9.4432 14.6679 2.19
      vertex 9.4432 21.3321 2.19
      vertex 9.9 21.6373 2.19
    endloop
  endfacet
  facet normal 0 0 -1
    outer loop
      vertex 9.03015 15.0302 2.19
      vertex 9.4432 21.3321 2.19
      vertex 9.4432 14.6679 2.19
    endloop
  endfacet
  facet normal 0 0 -1
    outer loop
      vertex 9.03015 15.0302 2.19
      vertex 9.03015 20.9698 2.19
      vertex 9.4432 21.3321 2.19
    endloop
  endfacet
  facet normal 0 0 -1
    outer loop
      vertex 8.66792 15.4432 2.19
      vertex 9.03015 20.9698 2.19
      vertex 9.03015 15.0302 2.19
    endloop
  endfacet
  facet normal 0 0 -1
    outer loop
      vertex 8.66792 15.4432 2.19
      vertex 8.66792 20.5568 2.19
      vertex 9.03015 20.9698 2.19
    endloop
  endfacet
  facet normal 0 0 -1
    outer loop
      vertex 8.36269 15.9 2.19
      vertex 8.66792 20.5568 2.19
      vertex 8.66792 15.4432 2.19
    endloop
  endfacet
  facet normal 0 0 -1
    outer loop
      vertex 8.36269 15.9 2.19
      vertex 8.36269 20.1 2.19
      vertex 8.66792 20.5568 2.19
    endloop
  endfacet
  facet normal 0 0 -1
    outer loop
      vertex 8.11971 16.3927 2.19
      vertex 8.36269 20.1 2.19
      vertex 8.36269 15.9 2.19
    endloop
  endfacet
  facet normal 0 0 -1
    outer loop
      vertex 8.11971 16.3927 2.19
      vertex 8.11971 19.6073 2.19
      vertex 8.36269 20.1 2.19
    endloop
  endfacet
  facet normal 0 0 -1
    outer loop
      vertex 7.94311 16.913 2.19
      vertex 8.11971 19.6073 2.19
      vertex 8.11971 16.3927 2.19
    endloop
  endfacet
  facet normal 0 0 -1
    outer loop
      vertex 7.94311 16.913 2.19
      vertex 7.94311 19.087 2.19
      vertex 8.11971 19.6073 2.19
    endloop
  endfacet
  facet normal 0 0 -1
    outer loop
      vertex 7.83593 17.4518 2.19
      vertex 7.94311 19.087 2.19
      vertex 7.94311 16.913 2.19
    endloop
  endfacet
  facet normal 0 0 -1
    outer loop
      vertex 7.83593 17.4518 2.19
      vertex 7.83593 18.5482 2.19
      vertex 7.94311 19.087 2.19
    endloop
  endfacet
  facet normal 0 -0 -1
    outer loop
      vertex 7.83593 18.5482 2.19
      vertex 7.83593 17.4518 2.19
      vertex 7.8 18 2.19
    endloop
  endfacet
  facet normal 0.0653471 0.997863 -0
    outer loop
      vertex 12 13.8 0
      vertex 11.4518 13.8359 2.19
      vertex 12 13.8 2.19
    endloop
  endfacet
  facet normal 0.0653471 0.997863 0
    outer loop
      vertex 11.4518 13.8359 2.19
      vertex 12 13.8 0
      vertex 11.4518 13.8359 0
    endloop
  endfacet
  facet normal 0.442329 0.896853 -0
    outer loop
      vertex 10.3927 14.1197 0
      vertex 9.9 14.3627 2.19
      vertex 10.3927 14.1197 2.19
    endloop
  endfacet
  facet normal 0.442329 0.896853 0
    outer loop
      vertex 9.9 14.3627 2.19
      vertex 10.3927 14.1197 0
      vertex 9.9 14.3627 0
    endloop
  endfacet
  facet normal 0.55554 0.83149 -0
    outer loop
      vertex 9.9 14.3627 0
      vertex 9.4432 14.6679 2.19
      vertex 9.9 14.3627 2.19
    endloop
  endfacet
  facet normal 0.55554 0.83149 0
    outer loop
      vertex 9.4432 14.6679 2.19
      vertex 9.9 14.3627 0
      vertex 9.4432 14.6679 0
    endloop
  endfacet
  facet normal -0.94694 0.32141 0
    outer loop
      vertex 15.8803 16.3927 0
      vertex 16.0569 16.913 2.19
      vertex 16.0569 16.913 0
    endloop
  endfacet
  facet normal -0.94694 0.32141 0
    outer loop
      vertex 16.0569 16.913 2.19
      vertex 15.8803 16.3927 0
      vertex 15.8803 16.3927 2.19
    endloop
  endfacet
  facet normal -0.195136 -0.980776 0
    outer loop
      vertex 12.5482 22.1641 0
      vertex 13.087 22.0569 2.19
      vertex 12.5482 22.1641 2.19
    endloop
  endfacet
  facet normal -0.195136 -0.980776 -0
    outer loop
      vertex 13.087 22.0569 2.19
      vertex 12.5482 22.1641 0
      vertex 13.087 22.0569 0
    endloop
  endfacet
  facet normal -0.896853 0.442329 0
    outer loop
      vertex 15.6373 15.9 0
      vertex 15.8803 16.3927 2.19
      vertex 15.8803 16.3927 0
    endloop
  endfacet
  facet normal -0.896853 0.442329 0
    outer loop
      vertex 15.8803 16.3927 2.19
      vertex 15.6373 15.9 0
      vertex 15.6373 15.9 2.19
    endloop
  endfacet
  facet normal 0.442329 -0.896853 0
    outer loop
      vertex 9.9 21.6373 0
      vertex 10.3927 21.8803 2.19
      vertex 9.9 21.6373 2.19
    endloop
  endfacet
  facet normal 0.442329 -0.896853 0
    outer loop
      vertex 10.3927 21.8803 2.19
      vertex 9.9 21.6373 0
      vertex 10.3927 21.8803 0
    endloop
  endfacet
  facet normal 0.751805 -0.659386 0
    outer loop
      vertex 8.66792 20.5568 2.19
      vertex 9.03015 20.9698 0
      vertex 9.03015 20.9698 2.19
    endloop
  endfacet
  facet normal 0.751805 -0.659386 0
    outer loop
      vertex 9.03015 20.9698 0
      vertex 8.66792 20.5568 2.19
      vertex 8.66792 20.5568 0
    endloop
  endfacet
  facet normal 0.0653471 -0.997863 0
    outer loop
      vertex 11.4518 22.1641 0
      vertex 12 22.2 2.19
      vertex 11.4518 22.1641 2.19
    endloop
  endfacet
  facet normal 0.0653471 -0.997863 0
    outer loop
      vertex 12 22.2 2.19
      vertex 11.4518 22.1641 0
      vertex 12 22.2 0
    endloop
  endfacet
  facet normal -0.195136 0.980776 0
    outer loop
      vertex 13.087 13.9431 0
      vertex 12.5482 13.8359 2.19
      vertex 13.087 13.9431 2.19
    endloop
  endfacet
  facet normal -0.195136 0.980776 0
    outer loop
      vertex 12.5482 13.8359 2.19
      vertex 13.087 13.9431 0
      vertex 12.5482 13.8359 0
    endloop
  endfacet
  facet normal -0.997863 0.0653471 0
    outer loop
      vertex 16.1641 17.4518 0
      vertex 16.2 18 2.19
      vertex 16.2 18 0
    endloop
  endfacet
  facet normal -0.997863 0.0653471 0
    outer loop
      vertex 16.2 18 2.19
      vertex 16.1641 17.4518 0
      vertex 16.1641 17.4518 2.19
    endloop
  endfacet
  facet normal 0.55554 -0.83149 0
    outer loop
      vertex 9.4432 21.3321 0
      vertex 9.9 21.6373 2.19
      vertex 9.4432 21.3321 2.19
    endloop
  endfacet
  facet normal 0.55554 -0.83149 0
    outer loop
      vertex 9.9 21.6373 2.19
      vertex 9.4432 21.3321 0
      vertex 9.9 21.6373 0
    endloop
  endfacet
  facet normal -0.751742 0.659458 0
    outer loop
      vertex 14.9698 15.0302 0
      vertex 15.3321 15.4432 2.19
      vertex 15.3321 15.4432 0
    endloop
  endfacet
  facet normal -0.751742 0.659458 0
    outer loop
      vertex 15.3321 15.4432 2.19
      vertex 14.9698 15.0302 0
      vertex 14.9698 15.0302 2.19
    endloop
  endfacet
  facet normal -0.55554 0.83149 0
    outer loop
      vertex 14.5568 14.6679 0
      vertex 14.1 14.3627 2.19
      vertex 14.5568 14.6679 2.19
    endloop
  endfacet
  facet normal -0.55554 0.83149 0
    outer loop
      vertex 14.1 14.3627 2.19
      vertex 14.5568 14.6679 0
      vertex 14.1 14.3627 0
    endloop
  endfacet
  facet normal 0.195136 -0.980776 0
    outer loop
      vertex 10.913 22.0569 0
      vertex 11.4518 22.1641 2.19
      vertex 10.913 22.0569 2.19
    endloop
  endfacet
  facet normal 0.195136 -0.980776 0
    outer loop
      vertex 11.4518 22.1641 2.19
      vertex 10.913 22.0569 0
      vertex 11.4518 22.1641 0
    endloop
  endfacet
  facet normal 0.896868 0.442299 0
    outer loop
      vertex 8.36269 15.9 2.19
      vertex 8.11971 16.3927 0
      vertex 8.11971 16.3927 2.19
    endloop
  endfacet
  facet normal 0.896868 0.442299 0
    outer loop
      vertex 8.11971 16.3927 0
      vertex 8.36269 15.9 2.19
      vertex 8.36269 15.9 0
    endloop
  endfacet
  facet normal 0.94694 0.32141 0
    outer loop
      vertex 8.11971 16.3927 2.19
      vertex 7.94311 16.913 0
      vertex 7.94311 16.913 2.19
    endloop
  endfacet
  facet normal 0.94694 0.32141 0
    outer loop
      vertex 7.94311 16.913 0
      vertex 8.11971 16.3927 2.19
      vertex 8.11971 16.3927 0
    endloop
  endfacet
  facet normal -0.751742 -0.659458 0
    outer loop
      vertex 15.3321 20.5568 0
      vertex 14.9698 20.9698 2.19
      vertex 14.9698 20.9698 0
    endloop
  endfacet
  facet normal -0.751742 -0.659458 0
    outer loop
      vertex 14.9698 20.9698 2.19
      vertex 15.3321 20.5568 0
      vertex 15.3321 20.5568 2.19
    endloop
  endfacet
  facet normal -0.980776 0.195136 0
    outer loop
      vertex 16.0569 16.913 0
      vertex 16.1641 17.4518 2.19
      vertex 16.1641 17.4518 0
    endloop
  endfacet
  facet normal -0.980776 0.195136 0
    outer loop
      vertex 16.1641 17.4518 2.19
      vertex 16.0569 16.913 0
      vertex 16.0569 16.913 2.19
    endloop
  endfacet
  facet normal -0.442329 -0.896853 0
    outer loop
      vertex 13.6073 21.8803 0
      vertex 14.1 21.6373 2.19
      vertex 13.6073 21.8803 2.19
    endloop
  endfacet
  facet normal -0.442329 -0.896853 -0
    outer loop
      vertex 14.1 21.6373 2.19
      vertex 13.6073 21.8803 0
      vertex 14.1 21.6373 0
    endloop
  endfacet
  facet normal 0.94694 -0.32141 0
    outer loop
      vertex 7.94311 19.087 2.19
      vertex 8.11971 19.6073 0
      vertex 8.11971 19.6073 2.19
    endloop
  endfacet
  facet normal 0.94694 -0.32141 0
    outer loop
      vertex 8.11971 19.6073 0
      vertex 7.94311 19.087 2.19
      vertex 7.94311 19.087 0
    endloop
  endfacet
  facet normal 0.32141 -0.94694 0
    outer loop
      vertex 10.3927 21.8803 0
      vertex 10.913 22.0569 2.19
      vertex 10.3927 21.8803 2.19
    endloop
  endfacet
  facet normal 0.32141 -0.94694 0
    outer loop
      vertex 10.913 22.0569 2.19
      vertex 10.3927 21.8803 0
      vertex 10.913 22.0569 0
    endloop
  endfacet
  facet normal -0.442329 0.896853 0
    outer loop
      vertex 14.1 14.3627 0
      vertex 13.6073 14.1197 2.19
      vertex 14.1 14.3627 2.19
    endloop
  endfacet
  facet normal -0.442329 0.896853 0
    outer loop
      vertex 13.6073 14.1197 2.19
      vertex 14.1 14.3627 0
      vertex 13.6073 14.1197 0
    endloop
  endfacet
  facet normal 0.831465 0.555578 0
    outer loop
      vertex 8.66792 15.4432 2.19
      vertex 8.36269 15.9 0
      vertex 8.36269 15.9 2.19
    endloop
  endfacet
  facet normal 0.831465 0.555578 0
    outer loop
      vertex 8.36269 15.9 0
      vertex 8.66792 15.4432 2.19
      vertex 8.66792 15.4432 0
    endloop
  endfacet
  facet normal 0.980783 -0.195101 0
    outer loop
      vertex 7.83593 18.5482 2.19
      vertex 7.94311 19.087 0
      vertex 7.94311 19.087 2.19
    endloop
  endfacet
  facet normal 0.980783 -0.195101 0
    outer loop
      vertex 7.94311 19.087 0
      vertex 7.83593 18.5482 2.19
      vertex 7.83593 18.5482 0
    endloop
  endfacet
  facet normal 0.980783 0.195101 0
    outer loop
      vertex 7.94311 16.913 2.19
      vertex 7.83593 17.4518 0
      vertex 7.83593 17.4518 2.19
    endloop
  endfacet
  facet normal 0.980783 0.195101 0
    outer loop
      vertex 7.83593 17.4518 0
      vertex 7.94311 16.913 2.19
      vertex 7.94311 16.913 0
    endloop
  endfacet
  facet normal 0.659413 -0.751781 0
    outer loop
      vertex 9.03015 20.9698 0
      vertex 9.4432 21.3321 2.19
      vertex 9.03015 20.9698 2.19
    endloop
  endfacet
  facet normal 0.659413 -0.751781 0
    outer loop
      vertex 9.4432 21.3321 2.19
      vertex 9.03015 20.9698 0
      vertex 9.4432 21.3321 0
    endloop
  endfacet
  facet normal -0.55554 -0.83149 0
    outer loop
      vertex 14.1 21.6373 0
      vertex 14.5568 21.3321 2.19
      vertex 14.1 21.6373 2.19
    endloop
  endfacet
  facet normal -0.55554 -0.83149 -0
    outer loop
      vertex 14.5568 21.3321 2.19
      vertex 14.1 21.6373 0
      vertex 14.5568 21.3321 0
    endloop
  endfacet
  facet normal -0.659458 -0.751742 0
    outer loop
      vertex 14.5568 21.3321 0
      vertex 14.9698 20.9698 2.19
      vertex 14.5568 21.3321 2.19
    endloop
  endfacet
  facet normal -0.659458 -0.751742 -0
    outer loop
      vertex 14.9698 20.9698 2.19
      vertex 14.5568 21.3321 0
      vertex 14.9698 20.9698 0
    endloop
  endfacet
  facet normal 0.751805 0.659386 0
    outer loop
      vertex 9.03015 15.0302 2.19
      vertex 8.66792 15.4432 0
      vertex 8.66792 15.4432 2.19
    endloop
  endfacet
  facet normal 0.751805 0.659386 0
    outer loop
      vertex 8.66792 15.4432 0
      vertex 9.03015 15.0302 2.19
      vertex 9.03015 15.0302 0
    endloop
  endfacet
  facet normal -0.83149 0.55554 0
    outer loop
      vertex 15.3321 15.4432 0
      vertex 15.6373 15.9 2.19
      vertex 15.6373 15.9 0
    endloop
  endfacet
  facet normal -0.83149 0.55554 0
    outer loop
      vertex 15.6373 15.9 2.19
      vertex 15.3321 15.4432 0
      vertex 15.3321 15.4432 2.19
    endloop
  endfacet
  facet normal -0.659458 0.751742 0
    outer loop
      vertex 14.9698 15.0302 0
      vertex 14.5568 14.6679 2.19
      vertex 14.9698 15.0302 2.19
    endloop
  endfacet
  facet normal -0.659458 0.751742 0
    outer loop
      vertex 14.5568 14.6679 2.19
      vertex 14.9698 15.0302 0
      vertex 14.5568 14.6679 0
    endloop
  endfacet
  facet normal 0.997859 0.0654015 0
    outer loop
      vertex 7.83593 17.4518 2.19
      vertex 7.8 18 0
      vertex 7.8 18 2.19
    endloop
  endfacet
  facet normal 0.997859 0.0654015 0
    outer loop
      vertex 7.8 18 0
      vertex 7.83593 17.4518 2.19
      vertex 7.83593 17.4518 0
    endloop
  endfacet
  facet normal 0.896868 -0.442299 0
    outer loop
      vertex 8.11971 19.6073 2.19
      vertex 8.36269 20.1 0
      vertex 8.36269 20.1 2.19
    endloop
  endfacet
  facet normal 0.896868 -0.442299 0
    outer loop
      vertex 8.36269 20.1 0
      vertex 8.11971 19.6073 2.19
      vertex 8.11971 19.6073 0
    endloop
  endfacet
  facet normal 0.195136 0.980776 -0
    outer loop
      vertex 11.4518 13.8359 0
      vertex 10.913 13.9431 2.19
      vertex 11.4518 13.8359 2.19
    endloop
  endfacet
  facet normal 0.195136 0.980776 0
    outer loop
      vertex 10.913 13.9431 2.19
      vertex 11.4518 13.8359 0
      vertex 10.913 13.9431 0
    endloop
  endfacet
  facet normal 0.831465 -0.555578 0
    outer loop
      vertex 8.36269 20.1 2.19
      vertex 8.66792 20.5568 0
      vertex 8.66792 20.5568 2.19
    endloop
  endfacet
  facet normal 0.831465 -0.555578 0
    outer loop
      vertex 8.66792 20.5568 0
      vertex 8.36269 20.1 2.19
      vertex 8.36269 20.1 0
    endloop
  endfacet
  facet normal 0.32141 0.94694 -0
    outer loop
      vertex 32.913 13.9431 0
      vertex 32.3927 14.1197 2.19
      vertex 32.913 13.9431 2.19
    endloop
  endfacet
  facet normal 0.32141 0.94694 0
    outer loop
      vertex 32.3927 14.1197 2.19
      vertex 32.913 13.9431 0
      vertex 32.3927 14.1197 0
    endloop
  endfacet
  facet normal 0.659458 0.751742 -0
    outer loop
      vertex 31.4432 14.6679 0
      vertex 31.0302 15.0302 2.19
      vertex 31.4432 14.6679 2.19
    endloop
  endfacet
  facet normal 0.659458 0.751742 0
    outer loop
      vertex 31.0302 15.0302 2.19
      vertex 31.4432 14.6679 0
      vertex 31.0302 15.0302 0
    endloop
  endfacet
  facet normal -0.980776 -0.195136 0
    outer loop
      vertex 38.1641 18.5482 0
      vertex 38.0569 19.087 2.19
      vertex 38.0569 19.087 0
    endloop
  endfacet
  facet normal -0.980776 -0.195136 0
    outer loop
      vertex 38.0569 19.087 2.19
      vertex 38.1641 18.5482 0
      vertex 38.1641 18.5482 2.19
    endloop
  endfacet
  facet normal -0.997863 -0.0653471 0
    outer loop
      vertex 38.2 18 0
      vertex 38.1641 18.5482 2.19
      vertex 38.1641 18.5482 0
    endloop
  endfacet
  facet normal -0.997863 -0.0653471 0
    outer loop
      vertex 38.1641 18.5482 2.19
      vertex 38.2 18 0
      vertex 38.2 18 2.19
    endloop
  endfacet
  facet normal -0.94694 -0.32141 0
    outer loop
      vertex 38.0569 19.087 0
      vertex 37.8803 19.6073 2.19
      vertex 37.8803 19.6073 0
    endloop
  endfacet
  facet normal -0.94694 -0.32141 0
    outer loop
      vertex 37.8803 19.6073 2.19
      vertex 38.0569 19.087 0
      vertex 38.0569 19.087 2.19
    endloop
  endfacet
  facet normal -0.0653471 -0.997863 0
    outer loop
      vertex 34 22.2 0
      vertex 34.5482 22.1641 2.19
      vertex 34 22.2 2.19
    endloop
  endfacet
  facet normal -0.0653471 -0.997863 -0
    outer loop
      vertex 34.5482 22.1641 2.19
      vertex 34 22.2 0
      vertex 34.5482 22.1641 0
    endloop
  endfacet
  facet normal 0.997863 -0.0653471 0
    outer loop
      vertex 29.8 18 2.19
      vertex 29.8359 18.5482 0
      vertex 29.8359 18.5482 2.19
    endloop
  endfacet
  facet normal 0.997863 -0.0653471 0
    outer loop
      vertex 29.8359 18.5482 0
      vertex 29.8 18 2.19
      vertex 29.8 18 0
    endloop
  endfacet
  facet normal -0.32141 -0.94694 0
    outer loop
      vertex 35.087 22.0569 0
      vertex 35.6073 21.8803 2.19
      vertex 35.087 22.0569 2.19
    endloop
  endfacet
  facet normal -0.32141 -0.94694 -0
    outer loop
      vertex 35.6073 21.8803 2.19
      vertex 35.087 22.0569 0
      vertex 35.6073 21.8803 0
    endloop
  endfacet
  facet normal -0.0653471 0.997863 0
    outer loop
      vertex 34.5482 13.8359 0
      vertex 34 13.8 2.19
      vertex 34.5482 13.8359 2.19
    endloop
  endfacet
  facet normal -0.0653471 0.997863 0
    outer loop
      vertex 34 13.8 2.19
      vertex 34.5482 13.8359 0
      vertex 34 13.8 0
    endloop
  endfacet
  facet normal -0.32141 0.94694 0
    outer loop
      vertex 35.6073 14.1197 0
      vertex 35.087 13.9431 2.19
      vertex 35.6073 14.1197 2.19
    endloop
  endfacet
  facet normal -0.32141 0.94694 0
    outer loop
      vertex 35.087 13.9431 2.19
      vertex 35.6073 14.1197 0
      vertex 35.087 13.9431 0
    endloop
  endfacet
  facet normal -0.83149 -0.55554 0
    outer loop
      vertex 37.6373 20.1 0
      vertex 37.3321 20.5568 2.19
      vertex 37.3321 20.5568 0
    endloop
  endfacet
  facet normal -0.83149 -0.55554 0
    outer loop
      vertex 37.3321 20.5568 2.19
      vertex 37.6373 20.1 0
      vertex 37.6373 20.1 2.19
    endloop
  endfacet
  facet normal -0.896853 -0.442329 0
    outer loop
      vertex 37.8803 19.6073 0
      vertex 37.6373 20.1 2.19
      vertex 37.6373 20.1 0
    endloop
  endfacet
  facet normal -0.896853 -0.442329 0
    outer loop
      vertex 37.6373 20.1 2.19
      vertex 37.8803 19.6073 0
      vertex 37.8803 19.6073 2.19
    endloop
  endfacet
  facet normal 0 0 -1
    outer loop
      vertex 38.1641 17.4518 2.19
      vertex 38.1641 18.5482 2.19
      vertex 38.2 18 2.19
    endloop
  endfacet
  facet normal 0 0 -1
    outer loop
      vertex 38.0569 16.913 2.19
      vertex 38.1641 18.5482 2.19
      vertex 38.1641 17.4518 2.19
    endloop
  endfacet
  facet normal 0 0 -1
    outer loop
      vertex 38.0569 16.913 2.19
      vertex 38.0569 19.087 2.19
      vertex 38.1641 18.5482 2.19
    endloop
  endfacet
  facet normal 0 0 -1
    outer loop
      vertex 37.8803 16.3927 2.19
      vertex 38.0569 19.087 2.19
      vertex 38.0569 16.913 2.19
    endloop
  endfacet
  facet normal 0 0 -1
    outer loop
      vertex 37.8803 16.3927 2.19
      vertex 37.8803 19.6073 2.19
      vertex 38.0569 19.087 2.19
    endloop
  endfacet
  facet normal 0 0 -1
    outer loop
      vertex 37.6373 15.9 2.19
      vertex 37.8803 19.6073 2.19
      vertex 37.8803 16.3927 2.19
    endloop
  endfacet
  facet normal 0 0 -1
    outer loop
      vertex 37.6373 15.9 2.19
      vertex 37.6373 20.1 2.19
      vertex 37.8803 19.6073 2.19
    endloop
  endfacet
  facet normal 0 0 -1
    outer loop
      vertex 37.3321 15.4432 2.19
      vertex 37.6373 20.1 2.19
      vertex 37.6373 15.9 2.19
    endloop
  endfacet
  facet normal 0 0 -1
    outer loop
      vertex 37.3321 15.4432 2.19
      vertex 37.3321 20.5568 2.19
      vertex 37.6373 20.1 2.19
    endloop
  endfacet
  facet normal 0 0 -1
    outer loop
      vertex 36.9698 15.0302 2.19
      vertex 37.3321 20.5568 2.19
      vertex 37.3321 15.4432 2.19
    endloop
  endfacet
  facet normal 0 0 -1
    outer loop
      vertex 36.9698 15.0302 2.19
      vertex 36.9698 20.9698 2.19
      vertex 37.3321 20.5568 2.19
    endloop
  endfacet
  facet normal 0 0 -1
    outer loop
      vertex 36.5568 14.6679 2.19
      vertex 36.9698 20.9698 2.19
      vertex 36.9698 15.0302 2.19
    endloop
  endfacet
  facet normal 0 0 -1
    outer loop
      vertex 36.5568 14.6679 2.19
      vertex 36.5568 21.3321 2.19
      vertex 36.9698 20.9698 2.19
    endloop
  endfacet
  facet normal 0 0 -1
    outer loop
      vertex 36.1 14.3627 2.19
      vertex 36.5568 21.3321 2.19
      vertex 36.5568 14.6679 2.19
    endloop
  endfacet
  facet normal 0 0 -1
    outer loop
      vertex 36.1 14.3627 2.19
      vertex 36.1 21.6373 2.19
      vertex 36.5568 21.3321 2.19
    endloop
  endfacet
  facet normal 0 0 -1
    outer loop
      vertex 35.6073 14.1197 2.19
      vertex 36.1 21.6373 2.19
      vertex 36.1 14.3627 2.19
    endloop
  endfacet
  facet normal 0 0 -1
    outer loop
      vertex 35.6073 14.1197 2.19
      vertex 35.6073 21.8803 2.19
      vertex 36.1 21.6373 2.19
    endloop
  endfacet
  facet normal 0 0 -1
    outer loop
      vertex 35.087 13.9431 2.19
      vertex 35.6073 21.8803 2.19
      vertex 35.6073 14.1197 2.19
    endloop
  endfacet
  facet normal 0 0 -1
    outer loop
      vertex 35.087 13.9431 2.19
      vertex 35.087 22.0569 2.19
      vertex 35.6073 21.8803 2.19
    endloop
  endfacet
  facet normal 0 0 -1
    outer loop
      vertex 34.5482 13.8359 2.19
      vertex 35.087 22.0569 2.19
      vertex 35.087 13.9431 2.19
    endloop
  endfacet
  facet normal 0 0 -1
    outer loop
      vertex 34.5482 13.8359 2.19
      vertex 34.5482 22.1641 2.19
      vertex 35.087 22.0569 2.19
    endloop
  endfacet
  facet normal 0 0 -1
    outer loop
      vertex 34 13.8 2.19
      vertex 34.5482 22.1641 2.19
      vertex 34.5482 13.8359 2.19
    endloop
  endfacet
  facet normal 0 0 -1
    outer loop
      vertex 34 13.8 2.19
      vertex 34 22.2 2.19
      vertex 34.5482 22.1641 2.19
    endloop
  endfacet
  facet normal 0 0 -1
    outer loop
      vertex 33.4518 13.8359 2.19
      vertex 34 22.2 2.19
      vertex 34 13.8 2.19
    endloop
  endfacet
  facet normal 0 0 -1
    outer loop
      vertex 33.4518 13.8359 2.19
      vertex 33.4518 22.1641 2.19
      vertex 34 22.2 2.19
    endloop
  endfacet
  facet normal 0 0 -1
    outer loop
      vertex 32.913 13.9431 2.19
      vertex 33.4518 22.1641 2.19
      vertex 33.4518 13.8359 2.19
    endloop
  endfacet
  facet normal 0 0 -1
    outer loop
      vertex 32.913 13.9431 2.19
      vertex 32.913 22.0569 2.19
      vertex 33.4518 22.1641 2.19
    endloop
  endfacet
  facet normal 0 0 -1
    outer loop
      vertex 32.3927 14.1197 2.19
      vertex 32.913 22.0569 2.19
      vertex 32.913 13.9431 2.19
    endloop
  endfacet
  facet normal 0 0 -1
    outer loop
      vertex 32.3927 14.1197 2.19
      vertex 32.3927 21.8803 2.19
      vertex 32.913 22.0569 2.19
    endloop
  endfacet
  facet normal 0 0 -1
    outer loop
      vertex 31.9 14.3627 2.19
      vertex 32.3927 21.8803 2.19
      vertex 32.3927 14.1197 2.19
    endloop
  endfacet
  facet normal 0 0 -1
    outer loop
      vertex 31.9 14.3627 2.19
      vertex 31.9 21.6373 2.19
      vertex 32.3927 21.8803 2.19
    endloop
  endfacet
  facet normal 0 0 -1
    outer loop
      vertex 31.4432 14.6679 2.19
      vertex 31.9 21.6373 2.19
      vertex 31.9 14.3627 2.19
    endloop
  endfacet
  facet normal 0 0 -1
    outer loop
      vertex 31.4432 14.6679 2.19
      vertex 31.4432 21.3321 2.19
      vertex 31.9 21.6373 2.19
    endloop
  endfacet
  facet normal 0 0 -1
    outer loop
      vertex 31.0302 15.0302 2.19
      vertex 31.4432 21.3321 2.19
      vertex 31.4432 14.6679 2.19
    endloop
  endfacet
  facet normal 0 0 -1
    outer loop
      vertex 31.0302 15.0302 2.19
      vertex 31.0302 20.9698 2.19
      vertex 31.4432 21.3321 2.19
    endloop
  endfacet
  facet normal 0 0 -1
    outer loop
      vertex 30.6679 15.4432 2.19
      vertex 31.0302 20.9698 2.19
      vertex 31.0302 15.0302 2.19
    endloop
  endfacet
  facet normal 0 0 -1
    outer loop
      vertex 30.6679 15.4432 2.19
      vertex 30.6679 20.5568 2.19
      vertex 31.0302 20.9698 2.19
    endloop
  endfacet
  facet normal 0 0 -1
    outer loop
      vertex 30.3627 15.9 2.19
      vertex 30.6679 20.5568 2.19
      vertex 30.6679 15.4432 2.19
    endloop
  endfacet
  facet normal 0 0 -1
    outer loop
      vertex 30.3627 15.9 2.19
      vertex 30.3627 20.1 2.19
      vertex 30.6679 20.5568 2.19
    endloop
  endfacet
  facet normal 0 0 -1
    outer loop
      vertex 30.1197 16.3927 2.19
      vertex 30.3627 20.1 2.19
      vertex 30.3627 15.9 2.19
    endloop
  endfacet
  facet normal 0 0 -1
    outer loop
      vertex 30.1197 16.3927 2.19
      vertex 30.1197 19.6073 2.19
      vertex 30.3627 20.1 2.19
    endloop
  endfacet
  facet normal 0 0 -1
    outer loop
      vertex 29.9431 16.913 2.19
      vertex 30.1197 19.6073 2.19
      vertex 30.1197 16.3927 2.19
    endloop
  endfacet
  facet normal 0 0 -1
    outer loop
      vertex 29.9431 16.913 2.19
      vertex 29.9431 19.087 2.19
      vertex 30.1197 19.6073 2.19
    endloop
  endfacet
  facet normal 0 0 -1
    outer loop
      vertex 29.8359 17.4518 2.19
      vertex 29.9431 19.087 2.19
      vertex 29.9431 16.913 2.19
    endloop
  endfacet
  facet normal 0 0 -1
    outer loop
      vertex 29.8359 17.4518 2.19
      vertex 29.8359 18.5482 2.19
      vertex 29.9431 19.087 2.19
    endloop
  endfacet
  facet normal 0 -0 -1
    outer loop
      vertex 29.8359 18.5482 2.19
      vertex 29.8359 17.4518 2.19
      vertex 29.8 18 2.19
    endloop
  endfacet
  facet normal 0.0653471 0.997863 -0
    outer loop
      vertex 34 13.8 0
      vertex 33.4518 13.8359 2.19
      vertex 34 13.8 2.19
    endloop
  endfacet
  facet normal 0.0653471 0.997863 0
    outer loop
      vertex 33.4518 13.8359 2.19
      vertex 34 13.8 0
      vertex 33.4518 13.8359 0
    endloop
  endfacet
  facet normal 0.442329 0.896853 -0
    outer loop
      vertex 32.3927 14.1197 0
      vertex 31.9 14.3627 2.19
      vertex 32.3927 14.1197 2.19
    endloop
  endfacet
  facet normal 0.442329 0.896853 0
    outer loop
      vertex 31.9 14.3627 2.19
      vertex 32.3927 14.1197 0
      vertex 31.9 14.3627 0
    endloop
  endfacet
  facet normal 0.55554 0.83149 -0
    outer loop
      vertex 31.9 14.3627 0
      vertex 31.4432 14.6679 2.19
      vertex 31.9 14.3627 2.19
    endloop
  endfacet
  facet normal 0.55554 0.83149 0
    outer loop
      vertex 31.4432 14.6679 2.19
      vertex 31.9 14.3627 0
      vertex 31.4432 14.6679 0
    endloop
  endfacet
  facet normal -0.94694 0.32141 0
    outer loop
      vertex 37.8803 16.3927 0
      vertex 38.0569 16.913 2.19
      vertex 38.0569 16.913 0
    endloop
  endfacet
  facet normal -0.94694 0.32141 0
    outer loop
      vertex 38.0569 16.913 2.19
      vertex 37.8803 16.3927 0
      vertex 37.8803 16.3927 2.19
    endloop
  endfacet
  facet normal -0.195136 -0.980776 0
    outer loop
      vertex 34.5482 22.1641 0
      vertex 35.087 22.0569 2.19
      vertex 34.5482 22.1641 2.19
    endloop
  endfacet
  facet normal -0.195136 -0.980776 -0
    outer loop
      vertex 35.087 22.0569 2.19
      vertex 34.5482 22.1641 0
      vertex 35.087 22.0569 0
    endloop
  endfacet
  facet normal -0.896853 0.442329 0
    outer loop
      vertex 37.6373 15.9 0
      vertex 37.8803 16.3927 2.19
      vertex 37.8803 16.3927 0
    endloop
  endfacet
  facet normal -0.896853 0.442329 0
    outer loop
      vertex 37.8803 16.3927 2.19
      vertex 37.6373 15.9 0
      vertex 37.6373 15.9 2.19
    endloop
  endfacet
  facet normal 0.442329 -0.896853 0
    outer loop
      vertex 31.9 21.6373 0
      vertex 32.3927 21.8803 2.19
      vertex 31.9 21.6373 2.19
    endloop
  endfacet
  facet normal 0.442329 -0.896853 0
    outer loop
      vertex 32.3927 21.8803 2.19
      vertex 31.9 21.6373 0
      vertex 32.3927 21.8803 0
    endloop
  endfacet
  facet normal 0.751742 -0.659458 0
    outer loop
      vertex 30.6679 20.5568 2.19
      vertex 31.0302 20.9698 0
      vertex 31.0302 20.9698 2.19
    endloop
  endfacet
  facet normal 0.751742 -0.659458 0
    outer loop
      vertex 31.0302 20.9698 0
      vertex 30.6679 20.5568 2.19
      vertex 30.6679 20.5568 0
    endloop
  endfacet
  facet normal -0.659458 -0.751742 0
    outer loop
      vertex 36.5568 21.3321 0
      vertex 36.9698 20.9698 2.19
      vertex 36.5568 21.3321 2.19
    endloop
  endfacet
  facet normal -0.659458 -0.751742 -0
    outer loop
      vertex 36.9698 20.9698 2.19
      vertex 36.5568 21.3321 0
      vertex 36.9698 20.9698 0
    endloop
  endfacet
  facet normal 0.0653471 -0.997863 0
    outer loop
      vertex 33.4518 22.1641 0
      vertex 34 22.2 2.19
      vertex 33.4518 22.1641 2.19
    endloop
  endfacet
  facet normal 0.0653471 -0.997863 0
    outer loop
      vertex 34 22.2 2.19
      vertex 33.4518 22.1641 0
      vertex 34 22.2 0
    endloop
  endfacet
  facet normal -0.195136 0.980776 0
    outer loop
      vertex 35.087 13.9431 0
      vertex 34.5482 13.8359 2.19
      vertex 35.087 13.9431 2.19
    endloop
  endfacet
  facet normal -0.195136 0.980776 0
    outer loop
      vertex 34.5482 13.8359 2.19
      vertex 35.087 13.9431 0
      vertex 34.5482 13.8359 0
    endloop
  endfacet
  facet normal -0.997863 0.0653471 0
    outer loop
      vertex 38.1641 17.4518 0
      vertex 38.2 18 2.19
      vertex 38.2 18 0
    endloop
  endfacet
  facet normal -0.997863 0.0653471 0
    outer loop
      vertex 38.2 18 2.19
      vertex 38.1641 17.4518 0
      vertex 38.1641 17.4518 2.19
    endloop
  endfacet
  facet normal 0.55554 -0.83149 0
    outer loop
      vertex 31.4432 21.3321 0
      vertex 31.9 21.6373 2.19
      vertex 31.4432 21.3321 2.19
    endloop
  endfacet
  facet normal 0.55554 -0.83149 0
    outer loop
      vertex 31.9 21.6373 2.19
      vertex 31.4432 21.3321 0
      vertex 31.9 21.6373 0
    endloop
  endfacet
  facet normal -0.751742 0.659458 0
    outer loop
      vertex 36.9698 15.0302 0
      vertex 37.3321 15.4432 2.19
      vertex 37.3321 15.4432 0
    endloop
  endfacet
  facet normal -0.751742 0.659458 0
    outer loop
      vertex 37.3321 15.4432 2.19
      vertex 36.9698 15.0302 0
      vertex 36.9698 15.0302 2.19
    endloop
  endfacet
  facet normal -0.55554 0.83149 0
    outer loop
      vertex 36.5568 14.6679 0
      vertex 36.1 14.3627 2.19
      vertex 36.5568 14.6679 2.19
    endloop
  endfacet
  facet normal -0.55554 0.83149 0
    outer loop
      vertex 36.1 14.3627 2.19
      vertex 36.5568 14.6679 0
      vertex 36.1 14.3627 0
    endloop
  endfacet
  facet normal 0.195136 -0.980776 0
    outer loop
      vertex 32.913 22.0569 0
      vertex 33.4518 22.1641 2.19
      vertex 32.913 22.0569 2.19
    endloop
  endfacet
  facet normal 0.195136 -0.980776 0
    outer loop
      vertex 33.4518 22.1641 2.19
      vertex 32.913 22.0569 0
      vertex 33.4518 22.1641 0
    endloop
  endfacet
  facet normal 0.896853 0.442329 0
    outer loop
      vertex 30.3627 15.9 2.19
      vertex 30.1197 16.3927 0
      vertex 30.1197 16.3927 2.19
    endloop
  endfacet
  facet normal 0.896853 0.442329 0
    outer loop
      vertex 30.1197 16.3927 0
      vertex 30.3627 15.9 2.19
      vertex 30.3627 15.9 0
    endloop
  endfacet
  facet normal 0.94694 0.32141 0
    outer loop
      vertex 30.1197 16.3927 2.19
      vertex 29.9431 16.913 0
      vertex 29.9431 16.913 2.19
    endloop
  endfacet
  facet normal 0.94694 0.32141 0
    outer loop
      vertex 29.9431 16.913 0
      vertex 30.1197 16.3927 2.19
      vertex 30.1197 16.3927 0
    endloop
  endfacet
  facet normal -0.751742 -0.659458 0
    outer loop
      vertex 37.3321 20.5568 0
      vertex 36.9698 20.9698 2.19
      vertex 36.9698 20.9698 0
    endloop
  endfacet
  facet normal -0.751742 -0.659458 0
    outer loop
      vertex 36.9698 20.9698 2.19
      vertex 37.3321 20.5568 0
      vertex 37.3321 20.5568 2.19
    endloop
  endfacet
  facet normal -0.980776 0.195136 0
    outer loop
      vertex 38.0569 16.913 0
      vertex 38.1641 17.4518 2.19
      vertex 38.1641 17.4518 0
    endloop
  endfacet
  facet normal -0.980776 0.195136 0
    outer loop
      vertex 38.1641 17.4518 2.19
      vertex 38.0569 16.913 0
      vertex 38.0569 16.913 2.19
    endloop
  endfacet
  facet normal -0.442329 -0.896853 0
    outer loop
      vertex 35.6073 21.8803 0
      vertex 36.1 21.6373 2.19
      vertex 35.6073 21.8803 2.19
    endloop
  endfacet
  facet normal -0.442329 -0.896853 -0
    outer loop
      vertex 36.1 21.6373 2.19
      vertex 35.6073 21.8803 0
      vertex 36.1 21.6373 0
    endloop
  endfacet
  facet normal 0.94694 -0.32141 0
    outer loop
      vertex 29.9431 19.087 2.19
      vertex 30.1197 19.6073 0
      vertex 30.1197 19.6073 2.19
    endloop
  endfacet
  facet normal 0.94694 -0.32141 0
    outer loop
      vertex 30.1197 19.6073 0
      vertex 29.9431 19.087 2.19
      vertex 29.9431 19.087 0
    endloop
  endfacet
  facet normal 0.32141 -0.94694 0
    outer loop
      vertex 32.3927 21.8803 0
      vertex 32.913 22.0569 2.19
      vertex 32.3927 21.8803 2.19
    endloop
  endfacet
  facet normal 0.32141 -0.94694 0
    outer loop
      vertex 32.913 22.0569 2.19
      vertex 32.3927 21.8803 0
      vertex 32.913 22.0569 0
    endloop
  endfacet
  facet normal -0.442329 0.896853 0
    outer loop
      vertex 36.1 14.3627 0
      vertex 35.6073 14.1197 2.19
      vertex 36.1 14.3627 2.19
    endloop
  endfacet
  facet normal -0.442329 0.896853 0
    outer loop
      vertex 35.6073 14.1197 2.19
      vertex 36.1 14.3627 0
      vertex 35.6073 14.1197 0
    endloop
  endfacet
  facet normal 0.83149 0.55554 0
    outer loop
      vertex 30.6679 15.4432 2.19
      vertex 30.3627 15.9 0
      vertex 30.3627 15.9 2.19
    endloop
  endfacet
  facet normal 0.83149 0.55554 0
    outer loop
      vertex 30.3627 15.9 0
      vertex 30.6679 15.4432 2.19
      vertex 30.6679 15.4432 0
    endloop
  endfacet
  facet normal 0.980776 -0.195136 0
    outer loop
      vertex 29.8359 18.5482 2.19
      vertex 29.9431 19.087 0
      vertex 29.9431 19.087 2.19
    endloop
  endfacet
  facet normal 0.980776 -0.195136 0
    outer loop
      vertex 29.9431 19.087 0
      vertex 29.8359 18.5482 2.19
      vertex 29.8359 18.5482 0
    endloop
  endfacet
  facet normal 0.980776 0.195136 0
    outer loop
      vertex 29.9431 16.913 2.19
      vertex 29.8359 17.4518 0
      vertex 29.8359 17.4518 2.19
    endloop
  endfacet
  facet normal 0.980776 0.195136 0
    outer loop
      vertex 29.8359 17.4518 0
      vertex 29.9431 16.913 2.19
      vertex 29.9431 16.913 0
    endloop
  endfacet
  facet normal 0.659458 -0.751742 0
    outer loop
      vertex 31.0302 20.9698 0
      vertex 31.4432 21.3321 2.19
      vertex 31.0302 20.9698 2.19
    endloop
  endfacet
  facet normal 0.659458 -0.751742 0
    outer loop
      vertex 31.4432 21.3321 2.19
      vertex 31.0302 20.9698 0
      vertex 31.4432 21.3321 0
    endloop
  endfacet
  facet normal -0.55554 -0.83149 0
    outer loop
      vertex 36.1 21.6373 0
      vertex 36.5568 21.3321 2.19
      vertex 36.1 21.6373 2.19
    endloop
  endfacet
  facet normal -0.55554 -0.83149 -0
    outer loop
      vertex 36.5568 21.3321 2.19
      vertex 36.1 21.6373 0
      vertex 36.5568 21.3321 0
    endloop
  endfacet
  facet normal 0.751742 0.659458 0
    outer loop
      vertex 31.0302 15.0302 2.19
      vertex 30.6679 15.4432 0
      vertex 30.6679 15.4432 2.19
    endloop
  endfacet
  facet normal 0.751742 0.659458 0
    outer loop
      vertex 30.6679 15.4432 0
      vertex 31.0302 15.0302 2.19
      vertex 31.0302 15.0302 0
    endloop
  endfacet
  facet normal -0.83149 0.55554 0
    outer loop
      vertex 37.3321 15.4432 0
      vertex 37.6373 15.9 2.19
      vertex 37.6373 15.9 0
    endloop
  endfacet
  facet normal -0.83149 0.55554 0
    outer loop
      vertex 37.6373 15.9 2.19
      vertex 37.3321 15.4432 0
      vertex 37.3321 15.4432 2.19
    endloop
  endfacet
  facet normal -0.659458 0.751742 0
    outer loop
      vertex 36.9698 15.0302 0
      vertex 36.5568 14.6679 2.19
      vertex 36.9698 15.0302 2.19
    endloop
  endfacet
  facet normal -0.659458 0.751742 0
    outer loop
      vertex 36.5568 14.6679 2.19
      vertex 36.9698 15.0302 0
      vertex 36.5568 14.6679 0
    endloop
  endfacet
  facet normal 0.997863 0.0653471 0
    outer loop
      vertex 29.8359 17.4518 2.19
      vertex 29.8 18 0
      vertex 29.8 18 2.19
    endloop
  endfacet
  facet normal 0.997863 0.0653471 0
    outer loop
      vertex 29.8 18 0
      vertex 29.8359 17.4518 2.19
      vertex 29.8359 17.4518 0
    endloop
  endfacet
  facet normal 0.896853 -0.442329 0
    outer loop
      vertex 30.1197 19.6073 2.19
      vertex 30.3627 20.1 0
      vertex 30.3627 20.1 2.19
    endloop
  endfacet
  facet normal 0.896853 -0.442329 0
    outer loop
      vertex 30.3627 20.1 0
      vertex 30.1197 19.6073 2.19
      vertex 30.1197 19.6073 0
    endloop
  endfacet
  facet normal 0.195136 0.980776 -0
    outer loop
      vertex 33.4518 13.8359 0
      vertex 32.913 13.9431 2.19
      vertex 33.4518 13.8359 2.19
    endloop
  endfacet
  facet normal 0.195136 0.980776 0
    outer loop
      vertex 32.913 13.9431 2.19
      vertex 33.4518 13.8359 0
      vertex 32.913 13.9431 0
    endloop
  endfacet
  facet normal 0.83149 -0.55554 0
    outer loop
      vertex 30.3627 20.1 2.19
      vertex 30.6679 20.5568 0
      vertex 30.6679 20.5568 2.19
    endloop
  endfacet
  facet normal 0.83149 -0.55554 0
    outer loop
      vertex 30.6679 20.5568 0
      vertex 30.3627 20.1 2.19
      vertex 30.3627 20.1 0
    endloop
  endfacet
  facet normal 0.321446 -0.946928 0
    outer loop
      vertex 43.7765 0.102219 0
      vertex 44.1481 0.228363 3
      vertex 43.7765 0.102219 3
    endloop
  endfacet
  facet normal 0.321446 -0.946928 0
    outer loop
      vertex 44.1481 0.228363 3
      vertex 43.7765 0.102219 0
      vertex 44.1481 0.228363 0
    endloop
  endfacet
  facet normal 0 -1 0
    outer loop
      vertex 3 0 0
      vertex 43 0 3
      vertex 3 0 3
    endloop
  endfacet
  facet normal 0 -1 -0
    outer loop
      vertex 43 0 3
      vertex 3 0 0
      vertex 43 0 0
    endloop
  endfacet
  facet normal 0.195072 -0.980789 0
    outer loop
      vertex 43.3916 0.0256653 0
      vertex 43.7765 0.102219 3
      vertex 43.3916 0.0256653 3
    endloop
  endfacet
  facet normal 0.195072 -0.980789 0
    outer loop
      vertex 43.7765 0.102219 3
      vertex 43.3916 0.0256653 0
      vertex 43.7765 0.102219 0
    endloop
  endfacet
  facet normal -0.896876 -0.442281 0
    outer loop
      vertex 0.401917 1.5 0
      vertex 0.228363 1.85194 3
      vertex 0.228363 1.85194 0
    endloop
  endfacet
  facet normal -0.896876 -0.442281 0
    outer loop
      vertex 0.228363 1.85194 3
      vertex 0.401917 1.5 0
      vertex 0.401917 1.5 3
    endloop
  endfacet
  facet normal 0.0653993 -0.997859 0
    outer loop
      vertex 43 0 0
      vertex 43.3916 0.0256653 3
      vertex 43 0 3
    endloop
  endfacet
  facet normal 0.0653993 -0.997859 0
    outer loop
      vertex 43.3916 0.0256653 3
      vertex 43 0 0
      vertex 43.3916 0.0256653 0
    endloop
  endfacet
  facet normal 0.19494 0.980815 -0
    outer loop
      vertex 43.7765 35.8978 0
      vertex 43.3916 35.9743 3
      vertex 43.7765 35.8978 3
    endloop
  endfacet
  facet normal 0.19494 0.980815 0
    outer loop
      vertex 43.3916 35.9743 3
      vertex 43.7765 35.8978 0
      vertex 43.3916 35.9743 0
    endloop
  endfacet
  facet normal -0.0654043 -0.997859 0
    outer loop
      vertex 2.60843 0.0256653 0
      vertex 3 0 3
      vertex 2.60843 0.0256653 3
    endloop
  endfacet
  facet normal -0.0654043 -0.997859 -0
    outer loop
      vertex 3 0 3
      vertex 2.60843 0.0256653 0
      vertex 3 0 0
    endloop
  endfacet
  facet normal -0.555547 0.831485 0
    outer loop
      vertex 1.5 35.5981 0
      vertex 1.17372 35.3801 3
      vertex 1.5 35.5981 3
    endloop
  endfacet
  facet normal -0.555547 0.831485 0
    outer loop
      vertex 1.17372 35.3801 3
      vertex 1.5 35.5981 0
      vertex 1.17372 35.3801 0
    endloop
  endfacet
  facet normal -0.997859 -0.0654043 0
    outer loop
      vertex 0.0256653 2.60843 0
      vertex 0 3 3
      vertex 0 3 0
    endloop
  endfacet
  facet normal -0.997859 -0.0654043 0
    outer loop
      vertex 0 3 3
      vertex 0.0256653 2.60843 0
      vertex 0.0256653 2.60843 3
    endloop
  endfacet
  facet normal -0.321446 -0.946928 0
    outer loop
      vertex 1.85194 0.228363 0
      vertex 2.22354 0.102219 3
      vertex 1.85194 0.228363 3
    endloop
  endfacet
  facet normal -0.321446 -0.946928 -0
    outer loop
      vertex 2.22354 0.102219 3
      vertex 1.85194 0.228363 0
      vertex 2.22354 0.102219 0
    endloop
  endfacet
  facet normal -0.896856 0.442322 0
    outer loop
      vertex 0.228363 34.1481 0
      vertex 0.401917 34.5 3
      vertex 0.401917 34.5 0
    endloop
  endfacet
  facet normal -0.896856 0.442322 0
    outer loop
      vertex 0.401917 34.5 3
      vertex 0.228363 34.1481 0
      vertex 0.228363 34.1481 3
    endloop
  endfacet
  facet normal -0.659424 0.751771 0
    outer loop
      vertex 1.17372 35.3801 0
      vertex 0.878677 35.1213 3
      vertex 1.17372 35.3801 3
    endloop
  endfacet
  facet normal -0.659424 0.751771 0
    outer loop
      vertex 0.878677 35.1213 3
      vertex 1.17372 35.3801 0
      vertex 0.878677 35.1213 0
    endloop
  endfacet
  facet normal -0.442171 0.896931 0
    outer loop
      vertex 1.85194 35.7716 0
      vertex 1.5 35.5981 3
      vertex 1.85194 35.7716 3
    endloop
  endfacet
  facet normal -0.442171 0.896931 0
    outer loop
      vertex 1.5 35.5981 3
      vertex 1.85194 35.7716 0
      vertex 1.5 35.5981 0
    endloop
  endfacet
  facet normal -0.0654923 0.997853 0
    outer loop
      vertex 3 36 0
      vertex 2.60843 35.9743 3
      vertex 3 36 3
    endloop
  endfacet
  facet normal -0.0654923 0.997853 0
    outer loop
      vertex 2.60843 35.9743 3
      vertex 3 36 0
      vertex 2.60843 35.9743 0
    endloop
  endfacet
  facet normal 0.555523 0.831501 -0
    outer loop
      vertex 44.8263 35.3801 0
      vertex 44.5 35.5981 3
      vertex 44.8263 35.3801 3
    endloop
  endfacet
  facet normal 0.555523 0.831501 0
    outer loop
      vertex 44.5 35.5981 3
      vertex 44.8263 35.3801 0
      vertex 44.5 35.5981 0
    endloop
  endfacet
  facet normal -0.946928 -0.321446 0
    outer loop
      vertex 0.228363 1.85194 0
      vertex 0.102219 2.22354 3
      vertex 0.102219 2.22354 0
    endloop
  endfacet
  facet normal -0.946928 -0.321446 0
    outer loop
      vertex 0.102219 2.22354 3
      vertex 0.228363 1.85194 0
      vertex 0.228363 1.85194 3
    endloop
  endfacet
  facet normal 0.980814 -0.194945 0
    outer loop
      vertex 45.8978 2.22354 3
      vertex 45.9743 2.60843 0
      vertex 45.9743 2.60843 3
    endloop
  endfacet
  facet normal 0.980814 -0.194945 0
    outer loop
      vertex 45.9743 2.60843 0
      vertex 45.8978 2.22354 3
      vertex 45.8978 2.22354 0
    endloop
  endfacet
  facet normal 1 -0 0
    outer loop
      vertex 46 3 3
      vertex 46 33 0
      vertex 46 33 3
    endloop
  endfacet
  facet normal 1 0 0
    outer loop
      vertex 46 33 0
      vertex 46 3 3
      vertex 46 3 0
    endloop
  endfacet
  facet normal -1 0 0
    outer loop
      vertex 0 3 0
      vertex 0 33 3
      vertex 0 33 0
    endloop
  endfacet
  facet normal -1 -0 0
    outer loop
      vertex 0 33 3
      vertex 0 3 0
      vertex 0 3 3
    endloop
  endfacet
  facet normal -0.946928 0.321446 0
    outer loop
      vertex 0.102219 33.7765 0
      vertex 0.228363 34.1481 3
      vertex 0.228363 34.1481 0
    endloop
  endfacet
  facet normal -0.946928 0.321446 0
    outer loop
      vertex 0.228363 34.1481 3
      vertex 0.102219 33.7765 0
      vertex 0.102219 33.7765 3
    endloop
  endfacet
  facet normal 0.946885 0.321574 0
    outer loop
      vertex 45.8978 33.7765 3
      vertex 45.7716 34.1481 0
      vertex 45.7716 34.1481 3
    endloop
  endfacet
  facet normal 0.946885 0.321574 0
    outer loop
      vertex 45.7716 34.1481 0
      vertex 45.8978 33.7765 3
      vertex 45.8978 33.7765 0
    endloop
  endfacet
  facet normal -0.195076 -0.980788 0
    outer loop
      vertex 2.22354 0.102219 0
      vertex 2.60843 0.0256653 3
      vertex 2.22354 0.102219 3
    endloop
  endfacet
  facet normal -0.195076 -0.980788 -0
    outer loop
      vertex 2.60843 0.0256653 3
      vertex 2.22354 0.102219 0
      vertex 2.60843 0.0256653 0
    endloop
  endfacet
  facet normal 0.831485 -0.555547 0
    outer loop
      vertex 45.3801 1.17372 3
      vertex 45.5981 1.5 0
      vertex 45.5981 1.5 3
    endloop
  endfacet
  facet normal 0.831485 -0.555547 0
    outer loop
      vertex 45.5981 1.5 0
      vertex 45.3801 1.17372 3
      vertex 45.3801 1.17372 0
    endloop
  endfacet
  facet normal -0.751796 0.659396 0
    outer loop
      vertex 0.619934 34.8263 0
      vertex 0.878677 35.1213 3
      vertex 0.878677 35.1213 0
    endloop
  endfacet
  facet normal -0.751796 0.659396 0
    outer loop
      vertex 0.878677 35.1213 3
      vertex 0.619934 34.8263 0
      vertex 0.619934 34.8263 3
    endloop
  endfacet
  facet normal 0.896931 -0.442171 0
    outer loop
      vertex 45.5981 1.5 3
      vertex 45.7716 1.85194 0
      vertex 45.7716 1.85194 3
    endloop
  endfacet
  facet normal 0.896931 -0.442171 0
    outer loop
      vertex 45.7716 1.85194 0
      vertex 45.5981 1.5 3
      vertex 45.5981 1.5 0
    endloop
  endfacet
  facet normal -0.555577 -0.831465 0
    outer loop
      vertex 1.17372 0.619934 0
      vertex 1.5 0.401917 3
      vertex 1.17372 0.619934 3
    endloop
  endfacet
  facet normal -0.555577 -0.831465 -0
    outer loop
      vertex 1.5 0.401917 3
      vertex 1.17372 0.619934 0
      vertex 1.5 0.401917 0
    endloop
  endfacet
  facet normal 0 1 -0
    outer loop
      vertex 43 36 0
      vertex 3 36 3
      vertex 43 36 3
    endloop
  endfacet
  facet normal 0 1 0
    outer loop
      vertex 3 36 3
      vertex 43 36 0
      vertex 3 36 0
    endloop
  endfacet
  facet normal -0.321574 0.946885 0
    outer loop
      vertex 2.22354 35.8978 0
      vertex 1.85194 35.7716 3
      vertex 2.22354 35.8978 3
    endloop
  endfacet
  facet normal -0.321574 0.946885 0
    outer loop
      vertex 1.85194 35.7716 3
      vertex 2.22354 35.8978 0
      vertex 1.85194 35.7716 0
    endloop
  endfacet
  facet normal -0.831481 0.555553 0
    outer loop
      vertex 0.401917 34.5 0
      vertex 0.619934 34.8263 3
      vertex 0.619934 34.8263 0
    endloop
  endfacet
  facet normal -0.831481 0.555553 0
    outer loop
      vertex 0.619934 34.8263 3
      vertex 0.401917 34.5 0
      vertex 0.401917 34.5 3
    endloop
  endfacet
  facet normal 0.751724 0.659478 0
    outer loop
      vertex 45.3801 34.8263 3
      vertex 45.1213 35.1213 0
      vertex 45.1213 35.1213 3
    endloop
  endfacet
  facet normal 0.751724 0.659478 0
    outer loop
      vertex 45.1213 35.1213 0
      vertex 45.3801 34.8263 3
      vertex 45.3801 34.8263 0
    endloop
  endfacet
  facet normal 0.0654873 0.997853 -0
    outer loop
      vertex 43.3916 35.9743 0
      vertex 43 36 3
      vertex 43.3916 35.9743 3
    endloop
  endfacet
  facet normal 0.0654873 0.997853 0
    outer loop
      vertex 43 36 3
      vertex 43.3916 35.9743 0
      vertex 43 36 0
    endloop
  endfacet
  facet normal -0.194945 0.980814 0
    outer loop
      vertex 2.60843 35.9743 0
      vertex 2.22354 35.8978 3
      vertex 2.60843 35.9743 3
    endloop
  endfacet
  facet normal -0.194945 0.980814 0
    outer loop
      vertex 2.22354 35.8978 3
      vertex 2.60843 35.9743 0
      vertex 2.22354 35.8978 0
    endloop
  endfacet
  facet normal 0.442211 0.896911 -0
    outer loop
      vertex 44.5 35.5981 0
      vertex 44.1481 35.7716 3
      vertex 44.5 35.5981 3
    endloop
  endfacet
  facet normal 0.442211 0.896911 0
    outer loop
      vertex 44.1481 35.7716 3
      vertex 44.5 35.5981 0
      vertex 44.1481 35.7716 0
    endloop
  endfacet
  facet normal -0.659342 -0.751843 0
    outer loop
      vertex 0.878677 0.878677 0
      vertex 1.17372 0.619934 3
      vertex 0.878677 0.878677 3
    endloop
  endfacet
  facet normal -0.659342 -0.751843 -0
    outer loop
      vertex 1.17372 0.619934 3
      vertex 0.878677 0.878677 0
      vertex 1.17372 0.619934 0
    endloop
  endfacet
  facet normal 0.659396 -0.751796 0
    outer loop
      vertex 44.8263 0.619934 0
      vertex 45.1213 0.878677 3
      vertex 44.8263 0.619934 3
    endloop
  endfacet
  facet normal 0.659396 -0.751796 0
    outer loop
      vertex 45.1213 0.878677 3
      vertex 44.8263 0.619934 0
      vertex 45.1213 0.878677 0
    endloop
  endfacet
  facet normal -0.442281 -0.896876 0
    outer loop
      vertex 1.5 0.401917 0
      vertex 1.85194 0.228363 3
      vertex 1.5 0.401917 3
    endloop
  endfacet
  facet normal -0.442281 -0.896876 -0
    outer loop
      vertex 1.85194 0.228363 3
      vertex 1.5 0.401917 0
      vertex 1.85194 0.228363 0
    endloop
  endfacet
  facet normal 0.659478 0.751724 -0
    outer loop
      vertex 45.1213 35.1213 0
      vertex 44.8263 35.3801 3
      vertex 45.1213 35.1213 3
    endloop
  endfacet
  facet normal 0.659478 0.751724 0
    outer loop
      vertex 44.8263 35.3801 3
      vertex 45.1213 35.1213 0
      vertex 44.8263 35.3801 0
    endloop
  endfacet
  facet normal -0.980789 0.195072 0
    outer loop
      vertex 0.0256653 33.3916 0
      vertex 0.102219 33.7765 3
      vertex 0.102219 33.7765 0
    endloop
  endfacet
  facet normal -0.980789 0.195072 0
    outer loop
      vertex 0.102219 33.7765 3
      vertex 0.0256653 33.3916 0
      vertex 0.0256653 33.3916 3
    endloop
  endfacet
  facet normal 0.946885 -0.321574 0
    outer loop
      vertex 45.7716 1.85194 3
      vertex 45.8978 2.22354 0
      vertex 45.8978 2.22354 3
    endloop
  endfacet
  facet normal 0.946885 -0.321574 0
    outer loop
      vertex 45.8978 2.22354 0
      vertex 45.7716 1.85194 3
      vertex 45.7716 1.85194 0
    endloop
  endfacet
  facet normal 0.751771 -0.659424 0
    outer loop
      vertex 45.1213 0.878677 3
      vertex 45.3801 1.17372 0
      vertex 45.3801 1.17372 3
    endloop
  endfacet
  facet normal 0.751771 -0.659424 0
    outer loop
      vertex 45.3801 1.17372 0
      vertex 45.1213 0.878677 3
      vertex 45.1213 0.878677 0
    endloop
  endfacet
  facet normal -0.997859 0.0653993 0
    outer loop
      vertex 0 33 0
      vertex 0.0256653 33.3916 3
      vertex 0.0256653 33.3916 0
    endloop
  endfacet
  facet normal -0.997859 0.0653993 0
    outer loop
      vertex 0.0256653 33.3916 3
      vertex 0 33 0
      vertex 0 33 3
    endloop
  endfacet
  facet normal 0.997853 0.0654873 0
    outer loop
      vertex 46 33 3
      vertex 45.9743 33.3916 0
      vertex 45.9743 33.3916 3
    endloop
  endfacet
  facet normal 0.997853 0.0654873 0
    outer loop
      vertex 45.9743 33.3916 0
      vertex 46 33 3
      vertex 46 33 0
    endloop
  endfacet
  facet normal 0.831501 0.555523 0
    outer loop
      vertex 45.5981 34.5 3
      vertex 45.3801 34.8263 0
      vertex 45.3801 34.8263 3
    endloop
  endfacet
  facet normal 0.831501 0.555523 0
    outer loop
      vertex 45.3801 34.8263 0
      vertex 45.5981 34.5 3
      vertex 45.5981 34.5 0
    endloop
  endfacet
  facet normal -0.751843 -0.659342 0
    outer loop
      vertex 0.878677 0.878677 0
      vertex 0.619934 1.17372 3
      vertex 0.619934 1.17372 0
    endloop
  endfacet
  facet normal -0.751843 -0.659342 0
    outer loop
      vertex 0.619934 1.17372 3
      vertex 0.878677 0.878677 0
      vertex 0.878677 0.878677 3
    endloop
  endfacet
  facet normal 0.321574 0.946885 -0
    outer loop
      vertex 44.1481 35.7716 0
      vertex 43.7765 35.8978 3
      vertex 44.1481 35.7716 3
    endloop
  endfacet
  facet normal 0.321574 0.946885 0
    outer loop
      vertex 43.7765 35.8978 3
      vertex 44.1481 35.7716 0
      vertex 43.7765 35.8978 0
    endloop
  endfacet
  facet normal -0.831465 -0.555577 0
    outer loop
      vertex 0.619934 1.17372 0
      vertex 0.401917 1.5 3
      vertex 0.401917 1.5 0
    endloop
  endfacet
  facet normal -0.831465 -0.555577 0
    outer loop
      vertex 0.401917 1.5 3
      vertex 0.619934 1.17372 0
      vertex 0.619934 1.17372 3
    endloop
  endfacet
  facet normal 0.896911 0.442211 0
    outer loop
      vertex 45.7716 34.1481 3
      vertex 45.5981 34.5 0
      vertex 45.5981 34.5 3
    endloop
  endfacet
  facet normal 0.896911 0.442211 0
    outer loop
      vertex 45.5981 34.5 0
      vertex 45.7716 34.1481 3
      vertex 45.7716 34.1481 0
    endloop
  endfacet
  facet normal 0.980815 0.19494 0
    outer loop
      vertex 45.9743 33.3916 3
      vertex 45.8978 33.7765 0
      vertex 45.8978 33.7765 3
    endloop
  endfacet
  facet normal 0.980815 0.19494 0
    outer loop
      vertex 45.8978 33.7765 0
      vertex 45.9743 33.3916 3
      vertex 45.9743 33.3916 0
    endloop
  endfacet
  facet normal -0.980788 -0.195076 0
    outer loop
      vertex 0.102219 2.22354 0
      vertex 0.0256653 2.60843 3
      vertex 0.0256653 2.60843 0
    endloop
  endfacet
  facet normal -0.980788 -0.195076 0
    outer loop
      vertex 0.0256653 2.60843 3
      vertex 0.102219 2.22354 0
      vertex 0.102219 2.22354 3
    endloop
  endfacet
  facet normal 0 0 -1
    outer loop
      vertex 43 0 0
      vertex 46 3 0
      vertex 45.9743 2.60843 0
    endloop
  endfacet
  facet normal 0 0 -1
    outer loop
      vertex 46 3 0
      vertex 38.2 18 0
      vertex 46 33 0
    endloop
  endfacet
  facet normal 0 0 -1
    outer loop
      vertex 43 0 0
      vertex 45.9743 2.60843 0
      vertex 45.8978 2.22354 0
    endloop
  endfacet
  facet normal 0 0 -1
    outer loop
      vertex 38.1641 18.5482 0
      vertex 46 33 0
      vertex 38.2 18 0
    endloop
  endfacet
  facet normal 0 0 -1
    outer loop
      vertex 43 0 0
      vertex 45.8978 2.22354 0
      vertex 45.7716 1.85194 0
    endloop
  endfacet
  facet normal 0 0 -1
    outer loop
      vertex 38.0569 19.087 0
      vertex 46 33 0
      vertex 38.1641 18.5482 0
    endloop
  endfacet
  facet normal 0 0 -1
    outer loop
      vertex 43 0 0
      vertex 45.7716 1.85194 0
      vertex 45.5981 1.5 0
    endloop
  endfacet
  facet normal 0 0 -1
    outer loop
      vertex 37.8803 19.6073 0
      vertex 46 33 0
      vertex 38.0569 19.087 0
    endloop
  endfacet
  facet normal 0 0 -1
    outer loop
      vertex 43 0 0
      vertex 45.5981 1.5 0
      vertex 45.3801 1.17372 0
    endloop
  endfacet
  facet normal 0 0 -1
    outer loop
      vertex 37.6373 20.1 0
      vertex 46 33 0
      vertex 37.8803 19.6073 0
    endloop
  endfacet
  facet normal 0 0 -1
    outer loop
      vertex 43 0 0
      vertex 45.3801 1.17372 0
      vertex 45.1213 0.878677 0
    endloop
  endfacet
  facet normal 0 0 -1
    outer loop
      vertex 37.3321 20.5568 0
      vertex 46 33 0
      vertex 37.6373 20.1 0
    endloop
  endfacet
  facet normal 0 0 -1
    outer loop
      vertex 43 0 0
      vertex 45.1213 0.878677 0
      vertex 44.8263 0.619934 0
    endloop
  endfacet
  facet normal 0 0 -1
    outer loop
      vertex 36.9698 20.9698 0
      vertex 46 33 0
      vertex 37.3321 20.5568 0
    endloop
  endfacet
  facet normal 0 0 -1
    outer loop
      vertex 43 0 0
      vertex 44.8263 0.619934 0
      vertex 44.5 0.401917 0
    endloop
  endfacet
  facet normal 0 0 -1
    outer loop
      vertex 36.5568 21.3321 0
      vertex 46 33 0
      vertex 36.9698 20.9698 0
    endloop
  endfacet
  facet normal 0 0 -1
    outer loop
      vertex 43 0 0
      vertex 44.5 0.401917 0
      vertex 44.1481 0.228363 0
    endloop
  endfacet
  facet normal 0 0 -1
    outer loop
      vertex 36.1 21.6373 0
      vertex 46 33 0
      vertex 36.5568 21.3321 0
    endloop
  endfacet
  facet normal 0 0 -1
    outer loop
      vertex 43 0 0
      vertex 44.1481 0.228363 0
      vertex 43.7765 0.102219 0
    endloop
  endfacet
  facet normal 0 0 -1
    outer loop
      vertex 35.6073 21.8803 0
      vertex 46 33 0
      vertex 36.1 21.6373 0
    endloop
  endfacet
  facet normal 0 0 -1
    outer loop
      vertex 43 0 0
      vertex 43.7765 0.102219 0
      vertex 43.3916 0.0256653 0
    endloop
  endfacet
  facet normal 0 0 -1
    outer loop
      vertex 46 33 0
      vertex 43 36 0
      vertex 45.9743 33.3916 0
    endloop
  endfacet
  facet normal 0 0 -1
    outer loop
      vertex 35.6073 14.1197 0
      vertex 46 3 0
      vertex 43 0 0
    endloop
  endfacet
  facet normal 0 0 -1
    outer loop
      vertex 45.9743 33.3916 0
      vertex 43 36 0
      vertex 45.8978 33.7765 0
    endloop
  endfacet
  facet normal 0 0 -1
    outer loop
      vertex 45.8978 33.7765 0
      vertex 43 36 0
      vertex 45.7716 34.1481 0
    endloop
  endfacet
  facet normal 0 0 -1
    outer loop
      vertex 46 3 0
      vertex 38.1641 17.4518 0
      vertex 38.2 18 0
    endloop
  endfacet
  facet normal 0 0 -1
    outer loop
      vertex 46 3 0
      vertex 38.0569 16.913 0
      vertex 38.1641 17.4518 0
    endloop
  endfacet
  facet normal 0 0 -1
    outer loop
      vertex 46 3 0
      vertex 37.8803 16.3927 0
      vertex 38.0569 16.913 0
    endloop
  endfacet
  facet normal 0 0 -1
    outer loop
      vertex 46 3 0
      vertex 37.6373 15.9 0
      vertex 37.8803 16.3927 0
    endloop
  endfacet
  facet normal 0 0 -1
    outer loop
      vertex 46 3 0
      vertex 37.3321 15.4432 0
      vertex 37.6373 15.9 0
    endloop
  endfacet
  facet normal 0 0 -1
    outer loop
      vertex 46 3 0
      vertex 36.9698 15.0302 0
      vertex 37.3321 15.4432 0
    endloop
  endfacet
  facet normal 0 0 -1
    outer loop
      vertex 46 3 0
      vertex 36.5568 14.6679 0
      vertex 36.9698 15.0302 0
    endloop
  endfacet
  facet normal 0 0 -1
    outer loop
      vertex 46 3 0
      vertex 36.1 14.3627 0
      vertex 36.5568 14.6679 0
    endloop
  endfacet
  facet normal 0 0 -1
    outer loop
      vertex 46 3 0
      vertex 35.6073 14.1197 0
      vertex 36.1 14.3627 0
    endloop
  endfacet
  facet normal 0 0 -1
    outer loop
      vertex 43 0 0
      vertex 35.087 13.9431 0
      vertex 35.6073 14.1197 0
    endloop
  endfacet
  facet normal 0 0 -1
    outer loop
      vertex 43 0 0
      vertex 34.5482 13.8359 0
      vertex 35.087 13.9431 0
    endloop
  endfacet
  facet normal 0 0 -1
    outer loop
      vertex 43 0 0
      vertex 34 13.8 0
      vertex 34.5482 13.8359 0
    endloop
  endfacet
  facet normal 0 0 -1
    outer loop
      vertex 43 0 0
      vertex 33.4518 13.8359 0
      vertex 34 13.8 0
    endloop
  endfacet
  facet normal 0 0 -1
    outer loop
      vertex 43 0 0
      vertex 32.913 13.9431 0
      vertex 33.4518 13.8359 0
    endloop
  endfacet
  facet normal 0 0 -1
    outer loop
      vertex 43 0 0
      vertex 32.3927 14.1197 0
      vertex 32.913 13.9431 0
    endloop
  endfacet
  facet normal 0 0 -1
    outer loop
      vertex 43 0 0
      vertex 31.9 14.3627 0
      vertex 32.3927 14.1197 0
    endloop
  endfacet
  facet normal 0 0 -1
    outer loop
      vertex 14.1 14.3627 0
      vertex 31.9 14.3627 0
      vertex 43 0 0
    endloop
  endfacet
  facet normal 0 0 -1
    outer loop
      vertex 31.9 14.3627 0
      vertex 14.1 14.3627 0
      vertex 31.4432 14.6679 0
    endloop
  endfacet
  facet normal 0 -0 -1
    outer loop
      vertex 14.5568 14.6679 0
      vertex 31.4432 14.6679 0
      vertex 14.1 14.3627 0
    endloop
  endfacet
  facet normal 0 0 -1
    outer loop
      vertex 29.8359 17.4518 0
      vertex 16.2 18 0
      vertex 29.8 18 0
    endloop
  endfacet
  facet normal 0 0 -1
    outer loop
      vertex 16.1641 17.4518 0
      vertex 29.8359 17.4518 0
      vertex 29.9431 16.913 0
    endloop
  endfacet
  facet normal 0 0 -1
    outer loop
      vertex 16.0569 16.913 0
      vertex 29.9431 16.913 0
      vertex 30.1197 16.3927 0
    endloop
  endfacet
  facet normal 0 0 -1
    outer loop
      vertex 15.8803 16.3927 0
      vertex 30.1197 16.3927 0
      vertex 30.3627 15.9 0
    endloop
  endfacet
  facet normal 0 0 -1
    outer loop
      vertex 15.6373 15.9 0
      vertex 30.3627 15.9 0
      vertex 30.6679 15.4432 0
    endloop
  endfacet
  facet normal 0 0 -1
    outer loop
      vertex 31.4432 14.6679 0
      vertex 14.5568 14.6679 0
      vertex 31.0302 15.0302 0
    endloop
  endfacet
  facet normal 0 0 -1
    outer loop
      vertex 29.8359 17.4518 0
      vertex 16.1641 17.4518 0
      vertex 16.2 18 0
    endloop
  endfacet
  facet normal 0 0 -1
    outer loop
      vertex 29.9431 16.913 0
      vertex 16.0569 16.913 0
      vertex 16.1641 17.4518 0
    endloop
  endfacet
  facet normal 0 0 -1
    outer loop
      vertex 30.1197 16.3927 0
      vertex 15.8803 16.3927 0
      vertex 16.0569 16.913 0
    endloop
  endfacet
  facet normal 0 0 -1
    outer loop
      vertex 30.3627 15.9 0
      vertex 15.6373 15.9 0
      vertex 15.8803 16.3927 0
    endloop
  endfacet
  facet normal 0 0 -1
    outer loop
      vertex 30.6679 15.4432 0
      vertex 15.3321 15.4432 0
      vertex 15.6373 15.9 0
    endloop
  endfacet
  facet normal -0 0 -1
    outer loop
      vertex 30.6679 15.4432 0
      vertex 14.9698 15.0302 0
      vertex 15.3321 15.4432 0
    endloop
  endfacet
  facet normal 0 0 -1
    outer loop
      vertex 31.0302 15.0302 0
      vertex 14.9698 15.0302 0
      vertex 30.6679 15.4432 0
    endloop
  endfacet
  facet normal 0 -0 -1
    outer loop
      vertex 14.9698 15.0302 0
      vertex 31.0302 15.0302 0
      vertex 14.5568 14.6679 0
    endloop
  endfacet
  facet normal 0 0 -1
    outer loop
      vertex 43 0 0
      vertex 13.6073 14.1197 0
      vertex 14.1 14.3627 0
    endloop
  endfacet
  facet normal 0 0 -1
    outer loop
      vertex 3 0 0
      vertex 13.6073 14.1197 0
      vertex 43 0 0
    endloop
  endfacet
  facet normal 0 0 -1
    outer loop
      vertex 13.6073 14.1197 0
      vertex 3 0 0
      vertex 13.087 13.9431 0
    endloop
  endfacet
  facet normal 0 0 -1
    outer loop
      vertex 13.087 13.9431 0
      vertex 3 0 0
      vertex 12.5482 13.8359 0
    endloop
  endfacet
  facet normal 0 0 -1
    outer loop
      vertex 12.5482 13.8359 0
      vertex 3 0 0
      vertex 12 13.8 0
    endloop
  endfacet
  facet normal -0 0 -1
    outer loop
      vertex 12 13.8 0
      vertex 3 0 0
      vertex 11.4518 13.8359 0
    endloop
  endfacet
  facet normal -0 0 -1
    outer loop
      vertex 11.4518 13.8359 0
      vertex 3 0 0
      vertex 10.913 13.9431 0
    endloop
  endfacet
  facet normal -0 0 -1
    outer loop
      vertex 7.94311 16.913 0
      vertex 0 3 0
      vertex 7.83593 17.4518 0
    endloop
  endfacet
  facet normal -0 0 -1
    outer loop
      vertex 8.11971 16.3927 0
      vertex 0 3 0
      vertex 7.94311 16.913 0
    endloop
  endfacet
  facet normal -0 0 -1
    outer loop
      vertex 8.36269 15.9 0
      vertex 0 3 0
      vertex 8.11971 16.3927 0
    endloop
  endfacet
  facet normal -0 0 -1
    outer loop
      vertex 8.66792 15.4432 0
      vertex 0 3 0
      vertex 8.36269 15.9 0
    endloop
  endfacet
  facet normal -0 0 -1
    outer loop
      vertex 9.03015 15.0302 0
      vertex 0 3 0
      vertex 8.66792 15.4432 0
    endloop
  endfacet
  facet normal -0 0 -1
    outer loop
      vertex 9.4432 14.6679 0
      vertex 0 3 0
      vertex 9.03015 15.0302 0
    endloop
  endfacet
  facet normal -0 0 -1
    outer loop
      vertex 9.9 14.3627 0
      vertex 0 3 0
      vertex 9.4432 14.6679 0
    endloop
  endfacet
  facet normal -0 0 -1
    outer loop
      vertex 10.3927 14.1197 0
      vertex 0 3 0
      vertex 9.9 14.3627 0
    endloop
  endfacet
  facet normal 0 0 -1
    outer loop
      vertex 0 3 0
      vertex 10.3927 14.1197 0
      vertex 3 0 0
    endloop
  endfacet
  facet normal -0 0 -1
    outer loop
      vertex 10.913 13.9431 0
      vertex 3 0 0
      vertex 10.3927 14.1197 0
    endloop
  endfacet
  facet normal 0 0 -1
    outer loop
      vertex 45.7716 34.1481 0
      vertex 43 36 0
      vertex 45.5981 34.5 0
    endloop
  endfacet
  facet normal 0 0 -1
    outer loop
      vertex 45.3801 34.8263 0
      vertex 43 36 0
      vertex 45.1213 35.1213 0
    endloop
  endfacet
  facet normal 0 0 -1
    outer loop
      vertex 45.1213 35.1213 0
      vertex 43 36 0
      vertex 44.8263 35.3801 0
    endloop
  endfacet
  facet normal 0 0 -1
    outer loop
      vertex 44.8263 35.3801 0
      vertex 43 36 0
      vertex 44.5 35.5981 0
    endloop
  endfacet
  facet normal 0 0 -1
    outer loop
      vertex 44.1481 35.7716 0
      vertex 43 36 0
      vertex 43.7765 35.8978 0
    endloop
  endfacet
  facet normal 0 0 -1
    outer loop
      vertex 43.7765 35.8978 0
      vertex 43 36 0
      vertex 43.3916 35.9743 0
    endloop
  endfacet
  facet normal 0 0 -1
    outer loop
      vertex 44.5 35.5981 0
      vertex 43 36 0
      vertex 44.1481 35.7716 0
    endloop
  endfacet
  facet normal 0 0 -1
    outer loop
      vertex 45.5981 34.5 0
      vertex 43 36 0
      vertex 45.3801 34.8263 0
    endloop
  endfacet
  facet normal -0 0 -1
    outer loop
      vertex 46 33 0
      vertex 35.6073 21.8803 0
      vertex 43 36 0
    endloop
  endfacet
  facet normal 0 0 -1
    outer loop
      vertex 35.087 22.0569 0
      vertex 43 36 0
      vertex 35.6073 21.8803 0
    endloop
  endfacet
  facet normal 0 0 -1
    outer loop
      vertex 34.5482 22.1641 0
      vertex 43 36 0
      vertex 35.087 22.0569 0
    endloop
  endfacet
  facet normal 0 0 -1
    outer loop
      vertex 34 22.2 0
      vertex 43 36 0
      vertex 34.5482 22.1641 0
    endloop
  endfacet
  facet normal 0 0 -1
    outer loop
      vertex 33.4518 22.1641 0
      vertex 43 36 0
      vertex 34 22.2 0
    endloop
  endfacet
  facet normal 0 0 -1
    outer loop
      vertex 32.913 22.0569 0
      vertex 43 36 0
      vertex 33.4518 22.1641 0
    endloop
  endfacet
  facet normal 0 0 -1
    outer loop
      vertex 32.3927 21.8803 0
      vertex 43 36 0
      vertex 32.913 22.0569 0
    endloop
  endfacet
  facet normal 0 0 -1
    outer loop
      vertex 31.9 21.6373 0
      vertex 43 36 0
      vertex 32.3927 21.8803 0
    endloop
  endfacet
  facet normal 0 0 -1
    outer loop
      vertex 14.1 21.6373 0
      vertex 31.9 21.6373 0
      vertex 31.4432 21.3321 0
    endloop
  endfacet
  facet normal 0 0 -1
    outer loop
      vertex 14.5568 21.3321 0
      vertex 31.4432 21.3321 0
      vertex 31.0302 20.9698 0
    endloop
  endfacet
  facet normal 0 0 -1
    outer loop
      vertex 14.9698 20.9698 0
      vertex 31.0302 20.9698 0
      vertex 30.6679 20.5568 0
    endloop
  endfacet
  facet normal 0 0 -1
    outer loop
      vertex 16.2 18 0
      vertex 29.8359 18.5482 0
      vertex 29.8 18 0
    endloop
  endfacet
  facet normal 0 0 -1
    outer loop
      vertex 16.1641 18.5482 0
      vertex 29.8359 18.5482 0
      vertex 16.2 18 0
    endloop
  endfacet
  facet normal 0 0 -1
    outer loop
      vertex 29.8359 18.5482 0
      vertex 16.1641 18.5482 0
      vertex 29.9431 19.087 0
    endloop
  endfacet
  facet normal 0 0 -1
    outer loop
      vertex 16.0569 19.087 0
      vertex 29.9431 19.087 0
      vertex 16.1641 18.5482 0
    endloop
  endfacet
  facet normal 0 0 -1
    outer loop
      vertex 29.9431 19.087 0
      vertex 16.0569 19.087 0
      vertex 30.1197 19.6073 0
    endloop
  endfacet
  facet normal 0 0 -1
    outer loop
      vertex 15.8803 19.6073 0
      vertex 30.1197 19.6073 0
      vertex 16.0569 19.087 0
    endloop
  endfacet
  facet normal 0 0 -1
    outer loop
      vertex 30.1197 19.6073 0
      vertex 15.8803 19.6073 0
      vertex 30.3627 20.1 0
    endloop
  endfacet
  facet normal 0 0 -1
    outer loop
      vertex 15.6373 20.1 0
      vertex 30.3627 20.1 0
      vertex 15.8803 19.6073 0
    endloop
  endfacet
  facet normal 0 0 -1
    outer loop
      vertex 30.3627 20.1 0
      vertex 15.6373 20.1 0
      vertex 30.6679 20.5568 0
    endloop
  endfacet
  facet normal 0 0 -1
    outer loop
      vertex 15.3321 20.5568 0
      vertex 30.6679 20.5568 0
      vertex 15.6373 20.1 0
    endloop
  endfacet
  facet normal 0 0 -1
    outer loop
      vertex 14.9698 20.9698 0
      vertex 30.6679 20.5568 0
      vertex 15.3321 20.5568 0
    endloop
  endfacet
  facet normal 0 0 -1
    outer loop
      vertex 31.0302 20.9698 0
      vertex 14.9698 20.9698 0
      vertex 14.5568 21.3321 0
    endloop
  endfacet
  facet normal 0 0 -1
    outer loop
      vertex 31.4432 21.3321 0
      vertex 14.5568 21.3321 0
      vertex 14.1 21.6373 0
    endloop
  endfacet
  facet normal 0 0 -1
    outer loop
      vertex 31.9 21.6373 0
      vertex 14.1 21.6373 0
      vertex 43 36 0
    endloop
  endfacet
  facet normal 0 0 -1
    outer loop
      vertex 13.6073 21.8803 0
      vertex 43 36 0
      vertex 14.1 21.6373 0
    endloop
  endfacet
  facet normal 0 0 -1
    outer loop
      vertex 3 36 0
      vertex 13.6073 21.8803 0
      vertex 13.087 22.0569 0
    endloop
  endfacet
  facet normal 0 0 -1
    outer loop
      vertex 3 36 0
      vertex 13.087 22.0569 0
      vertex 12.5482 22.1641 0
    endloop
  endfacet
  facet normal 0 0 -1
    outer loop
      vertex 3 36 0
      vertex 12.5482 22.1641 0
      vertex 12 22.2 0
    endloop
  endfacet
  facet normal 0 0 -1
    outer loop
      vertex 3 36 0
      vertex 12 22.2 0
      vertex 11.4518 22.1641 0
    endloop
  endfacet
  facet normal 0 0 -1
    outer loop
      vertex 3 36 0
      vertex 11.4518 22.1641 0
      vertex 10.913 22.0569 0
    endloop
  endfacet
  facet normal 0 0 -1
    outer loop
      vertex 3 36 0
      vertex 10.913 22.0569 0
      vertex 10.3927 21.8803 0
    endloop
  endfacet
  facet normal -0 0 -1
    outer loop
      vertex 7.83593 17.4518 0
      vertex 0 3 0
      vertex 7.8 18 0
    endloop
  endfacet
  facet normal 0 0 -1
    outer loop
      vertex 0 33 0
      vertex 7.8 18 0
      vertex 0 3 0
    endloop
  endfacet
  facet normal 0 0 -1
    outer loop
      vertex 13.6073 21.8803 0
      vertex 3 36 0
      vertex 43 36 0
    endloop
  endfacet
  facet normal 0 0 -1
    outer loop
      vertex 0 33 0
      vertex 10.3927 21.8803 0
      vertex 9.9 21.6373 0
    endloop
  endfacet
  facet normal 0 0 -1
    outer loop
      vertex 0 33 0
      vertex 9.9 21.6373 0
      vertex 9.4432 21.3321 0
    endloop
  endfacet
  facet normal 0 0 -1
    outer loop
      vertex 0 33 0
      vertex 9.4432 21.3321 0
      vertex 9.03015 20.9698 0
    endloop
  endfacet
  facet normal 0 0 -1
    outer loop
      vertex 0 33 0
      vertex 9.03015 20.9698 0
      vertex 8.66792 20.5568 0
    endloop
  endfacet
  facet normal 0 0 -1
    outer loop
      vertex 0 33 0
      vertex 8.66792 20.5568 0
      vertex 8.36269 20.1 0
    endloop
  endfacet
  facet normal 0 0 -1
    outer loop
      vertex 0 33 0
      vertex 8.36269 20.1 0
      vertex 8.11971 19.6073 0
    endloop
  endfacet
  facet normal 0 0 -1
    outer loop
      vertex 0 33 0
      vertex 8.11971 19.6073 0
      vertex 7.94311 19.087 0
    endloop
  endfacet
  facet normal 0 0 -1
    outer loop
      vertex 7.8 18 0
      vertex 0 33 0
      vertex 7.83593 18.5482 0
    endloop
  endfacet
  facet normal 0 0 -1
    outer loop
      vertex 0 3 0
      vertex 3 0 0
      vertex 2.60843 0.0256653 0
    endloop
  endfacet
  facet normal 0 0 -1
    outer loop
      vertex 7.83593 18.5482 0
      vertex 0 33 0
      vertex 7.94311 19.087 0
    endloop
  endfacet
  facet normal 0 0 -1
    outer loop
      vertex 0 3 0
      vertex 2.60843 0.0256653 0
      vertex 2.22354 0.102219 0
    endloop
  endfacet
  facet normal 0 0 -1
    outer loop
      vertex 10.3927 21.8803 0
      vertex 0 33 0
      vertex 3 36 0
    endloop
  endfacet
  facet normal 0 0 -1
    outer loop
      vertex 0 3 0
      vertex 2.22354 0.102219 0
      vertex 1.85194 0.228363 0
    endloop
  endfacet
  facet normal 0 0 -1
    outer loop
      vertex 3 36 0
      vertex 0 33 0
      vertex 2.60843 35.9743 0
    endloop
  endfacet
  facet normal 0 0 -1
    outer loop
      vertex 0 3 0
      vertex 1.85194 0.228363 0
      vertex 1.5 0.401917 0
    endloop
  endfacet
  facet normal 0 0 -1
    outer loop
      vertex 2.60843 35.9743 0
      vertex 0 33 0
      vertex 2.22354 35.8978 0
    endloop
  endfacet
  facet normal 0 0 -1
    outer loop
      vertex 0 3 0
      vertex 1.5 0.401917 0
      vertex 1.17372 0.619934 0
    endloop
  endfacet
  facet normal 0 0 -1
    outer loop
      vertex 2.22354 35.8978 0
      vertex 0 33 0
      vertex 1.85194 35.7716 0
    endloop
  endfacet
  facet normal 0 0 -1
    outer loop
      vertex 0 3 0
      vertex 1.17372 0.619934 0
      vertex 0.878677 0.878677 0
    endloop
  endfacet
  facet normal 0 0 -1
    outer loop
      vertex 1.85194 35.7716 0
      vertex 0 33 0
      vertex 1.5 35.5981 0
    endloop
  endfacet
  facet normal 0 0 -1
    outer loop
      vertex 0 3 0
      vertex 0.878677 0.878677 0
      vertex 0.619934 1.17372 0
    endloop
  endfacet
  facet normal 0 0 -1
    outer loop
      vertex 1.5 35.5981 0
      vertex 0 33 0
      vertex 1.17372 35.3801 0
    endloop
  endfacet
  facet normal 0 0 -1
    outer loop
      vertex 0 3 0
      vertex 0.619934 1.17372 0
      vertex 0.401917 1.5 0
    endloop
  endfacet
  facet normal 0 0 -1
    outer loop
      vertex 1.17372 35.3801 0
      vertex 0 33 0
      vertex 0.878677 35.1213 0
    endloop
  endfacet
  facet normal 0 0 -1
    outer loop
      vertex 0 3 0
      vertex 0.401917 1.5 0
      vertex 0.228363 1.85194 0
    endloop
  endfacet
  facet normal 0 0 -1
    outer loop
      vertex 0.878677 35.1213 0
      vertex 0 33 0
      vertex 0.619934 34.8263 0
    endloop
  endfacet
  facet normal 0 0 -1
    outer loop
      vertex 0 3 0
      vertex 0.228363 1.85194 0
      vertex 0.102219 2.22354 0
    endloop
  endfacet
  facet normal 0 0 -1
    outer loop
      vertex 0.619934 34.8263 0
      vertex 0 33 0
      vertex 0.401917 34.5 0
    endloop
  endfacet
  facet normal 0 0 -1
    outer loop
      vertex 0 3 0
      vertex 0.102219 2.22354 0
      vertex 0.0256653 2.60843 0
    endloop
  endfacet
  facet normal 0 0 -1
    outer loop
      vertex 0.401917 34.5 0
      vertex 0 33 0
      vertex 0.228363 34.1481 0
    endloop
  endfacet
  facet normal 0 0 -1
    outer loop
      vertex 0.228363 34.1481 0
      vertex 0 33 0
      vertex 0.102219 33.7765 0
    endloop
  endfacet
  facet normal 0 0 -1
    outer loop
      vertex 0.102219 33.7765 0
      vertex 0 33 0
      vertex 0.0256653 33.3916 0
    endloop
  endfacet
  facet normal 0.997853 -0.0654923 0
    outer loop
      vertex 45.9743 2.60843 3
      vertex 46 3 0
      vertex 46 3 3
    endloop
  endfacet
  facet normal 0.997853 -0.0654923 0
    outer loop
      vertex 46 3 0
      vertex 45.9743 2.60843 3
      vertex 45.9743 2.60843 0
    endloop
  endfacet
  facet normal 0 0 1
    outer loop
      vertex 43 36 3
      vertex 46 33 3
      vertex 45.9743 33.3916 3
    endloop
  endfacet
  facet normal 0 0 1
    outer loop
      vertex 46 33 3
      vertex 43 36 3
      vertex 46 3 3
    endloop
  endfacet
  facet normal 0 0 1
    outer loop
      vertex 43 36 3
      vertex 45.9743 33.3916 3
      vertex 45.8978 33.7765 3
    endloop
  endfacet
  facet normal 0 0 1
    outer loop
      vertex 43 0 3
      vertex 46 3 3
      vertex 43 36 3
    endloop
  endfacet
  facet normal 0 0 1
    outer loop
      vertex 43 36 3
      vertex 45.8978 33.7765 3
      vertex 45.7716 34.1481 3
    endloop
  endfacet
  facet normal 0 0 1
    outer loop
      vertex 46 3 3
      vertex 43 0 3
      vertex 45.9743 2.60843 3
    endloop
  endfacet
  facet normal 0 0 1
    outer loop
      vertex 43 36 3
      vertex 45.7716 34.1481 3
      vertex 45.5981 34.5 3
    endloop
  endfacet
  facet normal 0 0 1
    outer loop
      vertex 45.9743 2.60843 3
      vertex 43 0 3
      vertex 45.8978 2.22354 3
    endloop
  endfacet
  facet normal 0 0 1
    outer loop
      vertex 43 36 3
      vertex 45.5981 34.5 3
      vertex 45.3801 34.8263 3
    endloop
  endfacet
  facet normal 0 0 1
    outer loop
      vertex 45.8978 2.22354 3
      vertex 43 0 3
      vertex 45.7716 1.85194 3
    endloop
  endfacet
  facet normal 0 0 1
    outer loop
      vertex 43 36 3
      vertex 45.3801 34.8263 3
      vertex 45.1213 35.1213 3
    endloop
  endfacet
  facet normal 0 0 1
    outer loop
      vertex 45.7716 1.85194 3
      vertex 43 0 3
      vertex 45.5981 1.5 3
    endloop
  endfacet
  facet normal 0 0 1
    outer loop
      vertex 43 36 3
      vertex 45.1213 35.1213 3
      vertex 44.8263 35.3801 3
    endloop
  endfacet
  facet normal 0 0 1
    outer loop
      vertex 45.5981 1.5 3
      vertex 43 0 3
      vertex 45.3801 1.17372 3
    endloop
  endfacet
  facet normal 0 0 1
    outer loop
      vertex 43 36 3
      vertex 44.8263 35.3801 3
      vertex 44.5 35.5981 3
    endloop
  endfacet
  facet normal 0 0 1
    outer loop
      vertex 45.3801 1.17372 3
      vertex 43 0 3
      vertex 45.1213 0.878677 3
    endloop
  endfacet
  facet normal 0 0 1
    outer loop
      vertex 43 36 3
      vertex 44.5 35.5981 3
      vertex 44.1481 35.7716 3
    endloop
  endfacet
  facet normal 0 0 1
    outer loop
      vertex 45.1213 0.878677 3
      vertex 43 0 3
      vertex 44.8263 0.619934 3
    endloop
  endfacet
  facet normal 0 0 1
    outer loop
      vertex 43 36 3
      vertex 44.1481 35.7716 3
      vertex 43.7765 35.8978 3
    endloop
  endfacet
  facet normal 0 0 1
    outer loop
      vertex 44.8263 0.619934 3
      vertex 43 0 3
      vertex 44.5 0.401917 3
    endloop
  endfacet
  facet normal 0 0 1
    outer loop
      vertex 43 36 3
      vertex 43.7765 35.8978 3
      vertex 43.3916 35.9743 3
    endloop
  endfacet
  facet normal 0 0 1
    outer loop
      vertex 44.5 0.401917 3
      vertex 43 0 3
      vertex 44.1481 0.228363 3
    endloop
  endfacet
  facet normal 0 0 1
    outer loop
      vertex 44.1481 0.228363 3
      vertex 43 0 3
      vertex 43.7765 0.102219 3
    endloop
  endfacet
  facet normal 0 0 1
    outer loop
      vertex 43.7765 0.102219 3
      vertex 43 0 3
      vertex 43.3916 0.0256653 3
    endloop
  endfacet
  facet normal -0 0 1
    outer loop
      vertex 3 36 3
      vertex 43 0 3
      vertex 43 36 3
    endloop
  endfacet
  facet normal 0 0 1
    outer loop
      vertex 3 36 3
      vertex 3 0 3
      vertex 43 0 3
    endloop
  endfacet
  facet normal 0 0 1
    outer loop
      vertex 0 33 3
      vertex 3 36 3
      vertex 2.60843 35.9743 3
    endloop
  endfacet
  facet normal 0 0 1
    outer loop
      vertex 3 36 3
      vertex 0 33 3
      vertex 3 0 3
    endloop
  endfacet
  facet normal 0 0 1
    outer loop
      vertex 0 33 3
      vertex 2.60843 35.9743 3
      vertex 2.22354 35.8978 3
    endloop
  endfacet
  facet normal -0 0 1
    outer loop
      vertex 0 3 3
      vertex 3 0 3
      vertex 0 33 3
    endloop
  endfacet
  facet normal 0 0 1
    outer loop
      vertex 0 33 3
      vertex 2.22354 35.8978 3
      vertex 1.85194 35.7716 3
    endloop
  endfacet
  facet normal 0 0 1
    outer loop
      vertex 3 0 3
      vertex 0 3 3
      vertex 2.60843 0.0256653 3
    endloop
  endfacet
  facet normal 0 0 1
    outer loop
      vertex 0 33 3
      vertex 1.85194 35.7716 3
      vertex 1.5 35.5981 3
    endloop
  endfacet
  facet normal 0 0 1
    outer loop
      vertex 2.60843 0.0256653 3
      vertex 0 3 3
      vertex 2.22354 0.102219 3
    endloop
  endfacet
  facet normal 0 0 1
    outer loop
      vertex 0 33 3
      vertex 1.5 35.5981 3
      vertex 1.17372 35.3801 3
    endloop
  endfacet
  facet normal 0 0 1
    outer loop
      vertex 2.22354 0.102219 3
      vertex 0 3 3
      vertex 1.85194 0.228363 3
    endloop
  endfacet
  facet normal 0 0 1
    outer loop
      vertex 0 33 3
      vertex 1.17372 35.3801 3
      vertex 0.878677 35.1213 3
    endloop
  endfacet
  facet normal 0 0 1
    outer loop
      vertex 1.85194 0.228363 3
      vertex 0 3 3
      vertex 1.5 0.401917 3
    endloop
  endfacet
  facet normal 0 0 1
    outer loop
      vertex 0 33 3
      vertex 0.878677 35.1213 3
      vertex 0.619934 34.8263 3
    endloop
  endfacet
  facet normal 0 0 1
    outer loop
      vertex 1.5 0.401917 3
      vertex 0 3 3
      vertex 1.17372 0.619934 3
    endloop
  endfacet
  facet normal 0 0 1
    outer loop
      vertex 0 33 3
      vertex 0.619934 34.8263 3
      vertex 0.401917 34.5 3
    endloop
  endfacet
  facet normal 0 0 1
    outer loop
      vertex 1.17372 0.619934 3
      vertex 0 3 3
      vertex 0.878677 0.878677 3
    endloop
  endfacet
  facet normal 0 0 1
    outer loop
      vertex 0 33 3
      vertex 0.401917 34.5 3
      vertex 0.228363 34.1481 3
    endloop
  endfacet
  facet normal 0 0 1
    outer loop
      vertex 0.878677 0.878677 3
      vertex 0 3 3
      vertex 0.619934 1.17372 3
    endloop
  endfacet
  facet normal 0 0 1
    outer loop
      vertex 0 33 3
      vertex 0.228363 34.1481 3
      vertex 0.102219 33.7765 3
    endloop
  endfacet
  facet normal 0 0 1
    outer loop
      vertex 0.619934 1.17372 3
      vertex 0 3 3
      vertex 0.401917 1.5 3
    endloop
  endfacet
  facet normal 0 0 1
    outer loop
      vertex 0 33 3
      vertex 0.102219 33.7765 3
      vertex 0.0256653 33.3916 3
    endloop
  endfacet
  facet normal 0 0 1
    outer loop
      vertex 0.401917 1.5 3
      vertex 0 3 3
      vertex 0.228363 1.85194 3
    endloop
  endfacet
  facet normal 0 0 1
    outer loop
      vertex 0.228363 1.85194 3
      vertex 0 3 3
      vertex 0.102219 2.22354 3
    endloop
  endfacet
  facet normal 0 0 1
    outer loop
      vertex 0.102219 2.22354 3
      vertex 0 3 3
      vertex 0.0256653 2.60843 3
    endloop
  endfacet
  facet normal 0.442322 -0.896856 0
    outer loop
      vertex 44.1481 0.228363 0
      vertex 44.5 0.401917 3
      vertex 44.1481 0.228363 3
    endloop
  endfacet
  facet normal 0.442322 -0.896856 0
    outer loop
      vertex 44.5 0.401917 3
      vertex 44.1481 0.228363 0
      vertex 44.5 0.401917 0
    endloop
  endfacet
  facet normal 0.555553 -0.831481 0
    outer loop
      vertex 44.5 0.401917 0
      vertex 44.8263 0.619934 3
      vertex 44.5 0.401917 3
    endloop
  endfacet
  facet normal 0.555553 -0.831481 0
    outer loop
      vertex 44.8263 0.619934 3
      vertex 44.5 0.401917 0
      vertex 44.8263 0.619934 0
    endloop
  endfacet
endsolid OpenSCAD_Model
