solid OpenSCAD_Model
  facet normal 0.980787 0.195079 0
    outer loop
      vertex 4.4615 0.587367 1.2
      vertex 4.34667 1.16469 0
      vertex 4.34667 1.16469 1.2
    endloop
  endfacet
  facet normal 0.980787 0.195079 0
    outer loop
      vertex 4.34667 1.16469 0
      vertex 4.4615 0.587367 1.2
      vertex 4.4615 0.587367 0
    endloop
  endfacet
  facet normal 0.997859 0.0654064 0
    outer loop
      vertex 4.5 0 1.2
      vertex 4.4615 0.587367 0
      vertex 4.4615 0.587367 1.2
    endloop
  endfacet
  facet normal 0.997859 0.0654064 0
    outer loop
      vertex 4.4615 0.587367 0
      vertex 4.5 0 1.2
      vertex 4.5 0 0
    endloop
  endfacet
  facet normal -0.89687 0.442294 0
    outer loop
      vertex -4.15746 1.72207 0
      vertex -3.89711 2.25 1.2
      vertex -3.89711 2.25 0
    endloop
  endfacet
  facet normal -0.89687 0.442294 0
    outer loop
      vertex -3.89711 2.25 1.2
      vertex -4.15746 1.72207 0
      vertex -4.15746 1.72207 1.2
    endloop
  endfacet
  facet normal 0.751836 -0.65935 0
    outer loop
      vertex 3.18198 -3.18198 1.2
      vertex 3.57009 -2.73943 0
      vertex 3.57009 -2.73943 1.2
    endloop
  endfacet
  facet normal 0.751836 -0.65935 0
    outer loop
      vertex 3.57009 -2.73943 0
      vertex 3.18198 -3.18198 1.2
      vertex 3.18198 -3.18198 0
    endloop
  endfacet
  facet normal -0.751836 0.65935 0
    outer loop
      vertex -3.57009 2.73943 0
      vertex -3.18198 3.18198 1.2
      vertex -3.18198 3.18198 0
    endloop
  endfacet
  facet normal -0.751836 0.65935 0
    outer loop
      vertex -3.18198 3.18198 1.2
      vertex -3.57009 2.73943 0
      vertex -3.57009 2.73943 1.2
    endloop
  endfacet
  facet normal -0.321447 0.946928 0
    outer loop
      vertex -1.16469 4.34667 0
      vertex -1.72207 4.15746 1.2
      vertex -1.16469 4.34667 1.2
    endloop
  endfacet
  facet normal -0.321447 0.946928 0
    outer loop
      vertex -1.72207 4.15746 1.2
      vertex -1.16469 4.34667 0
      vertex -1.72207 4.15746 0
    endloop
  endfacet
  facet normal 0.65935 0.751836 -0
    outer loop
      vertex 3.18198 3.18198 0
      vertex 2.73943 3.57009 1.2
      vertex 3.18198 3.18198 1.2
    endloop
  endfacet
  facet normal 0.65935 0.751836 0
    outer loop
      vertex 2.73943 3.57009 1.2
      vertex 3.18198 3.18198 0
      vertex 2.73943 3.57009 0
    endloop
  endfacet
  facet normal 0 0 -1
    outer loop
      vertex 4.4615 -0.587367 0
      vertex 4.4615 0.587367 0
      vertex 4.5 0 0
    endloop
  endfacet
  facet normal 0 0 -1
    outer loop
      vertex 4.34667 -1.16469 0
      vertex 4.4615 0.587367 0
      vertex 4.4615 -0.587367 0
    endloop
  endfacet
  facet normal 0 0 -1
    outer loop
      vertex 4.34667 -1.16469 0
      vertex 4.34667 1.16469 0
      vertex 4.4615 0.587367 0
    endloop
  endfacet
  facet normal 0 0 -1
    outer loop
      vertex 4.15746 -1.72207 0
      vertex 4.34667 1.16469 0
      vertex 4.34667 -1.16469 0
    endloop
  endfacet
  facet normal 0 0 -1
    outer loop
      vertex 4.15746 -1.72207 0
      vertex 4.15746 1.72207 0
      vertex 4.34667 1.16469 0
    endloop
  endfacet
  facet normal 0 0 -1
    outer loop
      vertex 3.89711 -2.25 0
      vertex 4.15746 1.72207 0
      vertex 4.15746 -1.72207 0
    endloop
  endfacet
  facet normal 0 0 -1
    outer loop
      vertex 3.89711 -2.25 0
      vertex 3.89711 2.25 0
      vertex 4.15746 1.72207 0
    endloop
  endfacet
  facet normal 0 0 -1
    outer loop
      vertex 3.57009 -2.73943 0
      vertex 3.89711 2.25 0
      vertex 3.89711 -2.25 0
    endloop
  endfacet
  facet normal 0 0 -1
    outer loop
      vertex 3.57009 -2.73943 0
      vertex 3.57009 2.73943 0
      vertex 3.89711 2.25 0
    endloop
  endfacet
  facet normal 0 0 -1
    outer loop
      vertex 3.18198 -3.18198 0
      vertex 3.57009 2.73943 0
      vertex 3.57009 -2.73943 0
    endloop
  endfacet
  facet normal 0 0 -1
    outer loop
      vertex 3.18198 -3.18198 0
      vertex 3.18198 3.18198 0
      vertex 3.57009 2.73943 0
    endloop
  endfacet
  facet normal 0 0 -1
    outer loop
      vertex 2.73943 -3.57009 0
      vertex 3.18198 3.18198 0
      vertex 3.18198 -3.18198 0
    endloop
  endfacet
  facet normal 0 0 -1
    outer loop
      vertex 2.73943 -3.57009 0
      vertex 2.73943 3.57009 0
      vertex 3.18198 3.18198 0
    endloop
  endfacet
  facet normal 0 0 -1
    outer loop
      vertex 2.25 -3.89711 0
      vertex 2.73943 3.57009 0
      vertex 2.73943 -3.57009 0
    endloop
  endfacet
  facet normal 0 0 -1
    outer loop
      vertex 2.25 -3.89711 0
      vertex 2.25 3.89711 0
      vertex 2.73943 3.57009 0
    endloop
  endfacet
  facet normal 0 0 -1
    outer loop
      vertex 1.72207 -4.15746 0
      vertex 2.25 3.89711 0
      vertex 2.25 -3.89711 0
    endloop
  endfacet
  facet normal 0 0 -1
    outer loop
      vertex 1.72207 -4.15746 0
      vertex 1.72207 4.15746 0
      vertex 2.25 3.89711 0
    endloop
  endfacet
  facet normal 0 0 -1
    outer loop
      vertex 1.16469 -4.34667 0
      vertex 1.72207 4.15746 0
      vertex 1.72207 -4.15746 0
    endloop
  endfacet
  facet normal 0 0 -1
    outer loop
      vertex 1.16469 -4.34667 0
      vertex 1.16469 4.34667 0
      vertex 1.72207 4.15746 0
    endloop
  endfacet
  facet normal 0 0 -1
    outer loop
      vertex 0.587367 -4.4615 0
      vertex 1.16469 4.34667 0
      vertex 1.16469 -4.34667 0
    endloop
  endfacet
  facet normal 0 0 -1
    outer loop
      vertex 0.587367 -4.4615 0
      vertex 0.587367 4.4615 0
      vertex 1.16469 4.34667 0
    endloop
  endfacet
  facet normal 0 0 -1
    outer loop
      vertex 0 -4.5 0
      vertex 0.587367 4.4615 0
      vertex 0.587367 -4.4615 0
    endloop
  endfacet
  facet normal 0 0 -1
    outer loop
      vertex 0 -4.5 0
      vertex 0 4.5 0
      vertex 0.587367 4.4615 0
    endloop
  endfacet
  facet normal 0 0 -1
    outer loop
      vertex -0.587367 -4.4615 0
      vertex 0 4.5 0
      vertex 0 -4.5 0
    endloop
  endfacet
  facet normal 0 0 -1
    outer loop
      vertex -0.587367 -4.4615 0
      vertex -0.587367 4.4615 0
      vertex 0 4.5 0
    endloop
  endfacet
  facet normal 0 0 -1
    outer loop
      vertex -1.16469 -4.34667 0
      vertex -0.587367 4.4615 0
      vertex -0.587367 -4.4615 0
    endloop
  endfacet
  facet normal 0 0 -1
    outer loop
      vertex -1.16469 -4.34667 0
      vertex -1.16469 4.34667 0
      vertex -0.587367 4.4615 0
    endloop
  endfacet
  facet normal 0 0 -1
    outer loop
      vertex -1.72207 -4.15746 0
      vertex -1.16469 4.34667 0
      vertex -1.16469 -4.34667 0
    endloop
  endfacet
  facet normal 0 0 -1
    outer loop
      vertex -1.72207 -4.15746 0
      vertex -1.72207 4.15746 0
      vertex -1.16469 4.34667 0
    endloop
  endfacet
  facet normal 0 0 -1
    outer loop
      vertex -2.25 -3.89711 0
      vertex -1.72207 4.15746 0
      vertex -1.72207 -4.15746 0
    endloop
  endfacet
  facet normal 0 0 -1
    outer loop
      vertex -2.25 -3.89711 0
      vertex -2.25 3.89711 0
      vertex -1.72207 4.15746 0
    endloop
  endfacet
  facet normal 0 0 -1
    outer loop
      vertex -2.73943 -3.57009 0
      vertex -2.25 3.89711 0
      vertex -2.25 -3.89711 0
    endloop
  endfacet
  facet normal 0 0 -1
    outer loop
      vertex -2.73943 -3.57009 0
      vertex -2.73943 3.57009 0
      vertex -2.25 3.89711 0
    endloop
  endfacet
  facet normal 0 0 -1
    outer loop
      vertex -3.18198 -3.18198 0
      vertex -2.73943 3.57009 0
      vertex -2.73943 -3.57009 0
    endloop
  endfacet
  facet normal 0 0 -1
    outer loop
      vertex -3.18198 -3.18198 0
      vertex -3.18198 3.18198 0
      vertex -2.73943 3.57009 0
    endloop
  endfacet
  facet normal 0 0 -1
    outer loop
      vertex -3.57009 -2.73943 0
      vertex -3.18198 3.18198 0
      vertex -3.18198 -3.18198 0
    endloop
  endfacet
  facet normal 0 0 -1
    outer loop
      vertex -3.57009 -2.73943 0
      vertex -3.57009 2.73943 0
      vertex -3.18198 3.18198 0
    endloop
  endfacet
  facet normal 0 0 -1
    outer loop
      vertex -3.89711 -2.25 0
      vertex -3.57009 2.73943 0
      vertex -3.57009 -2.73943 0
    endloop
  endfacet
  facet normal 0 0 -1
    outer loop
      vertex -3.89711 -2.25 0
      vertex -3.89711 2.25 0
      vertex -3.57009 2.73943 0
    endloop
  endfacet
  facet normal 0 0 -1
    outer loop
      vertex -4.15746 -1.72207 0
      vertex -3.89711 2.25 0
      vertex -3.89711 -2.25 0
    endloop
  endfacet
  facet normal 0 0 -1
    outer loop
      vertex -4.15746 -1.72207 0
      vertex -4.15746 1.72207 0
      vertex -3.89711 2.25 0
    endloop
  endfacet
  facet normal 0 0 -1
    outer loop
      vertex -4.34667 -1.16469 0
      vertex -4.15746 1.72207 0
      vertex -4.15746 -1.72207 0
    endloop
  endfacet
  facet normal 0 0 -1
    outer loop
      vertex -4.34667 -1.16469 0
      vertex -4.34667 1.16469 0
      vertex -4.15746 1.72207 0
    endloop
  endfacet
  facet normal 0 0 -1
    outer loop
      vertex -4.4615 -0.587367 0
      vertex -4.34667 1.16469 0
      vertex -4.34667 -1.16469 0
    endloop
  endfacet
  facet normal 0 0 -1
    outer loop
      vertex -4.4615 -0.587367 0
      vertex -4.4615 0.587367 0
      vertex -4.34667 1.16469 0
    endloop
  endfacet
  facet normal 0 -0 -1
    outer loop
      vertex -4.4615 0.587367 0
      vertex -4.4615 -0.587367 0
      vertex -4.5 0 0
    endloop
  endfacet
  facet normal 0.442294 -0.89687 0
    outer loop
      vertex 1.72207 -4.15746 0
      vertex 2.25 -3.89711 1.2
      vertex 1.72207 -4.15746 1.2
    endloop
  endfacet
  facet normal 0.442294 -0.89687 0
    outer loop
      vertex 2.25 -3.89711 1.2
      vertex 1.72207 -4.15746 0
      vertex 2.25 -3.89711 0
    endloop
  endfacet
  facet normal 0.89687 -0.442294 0
    outer loop
      vertex 3.89711 -2.25 1.2
      vertex 4.15746 -1.72207 0
      vertex 4.15746 -1.72207 1.2
    endloop
  endfacet
  facet normal 0.89687 -0.442294 0
    outer loop
      vertex 4.15746 -1.72207 0
      vertex 3.89711 -2.25 1.2
      vertex 3.89711 -2.25 0
    endloop
  endfacet
  facet normal -0.997859 0.0654064 0
    outer loop
      vertex -4.5 0 0
      vertex -4.4615 0.587367 1.2
      vertex -4.4615 0.587367 0
    endloop
  endfacet
  facet normal -0.997859 0.0654064 0
    outer loop
      vertex -4.4615 0.587367 1.2
      vertex -4.5 0 0
      vertex -4.5 0 1.2
    endloop
  endfacet
  facet normal 0.946928 -0.321447 0
    outer loop
      vertex 4.15746 -1.72207 1.2
      vertex 4.34667 -1.16469 0
      vertex 4.34667 -1.16469 1.2
    endloop
  endfacet
  facet normal 0.946928 -0.321447 0
    outer loop
      vertex 4.34667 -1.16469 0
      vertex 4.15746 -1.72207 1.2
      vertex 4.15746 -1.72207 0
    endloop
  endfacet
  facet normal -0.65935 0.751836 0
    outer loop
      vertex -2.73943 3.57009 0
      vertex -3.18198 3.18198 1.2
      vertex -2.73943 3.57009 1.2
    endloop
  endfacet
  facet normal -0.65935 0.751836 0
    outer loop
      vertex -3.18198 3.18198 1.2
      vertex -2.73943 3.57009 0
      vertex -3.18198 3.18198 0
    endloop
  endfacet
  facet normal 0.321447 -0.946928 0
    outer loop
      vertex 1.16469 -4.34667 0
      vertex 1.72207 -4.15746 1.2
      vertex 1.16469 -4.34667 1.2
    endloop
  endfacet
  facet normal 0.321447 -0.946928 0
    outer loop
      vertex 1.72207 -4.15746 1.2
      vertex 1.16469 -4.34667 0
      vertex 1.72207 -4.15746 0
    endloop
  endfacet
  facet normal -0.0654064 -0.997859 0
    outer loop
      vertex -0.587367 -4.4615 0
      vertex 0 -4.5 1.2
      vertex -0.587367 -4.4615 1.2
    endloop
  endfacet
  facet normal -0.0654064 -0.997859 -0
    outer loop
      vertex 0 -4.5 1.2
      vertex -0.587367 -4.4615 0
      vertex 0 -4.5 0
    endloop
  endfacet
  facet normal 0.89687 0.442294 0
    outer loop
      vertex 4.15746 1.72207 1.2
      vertex 3.89711 2.25 0
      vertex 3.89711 2.25 1.2
    endloop
  endfacet
  facet normal 0.89687 0.442294 0
    outer loop
      vertex 3.89711 2.25 0
      vertex 4.15746 1.72207 1.2
      vertex 4.15746 1.72207 0
    endloop
  endfacet
  facet normal -0.946928 -0.321447 0
    outer loop
      vertex -4.15746 -1.72207 0
      vertex -4.34667 -1.16469 1.2
      vertex -4.34667 -1.16469 0
    endloop
  endfacet
  facet normal -0.946928 -0.321447 0
    outer loop
      vertex -4.34667 -1.16469 1.2
      vertex -4.15746 -1.72207 0
      vertex -4.15746 -1.72207 1.2
    endloop
  endfacet
  facet normal 0.997859 -0.0654064 0
    outer loop
      vertex 4.4615 -0.587367 1.2
      vertex 4.5 0 0
      vertex 4.5 0 1.2
    endloop
  endfacet
  facet normal 0.997859 -0.0654064 0
    outer loop
      vertex 4.5 0 0
      vertex 4.4615 -0.587367 1.2
      vertex 4.4615 -0.587367 0
    endloop
  endfacet
  facet normal 0.442294 0.89687 -0
    outer loop
      vertex 2.25 3.89711 0
      vertex 1.72207 4.15746 1.2
      vertex 2.25 3.89711 1.2
    endloop
  endfacet
  facet normal 0.442294 0.89687 0
    outer loop
      vertex 1.72207 4.15746 1.2
      vertex 2.25 3.89711 0
      vertex 1.72207 4.15746 0
    endloop
  endfacet
  facet normal -0.980787 -0.195079 0
    outer loop
      vertex -4.34667 -1.16469 0
      vertex -4.4615 -0.587367 1.2
      vertex -4.4615 -0.587367 0
    endloop
  endfacet
  facet normal -0.980787 -0.195079 0
    outer loop
      vertex -4.4615 -0.587367 1.2
      vertex -4.34667 -1.16469 0
      vertex -4.34667 -1.16469 1.2
    endloop
  endfacet
  facet normal 0.751836 0.65935 0
    outer loop
      vertex 3.57009 2.73943 1.2
      vertex 3.18198 3.18198 0
      vertex 3.18198 3.18198 1.2
    endloop
  endfacet
  facet normal 0.751836 0.65935 0
    outer loop
      vertex 3.18198 3.18198 0
      vertex 3.57009 2.73943 1.2
      vertex 3.57009 2.73943 0
    endloop
  endfacet
  facet normal 0.831475 0.555562 0
    outer loop
      vertex 3.89711 2.25 1.2
      vertex 3.57009 2.73943 0
      vertex 3.57009 2.73943 1.2
    endloop
  endfacet
  facet normal 0.831475 0.555562 0
    outer loop
      vertex 3.57009 2.73943 0
      vertex 3.89711 2.25 1.2
      vertex 3.89711 2.25 0
    endloop
  endfacet
  facet normal 0.555562 0.831475 -0
    outer loop
      vertex 2.73943 3.57009 0
      vertex 2.25 3.89711 1.2
      vertex 2.73943 3.57009 1.2
    endloop
  endfacet
  facet normal 0.555562 0.831475 0
    outer loop
      vertex 2.25 3.89711 1.2
      vertex 2.73943 3.57009 0
      vertex 2.25 3.89711 0
    endloop
  endfacet
  facet normal 0.65935 -0.751836 0
    outer loop
      vertex 2.73943 -3.57009 0
      vertex 3.18198 -3.18198 1.2
      vertex 2.73943 -3.57009 1.2
    endloop
  endfacet
  facet normal 0.65935 -0.751836 0
    outer loop
      vertex 3.18198 -3.18198 1.2
      vertex 2.73943 -3.57009 0
      vertex 3.18198 -3.18198 0
    endloop
  endfacet
  facet normal -0.321447 -0.946928 0
    outer loop
      vertex -1.72207 -4.15746 0
      vertex -1.16469 -4.34667 1.2
      vertex -1.72207 -4.15746 1.2
    endloop
  endfacet
  facet normal -0.321447 -0.946928 -0
    outer loop
      vertex -1.16469 -4.34667 1.2
      vertex -1.72207 -4.15746 0
      vertex -1.16469 -4.34667 0
    endloop
  endfacet
  facet normal -0.442294 -0.89687 0
    outer loop
      vertex -2.25 -3.89711 0
      vertex -1.72207 -4.15746 1.2
      vertex -2.25 -3.89711 1.2
    endloop
  endfacet
  facet normal -0.442294 -0.89687 -0
    outer loop
      vertex -1.72207 -4.15746 1.2
      vertex -2.25 -3.89711 0
      vertex -1.72207 -4.15746 0
    endloop
  endfacet
  facet normal -0.997859 -0.0654064 0
    outer loop
      vertex -4.4615 -0.587367 0
      vertex -4.5 0 1.2
      vertex -4.5 0 0
    endloop
  endfacet
  facet normal -0.997859 -0.0654064 0
    outer loop
      vertex -4.5 0 1.2
      vertex -4.4615 -0.587367 0
      vertex -4.4615 -0.587367 1.2
    endloop
  endfacet
  facet normal -0.442294 0.89687 0
    outer loop
      vertex -1.72207 4.15746 0
      vertex -2.25 3.89711 1.2
      vertex -1.72207 4.15746 1.2
    endloop
  endfacet
  facet normal -0.442294 0.89687 0
    outer loop
      vertex -2.25 3.89711 1.2
      vertex -1.72207 4.15746 0
      vertex -2.25 3.89711 0
    endloop
  endfacet
  facet normal -0.0654064 0.997859 0
    outer loop
      vertex 0 4.5 0
      vertex -0.587367 4.4615 1.2
      vertex 0 4.5 1.2
    endloop
  endfacet
  facet normal -0.0654064 0.997859 0
    outer loop
      vertex -0.587367 4.4615 1.2
      vertex 0 4.5 0
      vertex -0.587367 4.4615 0
    endloop
  endfacet
  facet normal -0.980787 0.195079 0
    outer loop
      vertex -4.4615 0.587367 0
      vertex -4.34667 1.16469 1.2
      vertex -4.34667 1.16469 0
    endloop
  endfacet
  facet normal -0.980787 0.195079 0
    outer loop
      vertex -4.34667 1.16469 1.2
      vertex -4.4615 0.587367 0
      vertex -4.4615 0.587367 1.2
    endloop
  endfacet
  facet normal -0.831475 0.555562 0
    outer loop
      vertex -3.89711 2.25 0
      vertex -3.57009 2.73943 1.2
      vertex -3.57009 2.73943 0
    endloop
  endfacet
  facet normal -0.831475 0.555562 0
    outer loop
      vertex -3.57009 2.73943 1.2
      vertex -3.89711 2.25 0
      vertex -3.89711 2.25 1.2
    endloop
  endfacet
  facet normal 0 0 1
    outer loop
      vertex 2 0 1.2
      vertex 4.5 0 1.2
      vertex 4.4615 0.587367 1.2
    endloop
  endfacet
  facet normal 0 0 1
    outer loop
      vertex 1.98289 0.261052 1.2
      vertex 4.4615 0.587367 1.2
      vertex 4.34667 1.16469 1.2
    endloop
  endfacet
  facet normal 0 0 1
    outer loop
      vertex 4.5 0 1.2
      vertex 2 0 1.2
      vertex 4.4615 -0.587367 1.2
    endloop
  endfacet
  facet normal 0 0 1
    outer loop
      vertex 1.93185 0.517637 1.2
      vertex 4.34667 1.16469 1.2
      vertex 4.15746 1.72207 1.2
    endloop
  endfacet
  facet normal -0 0 1
    outer loop
      vertex 1.98289 -0.261052 1.2
      vertex 4.4615 -0.587367 1.2
      vertex 2 0 1.2
    endloop
  endfacet
  facet normal 0 0 1
    outer loop
      vertex 1.84776 0.765367 1.2
      vertex 4.15746 1.72207 1.2
      vertex 3.89711 2.25 1.2
    endloop
  endfacet
  facet normal 0 0 1
    outer loop
      vertex 4.4615 -0.587367 1.2
      vertex 1.98289 -0.261052 1.2
      vertex 4.34667 -1.16469 1.2
    endloop
  endfacet
  facet normal 0 0 1
    outer loop
      vertex 1.73205 1 1.2
      vertex 3.89711 2.25 1.2
      vertex 3.57009 2.73943 1.2
    endloop
  endfacet
  facet normal -0 0 1
    outer loop
      vertex 1.93185 -0.517637 1.2
      vertex 4.34667 -1.16469 1.2
      vertex 1.98289 -0.261052 1.2
    endloop
  endfacet
  facet normal 0 0 1
    outer loop
      vertex 1.58671 1.21752 1.2
      vertex 3.57009 2.73943 1.2
      vertex 3.18198 3.18198 1.2
    endloop
  endfacet
  facet normal 0 0 1
    outer loop
      vertex 4.34667 -1.16469 1.2
      vertex 1.93185 -0.517637 1.2
      vertex 4.15746 -1.72207 1.2
    endloop
  endfacet
  facet normal 0 0 1
    outer loop
      vertex 1.41421 1.41421 1.2
      vertex 3.18198 3.18198 1.2
      vertex 2.73943 3.57009 1.2
    endloop
  endfacet
  facet normal -0 0 1
    outer loop
      vertex 1.84776 -0.765367 1.2
      vertex 4.15746 -1.72207 1.2
      vertex 1.93185 -0.517637 1.2
    endloop
  endfacet
  facet normal 0 0 1
    outer loop
      vertex 1.21752 1.58671 1.2
      vertex 2.73943 3.57009 1.2
      vertex 2.25 3.89711 1.2
    endloop
  endfacet
  facet normal 0 0 1
    outer loop
      vertex 4.15746 -1.72207 1.2
      vertex 1.84776 -0.765367 1.2
      vertex 3.89711 -2.25 1.2
    endloop
  endfacet
  facet normal -0 0 1
    outer loop
      vertex 1.73205 -1 1.2
      vertex 3.89711 -2.25 1.2
      vertex 1.84776 -0.765367 1.2
    endloop
  endfacet
  facet normal 0 0 1
    outer loop
      vertex 4.4615 0.587367 1.2
      vertex 1.98289 0.261052 1.2
      vertex 2 0 1.2
    endloop
  endfacet
  facet normal 0 0 1
    outer loop
      vertex 4.34667 1.16469 1.2
      vertex 1.93185 0.517637 1.2
      vertex 1.98289 0.261052 1.2
    endloop
  endfacet
  facet normal 0 0 1
    outer loop
      vertex 4.15746 1.72207 1.2
      vertex 1.84776 0.765367 1.2
      vertex 1.93185 0.517637 1.2
    endloop
  endfacet
  facet normal 0 0 1
    outer loop
      vertex 3.89711 2.25 1.2
      vertex 1.73205 1 1.2
      vertex 1.84776 0.765367 1.2
    endloop
  endfacet
  facet normal 0 0 1
    outer loop
      vertex 1 1.73205 1.2
      vertex 2.25 3.89711 1.2
      vertex 1.72207 4.15746 1.2
    endloop
  endfacet
  facet normal 0 0 1
    outer loop
      vertex 3.57009 2.73943 1.2
      vertex 1.58671 1.21752 1.2
      vertex 1.73205 1 1.2
    endloop
  endfacet
  facet normal 0 0 1
    outer loop
      vertex 3.18198 3.18198 1.2
      vertex 1.41421 1.41421 1.2
      vertex 1.58671 1.21752 1.2
    endloop
  endfacet
  facet normal 0 0 1
    outer loop
      vertex 2.73943 3.57009 1.2
      vertex 1.21752 1.58671 1.2
      vertex 1.41421 1.41421 1.2
    endloop
  endfacet
  facet normal 0 0 1
    outer loop
      vertex 0.765367 1.84776 1.2
      vertex 1.72207 4.15746 1.2
      vertex 1.16469 4.34667 1.2
    endloop
  endfacet
  facet normal 0 0 1
    outer loop
      vertex 2.25 3.89711 1.2
      vertex 1 1.73205 1.2
      vertex 1.21752 1.58671 1.2
    endloop
  endfacet
  facet normal 0 0 1
    outer loop
      vertex 1.72207 4.15746 1.2
      vertex 0.765367 1.84776 1.2
      vertex 1 1.73205 1.2
    endloop
  endfacet
  facet normal 0 0 1
    outer loop
      vertex 0.517637 1.93185 1.2
      vertex 1.16469 4.34667 1.2
      vertex 0.587367 4.4615 1.2
    endloop
  endfacet
  facet normal 0 0 1
    outer loop
      vertex 1.16469 4.34667 1.2
      vertex 0.517637 1.93185 1.2
      vertex 0.765367 1.84776 1.2
    endloop
  endfacet
  facet normal 0 0 1
    outer loop
      vertex 0.587367 4.4615 1.2
      vertex 0.261052 1.98289 1.2
      vertex 0.517637 1.93185 1.2
    endloop
  endfacet
  facet normal 0 0 1
    outer loop
      vertex 0 4.5 1.2
      vertex 0.261052 1.98289 1.2
      vertex 0.587367 4.4615 1.2
    endloop
  endfacet
  facet normal 0 0 1
    outer loop
      vertex 0 4.5 1.2
      vertex 0 2 1.2
      vertex 0.261052 1.98289 1.2
    endloop
  endfacet
  facet normal 0 0 1
    outer loop
      vertex 0 4.5 1.2
      vertex -0.261052 1.98289 1.2
      vertex 0 2 1.2
    endloop
  endfacet
  facet normal -0 0 1
    outer loop
      vertex -0.587367 4.4615 1.2
      vertex -0.261052 1.98289 1.2
      vertex 0 4.5 1.2
    endloop
  endfacet
  facet normal 0 0 1
    outer loop
      vertex -0.261052 1.98289 1.2
      vertex -0.587367 4.4615 1.2
      vertex -0.517637 1.93185 1.2
    endloop
  endfacet
  facet normal -0 0 1
    outer loop
      vertex -1.16469 4.34667 1.2
      vertex -0.517637 1.93185 1.2
      vertex -0.587367 4.4615 1.2
    endloop
  endfacet
  facet normal 0 0 1
    outer loop
      vertex -0.517637 1.93185 1.2
      vertex -1.16469 4.34667 1.2
      vertex -0.765367 1.84776 1.2
    endloop
  endfacet
  facet normal -0 0 1
    outer loop
      vertex -1.72207 4.15746 1.2
      vertex -0.765367 1.84776 1.2
      vertex -1.16469 4.34667 1.2
    endloop
  endfacet
  facet normal 0 0 1
    outer loop
      vertex -0.765367 1.84776 1.2
      vertex -1.72207 4.15746 1.2
      vertex -1 1.73205 1.2
    endloop
  endfacet
  facet normal -0 0 1
    outer loop
      vertex -2.25 3.89711 1.2
      vertex -1 1.73205 1.2
      vertex -1.72207 4.15746 1.2
    endloop
  endfacet
  facet normal 0 0 1
    outer loop
      vertex -1 1.73205 1.2
      vertex -2.25 3.89711 1.2
      vertex -1.21752 1.58671 1.2
    endloop
  endfacet
  facet normal -0 0 1
    outer loop
      vertex -2.73943 3.57009 1.2
      vertex -1.21752 1.58671 1.2
      vertex -2.25 3.89711 1.2
    endloop
  endfacet
  facet normal 0 0 1
    outer loop
      vertex -1.21752 1.58671 1.2
      vertex -2.73943 3.57009 1.2
      vertex -1.41421 1.41421 1.2
    endloop
  endfacet
  facet normal -0 0 1
    outer loop
      vertex -3.18198 3.18198 1.2
      vertex -1.41421 1.41421 1.2
      vertex -2.73943 3.57009 1.2
    endloop
  endfacet
  facet normal 0 0 1
    outer loop
      vertex -1.41421 1.41421 1.2
      vertex -3.18198 3.18198 1.2
      vertex -1.58671 1.21752 1.2
    endloop
  endfacet
  facet normal -0 0 1
    outer loop
      vertex -3.57009 2.73943 1.2
      vertex -1.58671 1.21752 1.2
      vertex -3.18198 3.18198 1.2
    endloop
  endfacet
  facet normal -0 0 1
    outer loop
      vertex -3.89711 2.25 1.2
      vertex -1.73205 1 1.2
      vertex -3.57009 2.73943 1.2
    endloop
  endfacet
  facet normal 0 0 1
    outer loop
      vertex -1.58671 1.21752 1.2
      vertex -3.57009 2.73943 1.2
      vertex -1.73205 1 1.2
    endloop
  endfacet
  facet normal 0 0 1
    outer loop
      vertex 3.89711 -2.25 1.2
      vertex 1.73205 -1 1.2
      vertex 3.57009 -2.73943 1.2
    endloop
  endfacet
  facet normal -0 0 1
    outer loop
      vertex 1.58671 -1.21752 1.2
      vertex 3.57009 -2.73943 1.2
      vertex 1.73205 -1 1.2
    endloop
  endfacet
  facet normal 0 0 1
    outer loop
      vertex 3.57009 -2.73943 1.2
      vertex 1.58671 -1.21752 1.2
      vertex 3.18198 -3.18198 1.2
    endloop
  endfacet
  facet normal -0 0 1
    outer loop
      vertex 1.41421 -1.41421 1.2
      vertex 3.18198 -3.18198 1.2
      vertex 1.58671 -1.21752 1.2
    endloop
  endfacet
  facet normal 0 0 1
    outer loop
      vertex 3.18198 -3.18198 1.2
      vertex 1.41421 -1.41421 1.2
      vertex 2.73943 -3.57009 1.2
    endloop
  endfacet
  facet normal -0 0 1
    outer loop
      vertex 1.21752 -1.58671 1.2
      vertex 2.73943 -3.57009 1.2
      vertex 1.41421 -1.41421 1.2
    endloop
  endfacet
  facet normal 0 0 1
    outer loop
      vertex 2.73943 -3.57009 1.2
      vertex 1.21752 -1.58671 1.2
      vertex 2.25 -3.89711 1.2
    endloop
  endfacet
  facet normal -0 0 1
    outer loop
      vertex 1 -1.73205 1.2
      vertex 2.25 -3.89711 1.2
      vertex 1.21752 -1.58671 1.2
    endloop
  endfacet
  facet normal 0 0 1
    outer loop
      vertex 2.25 -3.89711 1.2
      vertex 1 -1.73205 1.2
      vertex 1.72207 -4.15746 1.2
    endloop
  endfacet
  facet normal -0 0 1
    outer loop
      vertex 0.765367 -1.84776 1.2
      vertex 1.72207 -4.15746 1.2
      vertex 1 -1.73205 1.2
    endloop
  endfacet
  facet normal 0 0 1
    outer loop
      vertex 1.72207 -4.15746 1.2
      vertex 0.765367 -1.84776 1.2
      vertex 1.16469 -4.34667 1.2
    endloop
  endfacet
  facet normal -0 0 1
    outer loop
      vertex 0.517637 -1.93185 1.2
      vertex 1.16469 -4.34667 1.2
      vertex 0.765367 -1.84776 1.2
    endloop
  endfacet
  facet normal 0 0 1
    outer loop
      vertex 1.16469 -4.34667 1.2
      vertex 0.517637 -1.93185 1.2
      vertex 0.587367 -4.4615 1.2
    endloop
  endfacet
  facet normal -0 0 1
    outer loop
      vertex 0.261052 -1.98289 1.2
      vertex 0.587367 -4.4615 1.2
      vertex 0.517637 -1.93185 1.2
    endloop
  endfacet
  facet normal -0 0 1
    outer loop
      vertex 0 -2 1.2
      vertex 0.587367 -4.4615 1.2
      vertex 0.261052 -1.98289 1.2
    endloop
  endfacet
  facet normal 0 0 1
    outer loop
      vertex 0 -2 1.2
      vertex 0 -4.5 1.2
      vertex 0.587367 -4.4615 1.2
    endloop
  endfacet
  facet normal 0 0 1
    outer loop
      vertex -0.261052 -1.98289 1.2
      vertex 0 -4.5 1.2
      vertex 0 -2 1.2
    endloop
  endfacet
  facet normal 0 0 1
    outer loop
      vertex -0.587367 -4.4615 1.2
      vertex -0.261052 -1.98289 1.2
      vertex -0.517637 -1.93185 1.2
    endloop
  endfacet
  facet normal 0 0 1
    outer loop
      vertex -0.261052 -1.98289 1.2
      vertex -0.587367 -4.4615 1.2
      vertex 0 -4.5 1.2
    endloop
  endfacet
  facet normal 0 0 1
    outer loop
      vertex -1.16469 -4.34667 1.2
      vertex -0.517637 -1.93185 1.2
      vertex -0.765367 -1.84776 1.2
    endloop
  endfacet
  facet normal 0 0 1
    outer loop
      vertex -1.72207 -4.15746 1.2
      vertex -0.765367 -1.84776 1.2
      vertex -1 -1.73205 1.2
    endloop
  endfacet
  facet normal 0 0 1
    outer loop
      vertex -0.517637 -1.93185 1.2
      vertex -1.16469 -4.34667 1.2
      vertex -0.587367 -4.4615 1.2
    endloop
  endfacet
  facet normal 0 0 1
    outer loop
      vertex -2.25 -3.89711 1.2
      vertex -1 -1.73205 1.2
      vertex -1.21752 -1.58671 1.2
    endloop
  endfacet
  facet normal 0 0 1
    outer loop
      vertex -2.73943 -3.57009 1.2
      vertex -1.21752 -1.58671 1.2
      vertex -1.41421 -1.41421 1.2
    endloop
  endfacet
  facet normal 0 0 1
    outer loop
      vertex -3.18198 -3.18198 1.2
      vertex -1.41421 -1.41421 1.2
      vertex -1.58671 -1.21752 1.2
    endloop
  endfacet
  facet normal 0 0 1
    outer loop
      vertex -0.765367 -1.84776 1.2
      vertex -1.72207 -4.15746 1.2
      vertex -1.16469 -4.34667 1.2
    endloop
  endfacet
  facet normal 0 0 1
    outer loop
      vertex -3.57009 -2.73943 1.2
      vertex -1.58671 -1.21752 1.2
      vertex -1.73205 -1 1.2
    endloop
  endfacet
  facet normal 0 0 1
    outer loop
      vertex -3.89711 -2.25 1.2
      vertex -1.73205 -1 1.2
      vertex -1.84776 -0.765367 1.2
    endloop
  endfacet
  facet normal 0 0 1
    outer loop
      vertex -4.15746 -1.72207 1.2
      vertex -1.84776 -0.765367 1.2
      vertex -1.93185 -0.517637 1.2
    endloop
  endfacet
  facet normal 0 0 1
    outer loop
      vertex -4.34667 -1.16469 1.2
      vertex -1.93185 -0.517637 1.2
      vertex -1.98289 -0.261052 1.2
    endloop
  endfacet
  facet normal 0 0 1
    outer loop
      vertex -1 -1.73205 1.2
      vertex -2.25 -3.89711 1.2
      vertex -1.72207 -4.15746 1.2
    endloop
  endfacet
  facet normal 0 0 1
    outer loop
      vertex -4.4615 -0.587367 1.2
      vertex -1.98289 -0.261052 1.2
      vertex -2 0 1.2
    endloop
  endfacet
  facet normal 0 0 1
    outer loop
      vertex -1.73205 1 1.2
      vertex -3.89711 2.25 1.2
      vertex -1.84776 0.765367 1.2
    endloop
  endfacet
  facet normal -0 0 1
    outer loop
      vertex -4.15746 1.72207 1.2
      vertex -1.84776 0.765367 1.2
      vertex -3.89711 2.25 1.2
    endloop
  endfacet
  facet normal 0 0 1
    outer loop
      vertex -1.21752 -1.58671 1.2
      vertex -2.73943 -3.57009 1.2
      vertex -2.25 -3.89711 1.2
    endloop
  endfacet
  facet normal 0 0 1
    outer loop
      vertex -1.84776 0.765367 1.2
      vertex -4.15746 1.72207 1.2
      vertex -1.93185 0.517637 1.2
    endloop
  endfacet
  facet normal 0 0 1
    outer loop
      vertex -1.41421 -1.41421 1.2
      vertex -3.18198 -3.18198 1.2
      vertex -2.73943 -3.57009 1.2
    endloop
  endfacet
  facet normal -0 0 1
    outer loop
      vertex -4.34667 1.16469 1.2
      vertex -1.93185 0.517637 1.2
      vertex -4.15746 1.72207 1.2
    endloop
  endfacet
  facet normal 0 0 1
    outer loop
      vertex -1.58671 -1.21752 1.2
      vertex -3.57009 -2.73943 1.2
      vertex -3.18198 -3.18198 1.2
    endloop
  endfacet
  facet normal 0 0 1
    outer loop
      vertex -1.93185 0.517637 1.2
      vertex -4.34667 1.16469 1.2
      vertex -1.98289 0.261052 1.2
    endloop
  endfacet
  facet normal 0 0 1
    outer loop
      vertex -1.73205 -1 1.2
      vertex -3.89711 -2.25 1.2
      vertex -3.57009 -2.73943 1.2
    endloop
  endfacet
  facet normal -0 0 1
    outer loop
      vertex -4.4615 0.587367 1.2
      vertex -1.98289 0.261052 1.2
      vertex -4.34667 1.16469 1.2
    endloop
  endfacet
  facet normal 0 0 1
    outer loop
      vertex -1.84776 -0.765367 1.2
      vertex -4.15746 -1.72207 1.2
      vertex -3.89711 -2.25 1.2
    endloop
  endfacet
  facet normal 0 0 1
    outer loop
      vertex -1.98289 0.261052 1.2
      vertex -4.4615 0.587367 1.2
      vertex -2 0 1.2
    endloop
  endfacet
  facet normal 0 0 1
    outer loop
      vertex -1.93185 -0.517637 1.2
      vertex -4.34667 -1.16469 1.2
      vertex -4.15746 -1.72207 1.2
    endloop
  endfacet
  facet normal 0 0 1
    outer loop
      vertex -4.5 0 1.2
      vertex -2 0 1.2
      vertex -4.4615 0.587367 1.2
    endloop
  endfacet
  facet normal 0 0 1
    outer loop
      vertex -1.98289 -0.261052 1.2
      vertex -4.4615 -0.587367 1.2
      vertex -4.34667 -1.16469 1.2
    endloop
  endfacet
  facet normal 0 0 1
    outer loop
      vertex -2 0 1.2
      vertex -4.5 0 1.2
      vertex -4.4615 -0.587367 1.2
    endloop
  endfacet
  facet normal 0.195079 0.980787 -0
    outer loop
      vertex 1.16469 4.34667 0
      vertex 0.587367 4.4615 1.2
      vertex 1.16469 4.34667 1.2
    endloop
  endfacet
  facet normal 0.195079 0.980787 0
    outer loop
      vertex 0.587367 4.4615 1.2
      vertex 1.16469 4.34667 0
      vertex 0.587367 4.4615 0
    endloop
  endfacet
  facet normal 0.321447 0.946928 -0
    outer loop
      vertex 1.72207 4.15746 0
      vertex 1.16469 4.34667 1.2
      vertex 1.72207 4.15746 1.2
    endloop
  endfacet
  facet normal 0.321447 0.946928 0
    outer loop
      vertex 1.16469 4.34667 1.2
      vertex 1.72207 4.15746 0
      vertex 1.16469 4.34667 0
    endloop
  endfacet
  facet normal -0.555562 0.831475 0
    outer loop
      vertex -2.25 3.89711 0
      vertex -2.73943 3.57009 1.2
      vertex -2.25 3.89711 1.2
    endloop
  endfacet
  facet normal -0.555562 0.831475 0
    outer loop
      vertex -2.73943 3.57009 1.2
      vertex -2.25 3.89711 0
      vertex -2.73943 3.57009 0
    endloop
  endfacet
  facet normal 0.980787 -0.195079 0
    outer loop
      vertex 4.34667 -1.16469 1.2
      vertex 4.4615 -0.587367 0
      vertex 4.4615 -0.587367 1.2
    endloop
  endfacet
  facet normal 0.980787 -0.195079 0
    outer loop
      vertex 4.4615 -0.587367 0
      vertex 4.34667 -1.16469 1.2
      vertex 4.34667 -1.16469 0
    endloop
  endfacet
  facet normal 0.0654064 0.997859 -0
    outer loop
      vertex 0.587367 4.4615 0
      vertex 0 4.5 1.2
      vertex 0.587367 4.4615 1.2
    endloop
  endfacet
  facet normal 0.0654064 0.997859 0
    outer loop
      vertex 0 4.5 1.2
      vertex 0.587367 4.4615 0
      vertex 0 4.5 0
    endloop
  endfacet
  facet normal -0.65935 -0.751836 0
    outer loop
      vertex -3.18198 -3.18198 0
      vertex -2.73943 -3.57009 1.2
      vertex -3.18198 -3.18198 1.2
    endloop
  endfacet
  facet normal -0.65935 -0.751836 -0
    outer loop
      vertex -2.73943 -3.57009 1.2
      vertex -3.18198 -3.18198 0
      vertex -2.73943 -3.57009 0
    endloop
  endfacet
  facet normal -0.89687 -0.442294 0
    outer loop
      vertex -3.89711 -2.25 0
      vertex -4.15746 -1.72207 1.2
      vertex -4.15746 -1.72207 0
    endloop
  endfacet
  facet normal -0.89687 -0.442294 0
    outer loop
      vertex -4.15746 -1.72207 1.2
      vertex -3.89711 -2.25 0
      vertex -3.89711 -2.25 1.2
    endloop
  endfacet
  facet normal 0.0654064 -0.997859 0
    outer loop
      vertex 0 -4.5 0
      vertex 0.587367 -4.4615 1.2
      vertex 0 -4.5 1.2
    endloop
  endfacet
  facet normal 0.0654064 -0.997859 0
    outer loop
      vertex 0.587367 -4.4615 1.2
      vertex 0 -4.5 0
      vertex 0.587367 -4.4615 0
    endloop
  endfacet
  facet normal 0.946928 0.321447 0
    outer loop
      vertex 4.34667 1.16469 1.2
      vertex 4.15746 1.72207 0
      vertex 4.15746 1.72207 1.2
    endloop
  endfacet
  facet normal 0.946928 0.321447 0
    outer loop
      vertex 4.15746 1.72207 0
      vertex 4.34667 1.16469 1.2
      vertex 4.34667 1.16469 0
    endloop
  endfacet
  facet normal -0.946928 0.321447 0
    outer loop
      vertex -4.34667 1.16469 0
      vertex -4.15746 1.72207 1.2
      vertex -4.15746 1.72207 0
    endloop
  endfacet
  facet normal -0.946928 0.321447 0
    outer loop
      vertex -4.15746 1.72207 1.2
      vertex -4.34667 1.16469 0
      vertex -4.34667 1.16469 1.2
    endloop
  endfacet
  facet normal 0.831475 -0.555562 0
    outer loop
      vertex 3.57009 -2.73943 1.2
      vertex 3.89711 -2.25 0
      vertex 3.89711 -2.25 1.2
    endloop
  endfacet
  facet normal 0.831475 -0.555562 0
    outer loop
      vertex 3.89711 -2.25 0
      vertex 3.57009 -2.73943 1.2
      vertex 3.57009 -2.73943 0
    endloop
  endfacet
  facet normal 0.195079 -0.980787 0
    outer loop
      vertex 0.587367 -4.4615 0
      vertex 1.16469 -4.34667 1.2
      vertex 0.587367 -4.4615 1.2
    endloop
  endfacet
  facet normal 0.195079 -0.980787 0
    outer loop
      vertex 1.16469 -4.34667 1.2
      vertex 0.587367 -4.4615 0
      vertex 1.16469 -4.34667 0
    endloop
  endfacet
  facet normal -0.831475 -0.555562 0
    outer loop
      vertex -3.57009 -2.73943 0
      vertex -3.89711 -2.25 1.2
      vertex -3.89711 -2.25 0
    endloop
  endfacet
  facet normal -0.831475 -0.555562 0
    outer loop
      vertex -3.89711 -2.25 1.2
      vertex -3.57009 -2.73943 0
      vertex -3.57009 -2.73943 1.2
    endloop
  endfacet
  facet normal -0.751836 -0.65935 0
    outer loop
      vertex -3.18198 -3.18198 0
      vertex -3.57009 -2.73943 1.2
      vertex -3.57009 -2.73943 0
    endloop
  endfacet
  facet normal -0.751836 -0.65935 0
    outer loop
      vertex -3.57009 -2.73943 1.2
      vertex -3.18198 -3.18198 0
      vertex -3.18198 -3.18198 1.2
    endloop
  endfacet
  facet normal -0.195079 0.980787 0
    outer loop
      vertex -0.587367 4.4615 0
      vertex -1.16469 4.34667 1.2
      vertex -0.587367 4.4615 1.2
    endloop
  endfacet
  facet normal -0.195079 0.980787 0
    outer loop
      vertex -1.16469 4.34667 1.2
      vertex -0.587367 4.4615 0
      vertex -1.16469 4.34667 0
    endloop
  endfacet
  facet normal -0.555562 -0.831475 0
    outer loop
      vertex -2.73943 -3.57009 0
      vertex -2.25 -3.89711 1.2
      vertex -2.73943 -3.57009 1.2
    endloop
  endfacet
  facet normal -0.555562 -0.831475 -0
    outer loop
      vertex -2.25 -3.89711 1.2
      vertex -2.73943 -3.57009 0
      vertex -2.25 -3.89711 0
    endloop
  endfacet
  facet normal -0.195079 -0.980787 0
    outer loop
      vertex -1.16469 -4.34667 0
      vertex -0.587367 -4.4615 1.2
      vertex -1.16469 -4.34667 1.2
    endloop
  endfacet
  facet normal -0.195079 -0.980787 -0
    outer loop
      vertex -0.587367 -4.4615 1.2
      vertex -1.16469 -4.34667 0
      vertex -0.587367 -4.4615 0
    endloop
  endfacet
  facet normal 0.555562 -0.831475 0
    outer loop
      vertex 2.25 -3.89711 0
      vertex 2.73943 -3.57009 1.2
      vertex 2.25 -3.89711 1.2
    endloop
  endfacet
  facet normal 0.555562 -0.831475 0
    outer loop
      vertex 2.73943 -3.57009 1.2
      vertex 2.25 -3.89711 0
      vertex 2.73943 -3.57009 0
    endloop
  endfacet
  facet normal 0.980784 0.195098 0
    outer loop
      vertex 1.98289 0.261052 3.4
      vertex 1.93185 0.517637 1.2
      vertex 1.93185 0.517637 3.4
    endloop
  endfacet
  facet normal 0.980784 0.195098 0
    outer loop
      vertex 1.93185 0.517637 1.2
      vertex 1.98289 0.261052 3.4
      vertex 1.98289 0.261052 1.2
    endloop
  endfacet
  facet normal 0.997859 0.0654022 0
    outer loop
      vertex 2 0 3.4
      vertex 1.98289 0.261052 1.2
      vertex 1.98289 0.261052 3.4
    endloop
  endfacet
  facet normal 0.997859 0.0654022 0
    outer loop
      vertex 1.98289 0.261052 1.2
      vertex 2 0 3.4
      vertex 2 0 1.2
    endloop
  endfacet
  facet normal 0.0654022 0.997859 -0
    outer loop
      vertex 0.261052 1.98289 1.2
      vertex 0 2 3.4
      vertex 0.261052 1.98289 3.4
    endloop
  endfacet
  facet normal 0.0654022 0.997859 0
    outer loop
      vertex 0 2 3.4
      vertex 0.261052 1.98289 1.2
      vertex 0 2 1.2
    endloop
  endfacet
  facet normal -0.195098 0.980784 0
    outer loop
      vertex -0.261052 1.98289 1.2
      vertex -0.517637 1.93185 3.4
      vertex -0.261052 1.98289 3.4
    endloop
  endfacet
  facet normal -0.195098 0.980784 0
    outer loop
      vertex -0.517637 1.93185 3.4
      vertex -0.261052 1.98289 1.2
      vertex -0.517637 1.93185 1.2
    endloop
  endfacet
  facet normal 0.555564 -0.831474 0
    outer loop
      vertex 1 -1.73205 1.2
      vertex 1.21752 -1.58671 3.4
      vertex 1 -1.73205 3.4
    endloop
  endfacet
  facet normal 0.555564 -0.831474 0
    outer loop
      vertex 1.21752 -1.58671 3.4
      vertex 1 -1.73205 1.2
      vertex 1.21752 -1.58671 1.2
    endloop
  endfacet
  facet normal -0.89687 0.442294 0
    outer loop
      vertex -1.84776 0.765367 1.2
      vertex -1.73205 1 3.4
      vertex -1.73205 1 1.2
    endloop
  endfacet
  facet normal -0.89687 0.442294 0
    outer loop
      vertex -1.73205 1 3.4
      vertex -1.84776 0.765367 1.2
      vertex -1.84776 0.765367 3.4
    endloop
  endfacet
  facet normal -0.946934 0.321429 0
    outer loop
      vertex -1.93185 0.517637 1.2
      vertex -1.84776 0.765367 3.4
      vertex -1.84776 0.765367 1.2
    endloop
  endfacet
  facet normal -0.946934 0.321429 0
    outer loop
      vertex -1.84776 0.765367 3.4
      vertex -1.93185 0.517637 1.2
      vertex -1.93185 0.517637 3.4
    endloop
  endfacet
  facet normal -0.321429 0.946934 0
    outer loop
      vertex -0.517637 1.93185 1.2
      vertex -0.765367 1.84776 3.4
      vertex -0.517637 1.93185 3.4
    endloop
  endfacet
  facet normal -0.321429 0.946934 0
    outer loop
      vertex -0.765367 1.84776 3.4
      vertex -0.517637 1.93185 1.2
      vertex -0.765367 1.84776 1.2
    endloop
  endfacet
  facet normal 0.997859 -0.0654022 0
    outer loop
      vertex 1.98289 -0.261052 3.4
      vertex 2 0 1.2
      vertex 2 0 3.4
    endloop
  endfacet
  facet normal 0.997859 -0.0654022 0
    outer loop
      vertex 2 0 1.2
      vertex 1.98289 -0.261052 3.4
      vertex 1.98289 -0.261052 1.2
    endloop
  endfacet
  facet normal -0.946934 -0.321429 0
    outer loop
      vertex -1.84776 -0.765367 1.2
      vertex -1.93185 -0.517637 3.4
      vertex -1.93185 -0.517637 1.2
    endloop
  endfacet
  facet normal -0.946934 -0.321429 0
    outer loop
      vertex -1.93185 -0.517637 3.4
      vertex -1.84776 -0.765367 1.2
      vertex -1.84776 -0.765367 3.4
    endloop
  endfacet
  facet normal -0.831474 0.555564 0
    outer loop
      vertex -1.73205 1 1.2
      vertex -1.58671 1.21752 3.4
      vertex -1.58671 1.21752 1.2
    endloop
  endfacet
  facet normal -0.831474 0.555564 0
    outer loop
      vertex -1.58671 1.21752 3.4
      vertex -1.73205 1 1.2
      vertex -1.73205 1 3.4
    endloop
  endfacet
  facet normal -0.980784 0.195098 0
    outer loop
      vertex -1.98289 0.261052 1.2
      vertex -1.93185 0.517637 3.4
      vertex -1.93185 0.517637 1.2
    endloop
  endfacet
  facet normal -0.980784 0.195098 0
    outer loop
      vertex -1.93185 0.517637 3.4
      vertex -1.98289 0.261052 1.2
      vertex -1.98289 0.261052 3.4
    endloop
  endfacet
  facet normal 0.946934 -0.321429 0
    outer loop
      vertex 1.84776 -0.765367 3.4
      vertex 1.93185 -0.517637 1.2
      vertex 1.93185 -0.517637 3.4
    endloop
  endfacet
  facet normal 0.946934 -0.321429 0
    outer loop
      vertex 1.93185 -0.517637 1.2
      vertex 1.84776 -0.765367 3.4
      vertex 1.84776 -0.765367 1.2
    endloop
  endfacet
  facet normal 0.659362 -0.751826 0
    outer loop
      vertex 1.21752 -1.58671 1.2
      vertex 1.41421 -1.41421 3.4
      vertex 1.21752 -1.58671 3.4
    endloop
  endfacet
  facet normal 0.659362 -0.751826 0
    outer loop
      vertex 1.41421 -1.41421 3.4
      vertex 1.21752 -1.58671 1.2
      vertex 1.41421 -1.41421 1.2
    endloop
  endfacet
  facet normal 0.321429 0.946934 -0
    outer loop
      vertex 0.765367 1.84776 1.2
      vertex 0.517637 1.93185 3.4
      vertex 0.765367 1.84776 3.4
    endloop
  endfacet
  facet normal 0.321429 0.946934 0
    outer loop
      vertex 0.517637 1.93185 3.4
      vertex 0.765367 1.84776 1.2
      vertex 0.517637 1.93185 1.2
    endloop
  endfacet
  facet normal -0.751826 -0.659362 0
    outer loop
      vertex -1.41421 -1.41421 1.2
      vertex -1.58671 -1.21752 3.4
      vertex -1.58671 -1.21752 1.2
    endloop
  endfacet
  facet normal -0.751826 -0.659362 0
    outer loop
      vertex -1.58671 -1.21752 3.4
      vertex -1.41421 -1.41421 1.2
      vertex -1.41421 -1.41421 3.4
    endloop
  endfacet
  facet normal -0.659362 0.751826 0
    outer loop
      vertex -1.21752 1.58671 1.2
      vertex -1.41421 1.41421 3.4
      vertex -1.21752 1.58671 3.4
    endloop
  endfacet
  facet normal -0.659362 0.751826 0
    outer loop
      vertex -1.41421 1.41421 3.4
      vertex -1.21752 1.58671 1.2
      vertex -1.41421 1.41421 1.2
    endloop
  endfacet
  facet normal -0.997859 0.0654022 0
    outer loop
      vertex -2 0 1.2
      vertex -1.98289 0.261052 3.4
      vertex -1.98289 0.261052 1.2
    endloop
  endfacet
  facet normal -0.997859 0.0654022 0
    outer loop
      vertex -1.98289 0.261052 3.4
      vertex -2 0 1.2
      vertex -2 0 3.4
    endloop
  endfacet
  facet normal 0.555564 0.831474 -0
    outer loop
      vertex 1.21752 1.58671 1.2
      vertex 1 1.73205 3.4
      vertex 1.21752 1.58671 3.4
    endloop
  endfacet
  facet normal 0.555564 0.831474 0
    outer loop
      vertex 1 1.73205 3.4
      vertex 1.21752 1.58671 1.2
      vertex 1 1.73205 1.2
    endloop
  endfacet
  facet normal 0.831474 -0.555564 0
    outer loop
      vertex 1.58671 -1.21752 3.4
      vertex 1.73205 -1 1.2
      vertex 1.73205 -1 3.4
    endloop
  endfacet
  facet normal 0.831474 -0.555564 0
    outer loop
      vertex 1.73205 -1 1.2
      vertex 1.58671 -1.21752 3.4
      vertex 1.58671 -1.21752 1.2
    endloop
  endfacet
  facet normal 0.831474 0.555564 0
    outer loop
      vertex 1.73205 1 3.4
      vertex 1.58671 1.21752 1.2
      vertex 1.58671 1.21752 3.4
    endloop
  endfacet
  facet normal 0.831474 0.555564 0
    outer loop
      vertex 1.58671 1.21752 1.2
      vertex 1.73205 1 3.4
      vertex 1.73205 1 1.2
    endloop
  endfacet
  facet normal -0.751826 0.659362 0
    outer loop
      vertex -1.58671 1.21752 1.2
      vertex -1.41421 1.41421 3.4
      vertex -1.41421 1.41421 1.2
    endloop
  endfacet
  facet normal -0.751826 0.659362 0
    outer loop
      vertex -1.41421 1.41421 3.4
      vertex -1.58671 1.21752 1.2
      vertex -1.58671 1.21752 3.4
    endloop
  endfacet
  facet normal 0.321429 -0.946934 0
    outer loop
      vertex 0.517637 -1.93185 1.2
      vertex 0.765367 -1.84776 3.4
      vertex 0.517637 -1.93185 3.4
    endloop
  endfacet
  facet normal 0.321429 -0.946934 0
    outer loop
      vertex 0.765367 -1.84776 3.4
      vertex 0.517637 -1.93185 1.2
      vertex 0.765367 -1.84776 1.2
    endloop
  endfacet
  facet normal 0.751826 0.659362 0
    outer loop
      vertex 1.58671 1.21752 3.4
      vertex 1.41421 1.41421 1.2
      vertex 1.41421 1.41421 3.4
    endloop
  endfacet
  facet normal 0.751826 0.659362 0
    outer loop
      vertex 1.41421 1.41421 1.2
      vertex 1.58671 1.21752 3.4
      vertex 1.58671 1.21752 1.2
    endloop
  endfacet
  facet normal 0.0654022 -0.997859 0
    outer loop
      vertex 0 -2 1.2
      vertex 0.261052 -1.98289 3.4
      vertex 0 -2 3.4
    endloop
  endfacet
  facet normal 0.0654022 -0.997859 0
    outer loop
      vertex 0.261052 -1.98289 3.4
      vertex 0 -2 1.2
      vertex 0.261052 -1.98289 1.2
    endloop
  endfacet
  facet normal 0.659362 0.751826 -0
    outer loop
      vertex 1.41421 1.41421 1.2
      vertex 1.21752 1.58671 3.4
      vertex 1.41421 1.41421 3.4
    endloop
  endfacet
  facet normal 0.659362 0.751826 0
    outer loop
      vertex 1.21752 1.58671 3.4
      vertex 1.41421 1.41421 1.2
      vertex 1.21752 1.58671 1.2
    endloop
  endfacet
  facet normal -0.997859 -0.0654022 0
    outer loop
      vertex -1.98289 -0.261052 1.2
      vertex -2 0 3.4
      vertex -2 0 1.2
    endloop
  endfacet
  facet normal -0.997859 -0.0654022 0
    outer loop
      vertex -2 0 3.4
      vertex -1.98289 -0.261052 1.2
      vertex -1.98289 -0.261052 3.4
    endloop
  endfacet
  facet normal -0.659362 -0.751826 0
    outer loop
      vertex -1.41421 -1.41421 1.2
      vertex -1.21752 -1.58671 3.4
      vertex -1.41421 -1.41421 3.4
    endloop
  endfacet
  facet normal -0.659362 -0.751826 -0
    outer loop
      vertex -1.21752 -1.58671 3.4
      vertex -1.41421 -1.41421 1.2
      vertex -1.21752 -1.58671 1.2
    endloop
  endfacet
  facet normal -0.555564 0.831474 0
    outer loop
      vertex -1 1.73205 1.2
      vertex -1.21752 1.58671 3.4
      vertex -1 1.73205 3.4
    endloop
  endfacet
  facet normal -0.555564 0.831474 0
    outer loop
      vertex -1.21752 1.58671 3.4
      vertex -1 1.73205 1.2
      vertex -1.21752 1.58671 1.2
    endloop
  endfacet
  facet normal 0.89687 0.442294 0
    outer loop
      vertex 1.84776 0.765367 3.4
      vertex 1.73205 1 1.2
      vertex 1.73205 1 3.4
    endloop
  endfacet
  facet normal 0.89687 0.442294 0
    outer loop
      vertex 1.73205 1 1.2
      vertex 1.84776 0.765367 3.4
      vertex 1.84776 0.765367 1.2
    endloop
  endfacet
  facet normal -0.0654022 -0.997859 0
    outer loop
      vertex -0.261052 -1.98289 1.2
      vertex 0 -2 3.4
      vertex -0.261052 -1.98289 3.4
    endloop
  endfacet
  facet normal -0.0654022 -0.997859 -0
    outer loop
      vertex 0 -2 3.4
      vertex -0.261052 -1.98289 1.2
      vertex 0 -2 1.2
    endloop
  endfacet
  facet normal 0.195098 -0.980784 0
    outer loop
      vertex 0.261052 -1.98289 1.2
      vertex 0.517637 -1.93185 3.4
      vertex 0.261052 -1.98289 3.4
    endloop
  endfacet
  facet normal 0.195098 -0.980784 0
    outer loop
      vertex 0.517637 -1.93185 3.4
      vertex 0.261052 -1.98289 1.2
      vertex 0.517637 -1.93185 1.2
    endloop
  endfacet
  facet normal 0.442294 0.89687 -0
    outer loop
      vertex 1 1.73205 1.2
      vertex 0.765367 1.84776 3.4
      vertex 1 1.73205 3.4
    endloop
  endfacet
  facet normal 0.442294 0.89687 0
    outer loop
      vertex 0.765367 1.84776 3.4
      vertex 1 1.73205 1.2
      vertex 0.765367 1.84776 1.2
    endloop
  endfacet
  facet normal 0.89687 -0.442294 0
    outer loop
      vertex 1.73205 -1 3.4
      vertex 1.84776 -0.765367 1.2
      vertex 1.84776 -0.765367 3.4
    endloop
  endfacet
  facet normal 0.89687 -0.442294 0
    outer loop
      vertex 1.84776 -0.765367 1.2
      vertex 1.73205 -1 3.4
      vertex 1.73205 -1 1.2
    endloop
  endfacet
  facet normal 0.980784 -0.195098 0
    outer loop
      vertex 1.93185 -0.517637 3.4
      vertex 1.98289 -0.261052 1.2
      vertex 1.98289 -0.261052 3.4
    endloop
  endfacet
  facet normal 0.980784 -0.195098 0
    outer loop
      vertex 1.98289 -0.261052 1.2
      vertex 1.93185 -0.517637 3.4
      vertex 1.93185 -0.517637 1.2
    endloop
  endfacet
  facet normal -0.980784 -0.195098 0
    outer loop
      vertex -1.93185 -0.517637 1.2
      vertex -1.98289 -0.261052 3.4
      vertex -1.98289 -0.261052 1.2
    endloop
  endfacet
  facet normal -0.980784 -0.195098 0
    outer loop
      vertex -1.98289 -0.261052 3.4
      vertex -1.93185 -0.517637 1.2
      vertex -1.93185 -0.517637 3.4
    endloop
  endfacet
  facet normal -0.195098 -0.980784 0
    outer loop
      vertex -0.517637 -1.93185 1.2
      vertex -0.261052 -1.98289 3.4
      vertex -0.517637 -1.93185 3.4
    endloop
  endfacet
  facet normal -0.195098 -0.980784 -0
    outer loop
      vertex -0.261052 -1.98289 3.4
      vertex -0.517637 -1.93185 1.2
      vertex -0.261052 -1.98289 1.2
    endloop
  endfacet
  facet normal 0.195098 0.980784 -0
    outer loop
      vertex 0.517637 1.93185 1.2
      vertex 0.261052 1.98289 3.4
      vertex 0.517637 1.93185 3.4
    endloop
  endfacet
  facet normal 0.195098 0.980784 0
    outer loop
      vertex 0.261052 1.98289 3.4
      vertex 0.517637 1.93185 1.2
      vertex 0.261052 1.98289 1.2
    endloop
  endfacet
  facet normal 0.946934 0.321429 0
    outer loop
      vertex 1.93185 0.517637 3.4
      vertex 1.84776 0.765367 1.2
      vertex 1.84776 0.765367 3.4
    endloop
  endfacet
  facet normal 0.946934 0.321429 0
    outer loop
      vertex 1.84776 0.765367 1.2
      vertex 1.93185 0.517637 3.4
      vertex 1.93185 0.517637 1.2
    endloop
  endfacet
  facet normal 0.442294 -0.89687 0
    outer loop
      vertex 0.765367 -1.84776 1.2
      vertex 1 -1.73205 3.4
      vertex 0.765367 -1.84776 3.4
    endloop
  endfacet
  facet normal 0.442294 -0.89687 0
    outer loop
      vertex 1 -1.73205 3.4
      vertex 0.765367 -1.84776 1.2
      vertex 1 -1.73205 1.2
    endloop
  endfacet
  facet normal 0.751826 -0.659362 0
    outer loop
      vertex 1.41421 -1.41421 3.4
      vertex 1.58671 -1.21752 1.2
      vertex 1.58671 -1.21752 3.4
    endloop
  endfacet
  facet normal 0.751826 -0.659362 0
    outer loop
      vertex 1.58671 -1.21752 1.2
      vertex 1.41421 -1.41421 3.4
      vertex 1.41421 -1.41421 1.2
    endloop
  endfacet
  facet normal -0.831474 -0.555564 0
    outer loop
      vertex -1.58671 -1.21752 1.2
      vertex -1.73205 -1 3.4
      vertex -1.73205 -1 1.2
    endloop
  endfacet
  facet normal -0.831474 -0.555564 0
    outer loop
      vertex -1.73205 -1 3.4
      vertex -1.58671 -1.21752 1.2
      vertex -1.58671 -1.21752 3.4
    endloop
  endfacet
  facet normal -0.0654022 0.997859 0
    outer loop
      vertex 0 2 1.2
      vertex -0.261052 1.98289 3.4
      vertex 0 2 3.4
    endloop
  endfacet
  facet normal -0.0654022 0.997859 0
    outer loop
      vertex -0.261052 1.98289 3.4
      vertex 0 2 1.2
      vertex -0.261052 1.98289 1.2
    endloop
  endfacet
  facet normal -0.321429 -0.946934 0
    outer loop
      vertex -0.765367 -1.84776 1.2
      vertex -0.517637 -1.93185 3.4
      vertex -0.765367 -1.84776 3.4
    endloop
  endfacet
  facet normal -0.321429 -0.946934 -0
    outer loop
      vertex -0.517637 -1.93185 3.4
      vertex -0.765367 -1.84776 1.2
      vertex -0.517637 -1.93185 1.2
    endloop
  endfacet
  facet normal -0.442294 0.89687 0
    outer loop
      vertex -0.765367 1.84776 1.2
      vertex -1 1.73205 3.4
      vertex -0.765367 1.84776 3.4
    endloop
  endfacet
  facet normal -0.442294 0.89687 0
    outer loop
      vertex -1 1.73205 3.4
      vertex -0.765367 1.84776 1.2
      vertex -1 1.73205 1.2
    endloop
  endfacet
  facet normal -0.442294 -0.89687 0
    outer loop
      vertex -1 -1.73205 1.2
      vertex -0.765367 -1.84776 3.4
      vertex -1 -1.73205 3.4
    endloop
  endfacet
  facet normal -0.442294 -0.89687 -0
    outer loop
      vertex -0.765367 -1.84776 3.4
      vertex -1 -1.73205 1.2
      vertex -0.765367 -1.84776 1.2
    endloop
  endfacet
  facet normal -0.89687 -0.442294 0
    outer loop
      vertex -1.73205 -1 1.2
      vertex -1.84776 -0.765367 3.4
      vertex -1.84776 -0.765367 1.2
    endloop
  endfacet
  facet normal -0.89687 -0.442294 0
    outer loop
      vertex -1.84776 -0.765367 3.4
      vertex -1.73205 -1 1.2
      vertex -1.73205 -1 3.4
    endloop
  endfacet
  facet normal -0.555564 -0.831474 0
    outer loop
      vertex -1.21752 -1.58671 1.2
      vertex -1 -1.73205 3.4
      vertex -1.21752 -1.58671 3.4
    endloop
  endfacet
  facet normal -0.555564 -0.831474 -0
    outer loop
      vertex -1 -1.73205 3.4
      vertex -1.21752 -1.58671 1.2
      vertex -1 -1.73205 1.2
    endloop
  endfacet
  facet normal 0 0 1
    outer loop
      vertex 1.98289 0.261052 3.4
      vertex 1.98289 -0.261052 3.4
      vertex 2 0 3.4
    endloop
  endfacet
  facet normal 0 0 1
    outer loop
      vertex 1.93185 0.517637 3.4
      vertex 1.98289 -0.261052 3.4
      vertex 1.98289 0.261052 3.4
    endloop
  endfacet
  facet normal 0 0 1
    outer loop
      vertex 1.93185 0.517637 3.4
      vertex 1.93185 -0.517637 3.4
      vertex 1.98289 -0.261052 3.4
    endloop
  endfacet
  facet normal 0 0 1
    outer loop
      vertex 1.84776 0.765367 3.4
      vertex 1.93185 -0.517637 3.4
      vertex 1.93185 0.517637 3.4
    endloop
  endfacet
  facet normal 0 0 1
    outer loop
      vertex 1.84776 0.765367 3.4
      vertex 1.84776 -0.765367 3.4
      vertex 1.93185 -0.517637 3.4
    endloop
  endfacet
  facet normal 0 0 1
    outer loop
      vertex 1.73205 1 3.4
      vertex 1.84776 -0.765367 3.4
      vertex 1.84776 0.765367 3.4
    endloop
  endfacet
  facet normal 0 0 1
    outer loop
      vertex 1.73205 1 3.4
      vertex 1.73205 -1 3.4
      vertex 1.84776 -0.765367 3.4
    endloop
  endfacet
  facet normal 0 0 1
    outer loop
      vertex 1.58671 1.21752 3.4
      vertex 1.73205 -1 3.4
      vertex 1.73205 1 3.4
    endloop
  endfacet
  facet normal 0 0 1
    outer loop
      vertex 1.58671 1.21752 3.4
      vertex 1.58671 -1.21752 3.4
      vertex 1.73205 -1 3.4
    endloop
  endfacet
  facet normal 0 0 1
    outer loop
      vertex 1.41421 1.41421 3.4
      vertex 1.58671 -1.21752 3.4
      vertex 1.58671 1.21752 3.4
    endloop
  endfacet
  facet normal 0 0 1
    outer loop
      vertex 1.41421 1.41421 3.4
      vertex 1.41421 -1.41421 3.4
      vertex 1.58671 -1.21752 3.4
    endloop
  endfacet
  facet normal 0 0 1
    outer loop
      vertex 1.21752 1.58671 3.4
      vertex 1.41421 -1.41421 3.4
      vertex 1.41421 1.41421 3.4
    endloop
  endfacet
  facet normal 0 0 1
    outer loop
      vertex 1.21752 1.58671 3.4
      vertex 1.21752 -1.58671 3.4
      vertex 1.41421 -1.41421 3.4
    endloop
  endfacet
  facet normal 0 0 1
    outer loop
      vertex 1 1.73205 3.4
      vertex 1.21752 -1.58671 3.4
      vertex 1.21752 1.58671 3.4
    endloop
  endfacet
  facet normal 0 0 1
    outer loop
      vertex 1 1.73205 3.4
      vertex 1 -1.73205 3.4
      vertex 1.21752 -1.58671 3.4
    endloop
  endfacet
  facet normal 0 0 1
    outer loop
      vertex 0.765367 1.84776 3.4
      vertex 1 -1.73205 3.4
      vertex 1 1.73205 3.4
    endloop
  endfacet
  facet normal 0 0 1
    outer loop
      vertex 0.765367 1.84776 3.4
      vertex 0.765367 -1.84776 3.4
      vertex 1 -1.73205 3.4
    endloop
  endfacet
  facet normal 0 0 1
    outer loop
      vertex 0.517637 1.93185 3.4
      vertex 0.765367 -1.84776 3.4
      vertex 0.765367 1.84776 3.4
    endloop
  endfacet
  facet normal 0 0 1
    outer loop
      vertex 0.517637 1.93185 3.4
      vertex 0.517637 -1.93185 3.4
      vertex 0.765367 -1.84776 3.4
    endloop
  endfacet
  facet normal 0 0 1
    outer loop
      vertex 0.261052 1.98289 3.4
      vertex 0.517637 -1.93185 3.4
      vertex 0.517637 1.93185 3.4
    endloop
  endfacet
  facet normal 0 0 1
    outer loop
      vertex 0.261052 1.98289 3.4
      vertex 0.261052 -1.98289 3.4
      vertex 0.517637 -1.93185 3.4
    endloop
  endfacet
  facet normal 0 0 1
    outer loop
      vertex 0 2 3.4
      vertex 0.261052 -1.98289 3.4
      vertex 0.261052 1.98289 3.4
    endloop
  endfacet
  facet normal 0 0 1
    outer loop
      vertex 0 2 3.4
      vertex 0 -2 3.4
      vertex 0.261052 -1.98289 3.4
    endloop
  endfacet
  facet normal -0 0 1
    outer loop
      vertex -0.261052 1.98289 3.4
      vertex 0 -2 3.4
      vertex 0 2 3.4
    endloop
  endfacet
  facet normal 0 0 1
    outer loop
      vertex -0.261052 1.98289 3.4
      vertex -0.261052 -1.98289 3.4
      vertex 0 -2 3.4
    endloop
  endfacet
  facet normal -0 0 1
    outer loop
      vertex -0.517637 1.93185 3.4
      vertex -0.261052 -1.98289 3.4
      vertex -0.261052 1.98289 3.4
    endloop
  endfacet
  facet normal 0 0 1
    outer loop
      vertex -0.517637 1.93185 3.4
      vertex -0.517637 -1.93185 3.4
      vertex -0.261052 -1.98289 3.4
    endloop
  endfacet
  facet normal -0 0 1
    outer loop
      vertex -0.765367 1.84776 3.4
      vertex -0.517637 -1.93185 3.4
      vertex -0.517637 1.93185 3.4
    endloop
  endfacet
  facet normal 0 0 1
    outer loop
      vertex -0.765367 1.84776 3.4
      vertex -0.765367 -1.84776 3.4
      vertex -0.517637 -1.93185 3.4
    endloop
  endfacet
  facet normal -0 0 1
    outer loop
      vertex -1 1.73205 3.4
      vertex -0.765367 -1.84776 3.4
      vertex -0.765367 1.84776 3.4
    endloop
  endfacet
  facet normal 0 0 1
    outer loop
      vertex -1 1.73205 3.4
      vertex -1 -1.73205 3.4
      vertex -0.765367 -1.84776 3.4
    endloop
  endfacet
  facet normal -0 0 1
    outer loop
      vertex -1.21752 1.58671 3.4
      vertex -1 -1.73205 3.4
      vertex -1 1.73205 3.4
    endloop
  endfacet
  facet normal 0 0 1
    outer loop
      vertex -1.21752 1.58671 3.4
      vertex -1.21752 -1.58671 3.4
      vertex -1 -1.73205 3.4
    endloop
  endfacet
  facet normal -0 0 1
    outer loop
      vertex -1.41421 1.41421 3.4
      vertex -1.21752 -1.58671 3.4
      vertex -1.21752 1.58671 3.4
    endloop
  endfacet
  facet normal 0 0 1
    outer loop
      vertex -1.41421 1.41421 3.4
      vertex -1.41421 -1.41421 3.4
      vertex -1.21752 -1.58671 3.4
    endloop
  endfacet
  facet normal -0 0 1
    outer loop
      vertex -1.58671 1.21752 3.4
      vertex -1.41421 -1.41421 3.4
      vertex -1.41421 1.41421 3.4
    endloop
  endfacet
  facet normal 0 0 1
    outer loop
      vertex -1.58671 1.21752 3.4
      vertex -1.58671 -1.21752 3.4
      vertex -1.41421 -1.41421 3.4
    endloop
  endfacet
  facet normal -0 0 1
    outer loop
      vertex -1.73205 1 3.4
      vertex -1.58671 -1.21752 3.4
      vertex -1.58671 1.21752 3.4
    endloop
  endfacet
  facet normal 0 0 1
    outer loop
      vertex -1.73205 1 3.4
      vertex -1.73205 -1 3.4
      vertex -1.58671 -1.21752 3.4
    endloop
  endfacet
  facet normal -0 0 1
    outer loop
      vertex -1.84776 0.765367 3.4
      vertex -1.73205 -1 3.4
      vertex -1.73205 1 3.4
    endloop
  endfacet
  facet normal 0 0 1
    outer loop
      vertex -1.84776 0.765367 3.4
      vertex -1.84776 -0.765367 3.4
      vertex -1.73205 -1 3.4
    endloop
  endfacet
  facet normal -0 0 1
    outer loop
      vertex -1.93185 0.517637 3.4
      vertex -1.84776 -0.765367 3.4
      vertex -1.84776 0.765367 3.4
    endloop
  endfacet
  facet normal 0 0 1
    outer loop
      vertex -1.93185 0.517637 3.4
      vertex -1.93185 -0.517637 3.4
      vertex -1.84776 -0.765367 3.4
    endloop
  endfacet
  facet normal -0 0 1
    outer loop
      vertex -1.98289 0.261052 3.4
      vertex -1.93185 -0.517637 3.4
      vertex -1.93185 0.517637 3.4
    endloop
  endfacet
  facet normal 0 0 1
    outer loop
      vertex -1.98289 0.261052 3.4
      vertex -1.98289 -0.261052 3.4
      vertex -1.93185 -0.517637 3.4
    endloop
  endfacet
  facet normal 0 -0 1
    outer loop
      vertex -1.98289 -0.261052 3.4
      vertex -1.98289 0.261052 3.4
      vertex -2 0 3.4
    endloop
  endfacet
endsolid OpenSCAD_Model
