solid OpenSCAD_Model
  facet normal 0.997859 0.0654022 0
    outer loop
      vertex 4 0 1.2
      vertex 3.96578 0.522104 0
      vertex 3.96578 0.522104 1.2
    endloop
  endfacet
  facet normal 0.997859 0.0654022 0
    outer loop
      vertex 3.96578 0.522104 0
      vertex 4 0 1.2
      vertex 4 0 0
    endloop
  endfacet
  facet normal -0.831471 0.555569 0
    outer loop
      vertex -3.4641 2 0
      vertex -3.17341 2.43505 1.2
      vertex -3.17341 2.43505 0
    endloop
  endfacet
  facet normal -0.831471 0.555569 0
    outer loop
      vertex -3.17341 2.43505 1.2
      vertex -3.4641 2 0
      vertex -3.4641 2 1.2
    endloop
  endfacet
  facet normal 0.195096 0.980784 -0
    outer loop
      vertex 1.03528 3.8637 0
      vertex 0.522104 3.96578 1.2
      vertex 1.03528 3.8637 1.2
    endloop
  endfacet
  facet normal 0.195096 0.980784 0
    outer loop
      vertex 0.522104 3.96578 1.2
      vertex 1.03528 3.8637 0
      vertex 0.522104 3.96578 0
    endloop
  endfacet
  facet normal 0.896871 0.442291 0
    outer loop
      vertex 3.69552 1.53073 1.2
      vertex 3.4641 2 0
      vertex 3.4641 2 1.2
    endloop
  endfacet
  facet normal 0.896871 0.442291 0
    outer loop
      vertex 3.4641 2 0
      vertex 3.69552 1.53073 1.2
      vertex 3.69552 1.53073 0
    endloop
  endfacet
  facet normal 0.831471 0.555569 0
    outer loop
      vertex 3.4641 2 1.2
      vertex 3.17341 2.43505 0
      vertex 3.17341 2.43505 1.2
    endloop
  endfacet
  facet normal 0.831471 0.555569 0
    outer loop
      vertex 3.17341 2.43505 0
      vertex 3.4641 2 1.2
      vertex 3.4641 2 0
    endloop
  endfacet
  facet normal 0.442291 0.896871 -0
    outer loop
      vertex 2 3.4641 0
      vertex 1.53073 3.69552 1.2
      vertex 2 3.4641 1.2
    endloop
  endfacet
  facet normal 0.442291 0.896871 0
    outer loop
      vertex 1.53073 3.69552 1.2
      vertex 2 3.4641 0
      vertex 1.53073 3.69552 0
    endloop
  endfacet
  facet normal 0.65934 -0.751845 0
    outer loop
      vertex 2.43505 -3.17341 0
      vertex 2.82843 -2.82843 1.2
      vertex 2.43505 -3.17341 1.2
    endloop
  endfacet
  facet normal 0.65934 -0.751845 0
    outer loop
      vertex 2.82843 -2.82843 1.2
      vertex 2.43505 -3.17341 0
      vertex 2.82843 -2.82843 0
    endloop
  endfacet
  facet normal -0.195096 0.980784 0
    outer loop
      vertex -0.522104 3.96578 0
      vertex -1.03528 3.8637 1.2
      vertex -0.522104 3.96578 1.2
    endloop
  endfacet
  facet normal -0.195096 0.980784 0
    outer loop
      vertex -1.03528 3.8637 1.2
      vertex -0.522104 3.96578 0
      vertex -1.03528 3.8637 0
    endloop
  endfacet
  facet normal -0.442291 0.896871 0
    outer loop
      vertex -1.53073 3.69552 0
      vertex -2 3.4641 1.2
      vertex -1.53073 3.69552 1.2
    endloop
  endfacet
  facet normal -0.442291 0.896871 0
    outer loop
      vertex -2 3.4641 1.2
      vertex -1.53073 3.69552 0
      vertex -2 3.4641 0
    endloop
  endfacet
  facet normal 0.946932 0.321435 0
    outer loop
      vertex 3.8637 1.03528 1.2
      vertex 3.69552 1.53073 0
      vertex 3.69552 1.53073 1.2
    endloop
  endfacet
  facet normal 0.946932 0.321435 0
    outer loop
      vertex 3.69552 1.53073 0
      vertex 3.8637 1.03528 1.2
      vertex 3.8637 1.03528 0
    endloop
  endfacet
  facet normal -0.442291 -0.896871 0
    outer loop
      vertex -2 -3.4641 0
      vertex -1.53073 -3.69552 1.2
      vertex -2 -3.4641 1.2
    endloop
  endfacet
  facet normal -0.442291 -0.896871 -0
    outer loop
      vertex -1.53073 -3.69552 1.2
      vertex -2 -3.4641 0
      vertex -1.53073 -3.69552 0
    endloop
  endfacet
  facet normal -0.946932 0.321435 0
    outer loop
      vertex -3.8637 1.03528 0
      vertex -3.69552 1.53073 1.2
      vertex -3.69552 1.53073 0
    endloop
  endfacet
  facet normal -0.946932 0.321435 0
    outer loop
      vertex -3.69552 1.53073 1.2
      vertex -3.8637 1.03528 0
      vertex -3.8637 1.03528 1.2
    endloop
  endfacet
  facet normal -0.946932 -0.321435 0
    outer loop
      vertex -3.69552 -1.53073 0
      vertex -3.8637 -1.03528 1.2
      vertex -3.8637 -1.03528 0
    endloop
  endfacet
  facet normal -0.946932 -0.321435 0
    outer loop
      vertex -3.8637 -1.03528 1.2
      vertex -3.69552 -1.53073 0
      vertex -3.69552 -1.53073 1.2
    endloop
  endfacet
  facet normal 0.946932 -0.321435 0
    outer loop
      vertex 3.69552 -1.53073 1.2
      vertex 3.8637 -1.03528 0
      vertex 3.8637 -1.03528 1.2
    endloop
  endfacet
  facet normal 0.946932 -0.321435 0
    outer loop
      vertex 3.8637 -1.03528 0
      vertex 3.69552 -1.53073 1.2
      vertex 3.69552 -1.53073 0
    endloop
  endfacet
  facet normal 0.321435 -0.946932 0
    outer loop
      vertex 1.03528 -3.8637 0
      vertex 1.53073 -3.69552 1.2
      vertex 1.03528 -3.8637 1.2
    endloop
  endfacet
  facet normal 0.321435 -0.946932 0
    outer loop
      vertex 1.53073 -3.69552 1.2
      vertex 1.03528 -3.8637 0
      vertex 1.53073 -3.69552 0
    endloop
  endfacet
  facet normal 0.751845 -0.65934 0
    outer loop
      vertex 2.82843 -2.82843 1.2
      vertex 3.17341 -2.43505 0
      vertex 3.17341 -2.43505 1.2
    endloop
  endfacet
  facet normal 0.751845 -0.65934 0
    outer loop
      vertex 3.17341 -2.43505 0
      vertex 2.82843 -2.82843 1.2
      vertex 2.82843 -2.82843 0
    endloop
  endfacet
  facet normal -0.751845 0.65934 0
    outer loop
      vertex -3.17341 2.43505 0
      vertex -2.82843 2.82843 1.2
      vertex -2.82843 2.82843 0
    endloop
  endfacet
  facet normal -0.751845 0.65934 0
    outer loop
      vertex -2.82843 2.82843 1.2
      vertex -3.17341 2.43505 0
      vertex -3.17341 2.43505 1.2
    endloop
  endfacet
  facet normal -0.65934 0.751845 0
    outer loop
      vertex -2.43505 3.17341 0
      vertex -2.82843 2.82843 1.2
      vertex -2.43505 3.17341 1.2
    endloop
  endfacet
  facet normal -0.65934 0.751845 0
    outer loop
      vertex -2.82843 2.82843 1.2
      vertex -2.43505 3.17341 0
      vertex -2.82843 2.82843 0
    endloop
  endfacet
  facet normal 0 0 -1
    outer loop
      vertex 3.96578 -0.522104 0
      vertex 3.96578 0.522104 0
      vertex 4 0 0
    endloop
  endfacet
  facet normal 0 0 -1
    outer loop
      vertex 3.8637 -1.03528 0
      vertex 3.96578 0.522104 0
      vertex 3.96578 -0.522104 0
    endloop
  endfacet
  facet normal 0 0 -1
    outer loop
      vertex 3.8637 -1.03528 0
      vertex 3.8637 1.03528 0
      vertex 3.96578 0.522104 0
    endloop
  endfacet
  facet normal 0 0 -1
    outer loop
      vertex 3.69552 -1.53073 0
      vertex 3.8637 1.03528 0
      vertex 3.8637 -1.03528 0
    endloop
  endfacet
  facet normal 0 0 -1
    outer loop
      vertex 3.69552 -1.53073 0
      vertex 3.69552 1.53073 0
      vertex 3.8637 1.03528 0
    endloop
  endfacet
  facet normal 0 0 -1
    outer loop
      vertex 3.4641 -2 0
      vertex 3.69552 1.53073 0
      vertex 3.69552 -1.53073 0
    endloop
  endfacet
  facet normal 0 0 -1
    outer loop
      vertex 3.4641 -2 0
      vertex 3.4641 2 0
      vertex 3.69552 1.53073 0
    endloop
  endfacet
  facet normal 0 0 -1
    outer loop
      vertex 3.17341 -2.43505 0
      vertex 3.4641 2 0
      vertex 3.4641 -2 0
    endloop
  endfacet
  facet normal 0 0 -1
    outer loop
      vertex 3.17341 -2.43505 0
      vertex 3.17341 2.43505 0
      vertex 3.4641 2 0
    endloop
  endfacet
  facet normal 0 0 -1
    outer loop
      vertex 2.82843 -2.82843 0
      vertex 3.17341 2.43505 0
      vertex 3.17341 -2.43505 0
    endloop
  endfacet
  facet normal 0 0 -1
    outer loop
      vertex 2.82843 -2.82843 0
      vertex 2.82843 2.82843 0
      vertex 3.17341 2.43505 0
    endloop
  endfacet
  facet normal 0 0 -1
    outer loop
      vertex 2.43505 -3.17341 0
      vertex 2.82843 2.82843 0
      vertex 2.82843 -2.82843 0
    endloop
  endfacet
  facet normal 0 0 -1
    outer loop
      vertex 2.43505 -3.17341 0
      vertex 2.43505 3.17341 0
      vertex 2.82843 2.82843 0
    endloop
  endfacet
  facet normal 0 0 -1
    outer loop
      vertex 2 -3.4641 0
      vertex 2.43505 3.17341 0
      vertex 2.43505 -3.17341 0
    endloop
  endfacet
  facet normal 0 0 -1
    outer loop
      vertex 2 -3.4641 0
      vertex 2 3.4641 0
      vertex 2.43505 3.17341 0
    endloop
  endfacet
  facet normal 0 0 -1
    outer loop
      vertex 1.53073 -3.69552 0
      vertex 2 3.4641 0
      vertex 2 -3.4641 0
    endloop
  endfacet
  facet normal 0 0 -1
    outer loop
      vertex 1.53073 -3.69552 0
      vertex 1.53073 3.69552 0
      vertex 2 3.4641 0
    endloop
  endfacet
  facet normal 0 0 -1
    outer loop
      vertex 1.03528 -3.8637 0
      vertex 1.53073 3.69552 0
      vertex 1.53073 -3.69552 0
    endloop
  endfacet
  facet normal 0 0 -1
    outer loop
      vertex 1.03528 -3.8637 0
      vertex 1.03528 3.8637 0
      vertex 1.53073 3.69552 0
    endloop
  endfacet
  facet normal 0 0 -1
    outer loop
      vertex 0.522104 -3.96578 0
      vertex 1.03528 3.8637 0
      vertex 1.03528 -3.8637 0
    endloop
  endfacet
  facet normal 0 0 -1
    outer loop
      vertex 0.522104 -3.96578 0
      vertex 0.522104 3.96578 0
      vertex 1.03528 3.8637 0
    endloop
  endfacet
  facet normal 0 0 -1
    outer loop
      vertex 0 -4 0
      vertex 0.522104 3.96578 0
      vertex 0.522104 -3.96578 0
    endloop
  endfacet
  facet normal 0 0 -1
    outer loop
      vertex 0 -4 0
      vertex 0 4 0
      vertex 0.522104 3.96578 0
    endloop
  endfacet
  facet normal 0 0 -1
    outer loop
      vertex -0.522104 -3.96578 0
      vertex 0 4 0
      vertex 0 -4 0
    endloop
  endfacet
  facet normal 0 0 -1
    outer loop
      vertex -0.522104 -3.96578 0
      vertex -0.522104 3.96578 0
      vertex 0 4 0
    endloop
  endfacet
  facet normal 0 0 -1
    outer loop
      vertex -1.03528 -3.8637 0
      vertex -0.522104 3.96578 0
      vertex -0.522104 -3.96578 0
    endloop
  endfacet
  facet normal 0 0 -1
    outer loop
      vertex -1.03528 -3.8637 0
      vertex -1.03528 3.8637 0
      vertex -0.522104 3.96578 0
    endloop
  endfacet
  facet normal 0 0 -1
    outer loop
      vertex -1.53073 -3.69552 0
      vertex -1.03528 3.8637 0
      vertex -1.03528 -3.8637 0
    endloop
  endfacet
  facet normal 0 0 -1
    outer loop
      vertex -1.53073 -3.69552 0
      vertex -1.53073 3.69552 0
      vertex -1.03528 3.8637 0
    endloop
  endfacet
  facet normal 0 0 -1
    outer loop
      vertex -2 -3.4641 0
      vertex -1.53073 3.69552 0
      vertex -1.53073 -3.69552 0
    endloop
  endfacet
  facet normal 0 0 -1
    outer loop
      vertex -2 -3.4641 0
      vertex -2 3.4641 0
      vertex -1.53073 3.69552 0
    endloop
  endfacet
  facet normal 0 0 -1
    outer loop
      vertex -2.43505 -3.17341 0
      vertex -2 3.4641 0
      vertex -2 -3.4641 0
    endloop
  endfacet
  facet normal 0 0 -1
    outer loop
      vertex -2.43505 -3.17341 0
      vertex -2.43505 3.17341 0
      vertex -2 3.4641 0
    endloop
  endfacet
  facet normal 0 0 -1
    outer loop
      vertex -2.82843 -2.82843 0
      vertex -2.43505 3.17341 0
      vertex -2.43505 -3.17341 0
    endloop
  endfacet
  facet normal 0 0 -1
    outer loop
      vertex -2.82843 -2.82843 0
      vertex -2.82843 2.82843 0
      vertex -2.43505 3.17341 0
    endloop
  endfacet
  facet normal 0 0 -1
    outer loop
      vertex -3.17341 -2.43505 0
      vertex -2.82843 2.82843 0
      vertex -2.82843 -2.82843 0
    endloop
  endfacet
  facet normal 0 0 -1
    outer loop
      vertex -3.17341 -2.43505 0
      vertex -3.17341 2.43505 0
      vertex -2.82843 2.82843 0
    endloop
  endfacet
  facet normal 0 0 -1
    outer loop
      vertex -3.4641 -2 0
      vertex -3.17341 2.43505 0
      vertex -3.17341 -2.43505 0
    endloop
  endfacet
  facet normal 0 0 -1
    outer loop
      vertex -3.4641 -2 0
      vertex -3.4641 2 0
      vertex -3.17341 2.43505 0
    endloop
  endfacet
  facet normal 0 0 -1
    outer loop
      vertex -3.69552 -1.53073 0
      vertex -3.4641 2 0
      vertex -3.4641 -2 0
    endloop
  endfacet
  facet normal 0 0 -1
    outer loop
      vertex -3.69552 -1.53073 0
      vertex -3.69552 1.53073 0
      vertex -3.4641 2 0
    endloop
  endfacet
  facet normal 0 0 -1
    outer loop
      vertex -3.8637 -1.03528 0
      vertex -3.69552 1.53073 0
      vertex -3.69552 -1.53073 0
    endloop
  endfacet
  facet normal 0 0 -1
    outer loop
      vertex -3.8637 -1.03528 0
      vertex -3.8637 1.03528 0
      vertex -3.69552 1.53073 0
    endloop
  endfacet
  facet normal 0 0 -1
    outer loop
      vertex -3.96578 -0.522104 0
      vertex -3.8637 1.03528 0
      vertex -3.8637 -1.03528 0
    endloop
  endfacet
  facet normal 0 0 -1
    outer loop
      vertex -3.96578 -0.522104 0
      vertex -3.96578 0.522104 0
      vertex -3.8637 1.03528 0
    endloop
  endfacet
  facet normal 0 -0 -1
    outer loop
      vertex -3.96578 0.522104 0
      vertex -3.96578 -0.522104 0
      vertex -4 0 0
    endloop
  endfacet
  facet normal -0.555569 -0.831471 0
    outer loop
      vertex -2.43505 -3.17341 0
      vertex -2 -3.4641 1.2
      vertex -2.43505 -3.17341 1.2
    endloop
  endfacet
  facet normal -0.555569 -0.831471 -0
    outer loop
      vertex -2 -3.4641 1.2
      vertex -2.43505 -3.17341 0
      vertex -2 -3.4641 0
    endloop
  endfacet
  facet normal 0.980784 0.195096 0
    outer loop
      vertex 3.96578 0.522104 1.2
      vertex 3.8637 1.03528 0
      vertex 3.8637 1.03528 1.2
    endloop
  endfacet
  facet normal 0.980784 0.195096 0
    outer loop
      vertex 3.8637 1.03528 0
      vertex 3.96578 0.522104 1.2
      vertex 3.96578 0.522104 0
    endloop
  endfacet
  facet normal -0.997859 -0.0654022 0
    outer loop
      vertex -3.96578 -0.522104 0
      vertex -4 0 1.2
      vertex -4 0 0
    endloop
  endfacet
  facet normal -0.997859 -0.0654022 0
    outer loop
      vertex -4 0 1.2
      vertex -3.96578 -0.522104 0
      vertex -3.96578 -0.522104 1.2
    endloop
  endfacet
  facet normal -0.0654022 0.997859 0
    outer loop
      vertex 0 4 0
      vertex -0.522104 3.96578 1.2
      vertex 0 4 1.2
    endloop
  endfacet
  facet normal -0.0654022 0.997859 0
    outer loop
      vertex -0.522104 3.96578 1.2
      vertex 0 4 0
      vertex -0.522104 3.96578 0
    endloop
  endfacet
  facet normal 0.555569 -0.831471 0
    outer loop
      vertex 2 -3.4641 0
      vertex 2.43505 -3.17341 1.2
      vertex 2 -3.4641 1.2
    endloop
  endfacet
  facet normal 0.555569 -0.831471 0
    outer loop
      vertex 2.43505 -3.17341 1.2
      vertex 2 -3.4641 0
      vertex 2.43505 -3.17341 0
    endloop
  endfacet
  facet normal -0.0654022 -0.997859 0
    outer loop
      vertex -0.522104 -3.96578 0
      vertex 0 -4 1.2
      vertex -0.522104 -3.96578 1.2
    endloop
  endfacet
  facet normal -0.0654022 -0.997859 -0
    outer loop
      vertex 0 -4 1.2
      vertex -0.522104 -3.96578 0
      vertex 0 -4 0
    endloop
  endfacet
  facet normal -0.831471 -0.555569 0
    outer loop
      vertex -3.17341 -2.43505 0
      vertex -3.4641 -2 1.2
      vertex -3.4641 -2 0
    endloop
  endfacet
  facet normal -0.831471 -0.555569 0
    outer loop
      vertex -3.4641 -2 1.2
      vertex -3.17341 -2.43505 0
      vertex -3.17341 -2.43505 1.2
    endloop
  endfacet
  facet normal 0.65934 0.751845 -0
    outer loop
      vertex 2.82843 2.82843 0
      vertex 2.43505 3.17341 1.2
      vertex 2.82843 2.82843 1.2
    endloop
  endfacet
  facet normal 0.65934 0.751845 0
    outer loop
      vertex 2.43505 3.17341 1.2
      vertex 2.82843 2.82843 0
      vertex 2.43505 3.17341 0
    endloop
  endfacet
  facet normal 0.555569 0.831471 -0
    outer loop
      vertex 2.43505 3.17341 0
      vertex 2 3.4641 1.2
      vertex 2.43505 3.17341 1.2
    endloop
  endfacet
  facet normal 0.555569 0.831471 0
    outer loop
      vertex 2 3.4641 1.2
      vertex 2.43505 3.17341 0
      vertex 2 3.4641 0
    endloop
  endfacet
  facet normal -0.321435 0.946932 0
    outer loop
      vertex -1.03528 3.8637 0
      vertex -1.53073 3.69552 1.2
      vertex -1.03528 3.8637 1.2
    endloop
  endfacet
  facet normal -0.321435 0.946932 0
    outer loop
      vertex -1.53073 3.69552 1.2
      vertex -1.03528 3.8637 0
      vertex -1.53073 3.69552 0
    endloop
  endfacet
  facet normal -0.980784 0.195096 0
    outer loop
      vertex -3.96578 0.522104 0
      vertex -3.8637 1.03528 1.2
      vertex -3.8637 1.03528 0
    endloop
  endfacet
  facet normal -0.980784 0.195096 0
    outer loop
      vertex -3.8637 1.03528 1.2
      vertex -3.96578 0.522104 0
      vertex -3.96578 0.522104 1.2
    endloop
  endfacet
  facet normal 0.0654022 -0.997859 0
    outer loop
      vertex 0 -4 0
      vertex 0.522104 -3.96578 1.2
      vertex 0 -4 1.2
    endloop
  endfacet
  facet normal 0.0654022 -0.997859 0
    outer loop
      vertex 0.522104 -3.96578 1.2
      vertex 0 -4 0
      vertex 0.522104 -3.96578 0
    endloop
  endfacet
  facet normal -0.751845 -0.65934 0
    outer loop
      vertex -2.82843 -2.82843 0
      vertex -3.17341 -2.43505 1.2
      vertex -3.17341 -2.43505 0
    endloop
  endfacet
  facet normal -0.751845 -0.65934 0
    outer loop
      vertex -3.17341 -2.43505 1.2
      vertex -2.82843 -2.82843 0
      vertex -2.82843 -2.82843 1.2
    endloop
  endfacet
  facet normal -0.555569 0.831471 0
    outer loop
      vertex -2 3.4641 0
      vertex -2.43505 3.17341 1.2
      vertex -2 3.4641 1.2
    endloop
  endfacet
  facet normal -0.555569 0.831471 0
    outer loop
      vertex -2.43505 3.17341 1.2
      vertex -2 3.4641 0
      vertex -2.43505 3.17341 0
    endloop
  endfacet
  facet normal -0.997859 0.0654022 0
    outer loop
      vertex -4 0 0
      vertex -3.96578 0.522104 1.2
      vertex -3.96578 0.522104 0
    endloop
  endfacet
  facet normal -0.997859 0.0654022 0
    outer loop
      vertex -3.96578 0.522104 1.2
      vertex -4 0 0
      vertex -4 0 1.2
    endloop
  endfacet
  facet normal -0.980784 -0.195096 0
    outer loop
      vertex -3.8637 -1.03528 0
      vertex -3.96578 -0.522104 1.2
      vertex -3.96578 -0.522104 0
    endloop
  endfacet
  facet normal -0.980784 -0.195096 0
    outer loop
      vertex -3.96578 -0.522104 1.2
      vertex -3.8637 -1.03528 0
      vertex -3.8637 -1.03528 1.2
    endloop
  endfacet
  facet normal 0.896871 -0.442291 0
    outer loop
      vertex 3.4641 -2 1.2
      vertex 3.69552 -1.53073 0
      vertex 3.69552 -1.53073 1.2
    endloop
  endfacet
  facet normal 0.896871 -0.442291 0
    outer loop
      vertex 3.69552 -1.53073 0
      vertex 3.4641 -2 1.2
      vertex 3.4641 -2 0
    endloop
  endfacet
  facet normal 0.831471 -0.555569 0
    outer loop
      vertex 3.17341 -2.43505 1.2
      vertex 3.4641 -2 0
      vertex 3.4641 -2 1.2
    endloop
  endfacet
  facet normal 0.831471 -0.555569 0
    outer loop
      vertex 3.4641 -2 0
      vertex 3.17341 -2.43505 1.2
      vertex 3.17341 -2.43505 0
    endloop
  endfacet
  facet normal 0.195096 -0.980784 0
    outer loop
      vertex 0.522104 -3.96578 0
      vertex 1.03528 -3.8637 1.2
      vertex 0.522104 -3.96578 1.2
    endloop
  endfacet
  facet normal 0.195096 -0.980784 0
    outer loop
      vertex 1.03528 -3.8637 1.2
      vertex 0.522104 -3.96578 0
      vertex 1.03528 -3.8637 0
    endloop
  endfacet
  facet normal 0.0654022 0.997859 -0
    outer loop
      vertex 0.522104 3.96578 0
      vertex 0 4 1.2
      vertex 0.522104 3.96578 1.2
    endloop
  endfacet
  facet normal 0.0654022 0.997859 0
    outer loop
      vertex 0 4 1.2
      vertex 0.522104 3.96578 0
      vertex 0 4 0
    endloop
  endfacet
  facet normal -0.195096 -0.980784 0
    outer loop
      vertex -1.03528 -3.8637 0
      vertex -0.522104 -3.96578 1.2
      vertex -1.03528 -3.8637 1.2
    endloop
  endfacet
  facet normal -0.195096 -0.980784 -0
    outer loop
      vertex -0.522104 -3.96578 1.2
      vertex -1.03528 -3.8637 0
      vertex -0.522104 -3.96578 0
    endloop
  endfacet
  facet normal 0.751845 0.65934 0
    outer loop
      vertex 3.17341 2.43505 1.2
      vertex 2.82843 2.82843 0
      vertex 2.82843 2.82843 1.2
    endloop
  endfacet
  facet normal 0.751845 0.65934 0
    outer loop
      vertex 2.82843 2.82843 0
      vertex 3.17341 2.43505 1.2
      vertex 3.17341 2.43505 0
    endloop
  endfacet
  facet normal 0.321435 0.946932 -0
    outer loop
      vertex 1.53073 3.69552 0
      vertex 1.03528 3.8637 1.2
      vertex 1.53073 3.69552 1.2
    endloop
  endfacet
  facet normal 0.321435 0.946932 0
    outer loop
      vertex 1.03528 3.8637 1.2
      vertex 1.53073 3.69552 0
      vertex 1.03528 3.8637 0
    endloop
  endfacet
  facet normal 0.997859 -0.0654022 0
    outer loop
      vertex 3.96578 -0.522104 1.2
      vertex 4 0 0
      vertex 4 0 1.2
    endloop
  endfacet
  facet normal 0.997859 -0.0654022 0
    outer loop
      vertex 4 0 0
      vertex 3.96578 -0.522104 1.2
      vertex 3.96578 -0.522104 0
    endloop
  endfacet
  facet normal 0.980784 -0.195096 0
    outer loop
      vertex 3.8637 -1.03528 1.2
      vertex 3.96578 -0.522104 0
      vertex 3.96578 -0.522104 1.2
    endloop
  endfacet
  facet normal 0.980784 -0.195096 0
    outer loop
      vertex 3.96578 -0.522104 0
      vertex 3.8637 -1.03528 1.2
      vertex 3.8637 -1.03528 0
    endloop
  endfacet
  facet normal -0.65934 -0.751845 0
    outer loop
      vertex -2.82843 -2.82843 0
      vertex -2.43505 -3.17341 1.2
      vertex -2.82843 -2.82843 1.2
    endloop
  endfacet
  facet normal -0.65934 -0.751845 -0
    outer loop
      vertex -2.43505 -3.17341 1.2
      vertex -2.82843 -2.82843 0
      vertex -2.43505 -3.17341 0
    endloop
  endfacet
  facet normal 0.442291 -0.896871 0
    outer loop
      vertex 1.53073 -3.69552 0
      vertex 2 -3.4641 1.2
      vertex 1.53073 -3.69552 1.2
    endloop
  endfacet
  facet normal 0.442291 -0.896871 0
    outer loop
      vertex 2 -3.4641 1.2
      vertex 1.53073 -3.69552 0
      vertex 2 -3.4641 0
    endloop
  endfacet
  facet normal 0 0 1
    outer loop
      vertex 3.96578 0.522104 1.2
      vertex 1.98289 0.261052 1.2
      vertex 2 0 1.2
    endloop
  endfacet
  facet normal 0 0 1
    outer loop
      vertex 2.43505 3.17341 1.2
      vertex 1.93185 0.517637 1.2
      vertex 1.98289 0.261052 1.2
    endloop
  endfacet
  facet normal 0 0 1
    outer loop
      vertex 2.43505 3.17341 1.2
      vertex 1.84776 0.765367 1.2
      vertex 1.93185 0.517637 1.2
    endloop
  endfacet
  facet normal 0 0 1
    outer loop
      vertex 2.43505 3.17341 1.2
      vertex 1.73205 1 1.2
      vertex 1.84776 0.765367 1.2
    endloop
  endfacet
  facet normal 0 0 1
    outer loop
      vertex 2.43505 3.17341 1.2
      vertex 1.58671 1.21752 1.2
      vertex 1.73205 1 1.2
    endloop
  endfacet
  facet normal 0 0 1
    outer loop
      vertex 1 1.73205 1.2
      vertex 2 3.4641 1.2
      vertex 1.53073 3.69552 1.2
    endloop
  endfacet
  facet normal 0 0 1
    outer loop
      vertex 2.43505 3.17341 1.2
      vertex 1.41421 1.41421 1.2
      vertex 1.58671 1.21752 1.2
    endloop
  endfacet
  facet normal 0 0 1
    outer loop
      vertex 2.43505 3.17341 1.2
      vertex 1.21752 1.58671 1.2
      vertex 1.41421 1.41421 1.2
    endloop
  endfacet
  facet normal 0 0 1
    outer loop
      vertex 0.765367 1.84776 1.2
      vertex 1.53073 3.69552 1.2
      vertex 1.03528 3.8637 1.2
    endloop
  endfacet
  facet normal 0 0 1
    outer loop
      vertex 2 3.4641 1.2
      vertex 1 1.73205 1.2
      vertex 1.21752 1.58671 1.2
    endloop
  endfacet
  facet normal 0 0 1
    outer loop
      vertex 1.53073 3.69552 1.2
      vertex 0.765367 1.84776 1.2
      vertex 1 1.73205 1.2
    endloop
  endfacet
  facet normal 0 0 1
    outer loop
      vertex 0.517637 1.93185 1.2
      vertex 1.03528 3.8637 1.2
      vertex 0.522104 3.96578 1.2
    endloop
  endfacet
  facet normal 0 0 1
    outer loop
      vertex 1.03528 3.8637 1.2
      vertex 0.517637 1.93185 1.2
      vertex 0.765367 1.84776 1.2
    endloop
  endfacet
  facet normal 0 0 1
    outer loop
      vertex 0.522104 3.96578 1.2
      vertex 0.261052 1.98289 1.2
      vertex 0.517637 1.93185 1.2
    endloop
  endfacet
  facet normal 0 0 1
    outer loop
      vertex 0 4 1.2
      vertex 0.261052 1.98289 1.2
      vertex 0.522104 3.96578 1.2
    endloop
  endfacet
  facet normal 0 0 1
    outer loop
      vertex 0 4 1.2
      vertex 0 2 1.2
      vertex 0.261052 1.98289 1.2
    endloop
  endfacet
  facet normal 0 0 1
    outer loop
      vertex 0 4 1.2
      vertex -0.261052 1.98289 1.2
      vertex 0 2 1.2
    endloop
  endfacet
  facet normal -0 0 1
    outer loop
      vertex -0.522104 3.96578 1.2
      vertex -0.261052 1.98289 1.2
      vertex 0 4 1.2
    endloop
  endfacet
  facet normal 0 0 1
    outer loop
      vertex -0.261052 1.98289 1.2
      vertex -0.522104 3.96578 1.2
      vertex -0.517637 1.93185 1.2
    endloop
  endfacet
  facet normal -0 0 1
    outer loop
      vertex -1.03528 3.8637 1.2
      vertex -0.517637 1.93185 1.2
      vertex -0.522104 3.96578 1.2
    endloop
  endfacet
  facet normal 0 0 1
    outer loop
      vertex -0.517637 1.93185 1.2
      vertex -1.03528 3.8637 1.2
      vertex -0.765367 1.84776 1.2
    endloop
  endfacet
  facet normal -0 0 1
    outer loop
      vertex -1.53073 3.69552 1.2
      vertex -0.765367 1.84776 1.2
      vertex -1.03528 3.8637 1.2
    endloop
  endfacet
  facet normal 0 0 1
    outer loop
      vertex -0.765367 1.84776 1.2
      vertex -1.53073 3.69552 1.2
      vertex -1 1.73205 1.2
    endloop
  endfacet
  facet normal -0 0 1
    outer loop
      vertex -2 3.4641 1.2
      vertex -1 1.73205 1.2
      vertex -1.53073 3.69552 1.2
    endloop
  endfacet
  facet normal 0 0 1
    outer loop
      vertex -1 1.73205 1.2
      vertex -2 3.4641 1.2
      vertex -1.21752 1.58671 1.2
    endloop
  endfacet
  facet normal -0 0 1
    outer loop
      vertex -2.43505 3.17341 1.2
      vertex -1.21752 1.58671 1.2
      vertex -2 3.4641 1.2
    endloop
  endfacet
  facet normal 0 0 1
    outer loop
      vertex -1.21752 1.58671 1.2
      vertex -2.43505 3.17341 1.2
      vertex -1.41421 1.41421 1.2
    endloop
  endfacet
  facet normal -0 0 1
    outer loop
      vertex -2.82843 2.82843 1.2
      vertex -1.41421 1.41421 1.2
      vertex -2.43505 3.17341 1.2
    endloop
  endfacet
  facet normal 0 0 1
    outer loop
      vertex -1.41421 1.41421 1.2
      vertex -2.82843 2.82843 1.2
      vertex -1.58671 1.21752 1.2
    endloop
  endfacet
  facet normal -0 0 1
    outer loop
      vertex -3.17341 2.43505 1.2
      vertex -1.58671 1.21752 1.2
      vertex -2.82843 2.82843 1.2
    endloop
  endfacet
  facet normal 0 0 1
    outer loop
      vertex -1.58671 1.21752 1.2
      vertex -3.17341 2.43505 1.2
      vertex -1.73205 1 1.2
    endloop
  endfacet
  facet normal -0 0 1
    outer loop
      vertex -3.4641 2 1.2
      vertex -1.73205 1 1.2
      vertex -3.17341 2.43505 1.2
    endloop
  endfacet
  facet normal 0 0 1
    outer loop
      vertex -1.73205 1 1.2
      vertex -3.4641 2 1.2
      vertex -1.84776 0.765367 1.2
    endloop
  endfacet
  facet normal -0 0 1
    outer loop
      vertex -3.69552 1.53073 1.2
      vertex -1.84776 0.765367 1.2
      vertex -3.4641 2 1.2
    endloop
  endfacet
  facet normal 0 0 1
    outer loop
      vertex -2 0 1.2
      vertex -2.43505 -3.17341 1.2
      vertex -2 -3.4641 1.2
    endloop
  endfacet
  facet normal 0 0 1
    outer loop
      vertex -1.84776 0.765367 1.2
      vertex -3.69552 1.53073 1.2
      vertex -1.93185 0.517637 1.2
    endloop
  endfacet
  facet normal 0 0 1
    outer loop
      vertex -2 0 1.2
      vertex -2.82843 -2.82843 1.2
      vertex -2.43505 -3.17341 1.2
    endloop
  endfacet
  facet normal -0 0 1
    outer loop
      vertex -3.8637 1.03528 1.2
      vertex -1.93185 0.517637 1.2
      vertex -3.69552 1.53073 1.2
    endloop
  endfacet
  facet normal 0 0 1
    outer loop
      vertex -2 0 1.2
      vertex -3.17341 -2.43505 1.2
      vertex -2.82843 -2.82843 1.2
    endloop
  endfacet
  facet normal 0 0 1
    outer loop
      vertex -1.93185 0.517637 1.2
      vertex -3.8637 1.03528 1.2
      vertex -1.98289 0.261052 1.2
    endloop
  endfacet
  facet normal 0 0 1
    outer loop
      vertex -2 0 1.2
      vertex -3.4641 -2 1.2
      vertex -3.17341 -2.43505 1.2
    endloop
  endfacet
  facet normal -0 0 1
    outer loop
      vertex -3.96578 0.522104 1.2
      vertex -1.98289 0.261052 1.2
      vertex -3.8637 1.03528 1.2
    endloop
  endfacet
  facet normal 0 0 1
    outer loop
      vertex -2 0 1.2
      vertex -3.69552 -1.53073 1.2
      vertex -3.4641 -2 1.2
    endloop
  endfacet
  facet normal 0 0 1
    outer loop
      vertex -1.98289 0.261052 1.2
      vertex -3.96578 0.522104 1.2
      vertex -2 0 1.2
    endloop
  endfacet
  facet normal 0 0 1
    outer loop
      vertex -2 0 1.2
      vertex -3.8637 -1.03528 1.2
      vertex -3.69552 -1.53073 1.2
    endloop
  endfacet
  facet normal 0 0 1
    outer loop
      vertex -4 0 1.2
      vertex -2 0 1.2
      vertex -3.96578 0.522104 1.2
    endloop
  endfacet
  facet normal 0 0 1
    outer loop
      vertex -2 0 1.2
      vertex -3.96578 -0.522104 1.2
      vertex -3.8637 -1.03528 1.2
    endloop
  endfacet
  facet normal 0 0 1
    outer loop
      vertex -2 0 1.2
      vertex -4 0 1.2
      vertex -3.96578 -0.522104 1.2
    endloop
  endfacet
  facet normal 0 0 1
    outer loop
      vertex 2 0 1.2
      vertex 4 0 1.2
      vertex 3.96578 0.522104 1.2
    endloop
  endfacet
  facet normal 0 0 1
    outer loop
      vertex 1.98289 0.261052 1.2
      vertex 3.96578 0.522104 1.2
      vertex 3.8637 1.03528 1.2
    endloop
  endfacet
  facet normal 0 0 1
    outer loop
      vertex 4 0 1.2
      vertex 2 0 1.2
      vertex 3.96578 -0.522104 1.2
    endloop
  endfacet
  facet normal 0 0 1
    outer loop
      vertex 1.98289 0.261052 1.2
      vertex 3.8637 1.03528 1.2
      vertex 3.69552 1.53073 1.2
    endloop
  endfacet
  facet normal -0 0 1
    outer loop
      vertex 1.98289 -0.261052 1.2
      vertex 3.96578 -0.522104 1.2
      vertex 2 0 1.2
    endloop
  endfacet
  facet normal 0 0 1
    outer loop
      vertex 1.98289 0.261052 1.2
      vertex 3.69552 1.53073 1.2
      vertex 3.4641 2 1.2
    endloop
  endfacet
  facet normal 0 0 1
    outer loop
      vertex 3.96578 -0.522104 1.2
      vertex 1.98289 -0.261052 1.2
      vertex 3.8637 -1.03528 1.2
    endloop
  endfacet
  facet normal 0 0 1
    outer loop
      vertex 1.98289 0.261052 1.2
      vertex 3.4641 2 1.2
      vertex 3.17341 2.43505 1.2
    endloop
  endfacet
  facet normal -0 0 1
    outer loop
      vertex 1.93185 -0.517637 1.2
      vertex 3.8637 -1.03528 1.2
      vertex 1.98289 -0.261052 1.2
    endloop
  endfacet
  facet normal 0 0 1
    outer loop
      vertex 1.98289 0.261052 1.2
      vertex 3.17341 2.43505 1.2
      vertex 2.82843 2.82843 1.2
    endloop
  endfacet
  facet normal 0 0 1
    outer loop
      vertex 3.8637 -1.03528 1.2
      vertex 1.93185 -0.517637 1.2
      vertex 3.69552 -1.53073 1.2
    endloop
  endfacet
  facet normal 0 0 1
    outer loop
      vertex 1.98289 0.261052 1.2
      vertex 2.82843 2.82843 1.2
      vertex 2.43505 3.17341 1.2
    endloop
  endfacet
  facet normal -0 0 1
    outer loop
      vertex 1.84776 -0.765367 1.2
      vertex 3.69552 -1.53073 1.2
      vertex 1.93185 -0.517637 1.2
    endloop
  endfacet
  facet normal 0 0 1
    outer loop
      vertex 1.21752 1.58671 1.2
      vertex 2.43505 3.17341 1.2
      vertex 2 3.4641 1.2
    endloop
  endfacet
  facet normal 0 0 1
    outer loop
      vertex 3.69552 -1.53073 1.2
      vertex 1.84776 -0.765367 1.2
      vertex 3.4641 -2 1.2
    endloop
  endfacet
  facet normal -0 0 1
    outer loop
      vertex 1.73205 -1 1.2
      vertex 3.4641 -2 1.2
      vertex 1.84776 -0.765367 1.2
    endloop
  endfacet
  facet normal 0 0 1
    outer loop
      vertex 3.4641 -2 1.2
      vertex 1.73205 -1 1.2
      vertex 3.17341 -2.43505 1.2
    endloop
  endfacet
  facet normal -0 0 1
    outer loop
      vertex 1.58671 -1.21752 1.2
      vertex 3.17341 -2.43505 1.2
      vertex 1.73205 -1 1.2
    endloop
  endfacet
  facet normal 0 0 1
    outer loop
      vertex 3.17341 -2.43505 1.2
      vertex 1.58671 -1.21752 1.2
      vertex 2.82843 -2.82843 1.2
    endloop
  endfacet
  facet normal -0 0 1
    outer loop
      vertex 1.41421 -1.41421 1.2
      vertex 2.82843 -2.82843 1.2
      vertex 1.58671 -1.21752 1.2
    endloop
  endfacet
  facet normal 0 0 1
    outer loop
      vertex 2.82843 -2.82843 1.2
      vertex 1.41421 -1.41421 1.2
      vertex 2.43505 -3.17341 1.2
    endloop
  endfacet
  facet normal -0 0 1
    outer loop
      vertex 1.21752 -1.58671 1.2
      vertex 2.43505 -3.17341 1.2
      vertex 1.41421 -1.41421 1.2
    endloop
  endfacet
  facet normal 0 0 1
    outer loop
      vertex 2.43505 -3.17341 1.2
      vertex 1.21752 -1.58671 1.2
      vertex 2 -3.4641 1.2
    endloop
  endfacet
  facet normal -0 0 1
    outer loop
      vertex 1 -1.73205 1.2
      vertex 2 -3.4641 1.2
      vertex 1.21752 -1.58671 1.2
    endloop
  endfacet
  facet normal 0 0 1
    outer loop
      vertex 2 -3.4641 1.2
      vertex 1 -1.73205 1.2
      vertex 1.53073 -3.69552 1.2
    endloop
  endfacet
  facet normal -0 0 1
    outer loop
      vertex 0.765367 -1.84776 1.2
      vertex 1.53073 -3.69552 1.2
      vertex 1 -1.73205 1.2
    endloop
  endfacet
  facet normal 0 0 1
    outer loop
      vertex 1.53073 -3.69552 1.2
      vertex 0.765367 -1.84776 1.2
      vertex 1.03528 -3.8637 1.2
    endloop
  endfacet
  facet normal -0 0 1
    outer loop
      vertex 0.517637 -1.93185 1.2
      vertex 1.03528 -3.8637 1.2
      vertex 0.765367 -1.84776 1.2
    endloop
  endfacet
  facet normal 0 0 1
    outer loop
      vertex 1.03528 -3.8637 1.2
      vertex 0.517637 -1.93185 1.2
      vertex 0.522104 -3.96578 1.2
    endloop
  endfacet
  facet normal -0 0 1
    outer loop
      vertex 0.261052 -1.98289 1.2
      vertex 0.522104 -3.96578 1.2
      vertex 0.517637 -1.93185 1.2
    endloop
  endfacet
  facet normal -0 0 1
    outer loop
      vertex 0 -2 1.2
      vertex 0.522104 -3.96578 1.2
      vertex 0.261052 -1.98289 1.2
    endloop
  endfacet
  facet normal 0 0 1
    outer loop
      vertex 0 -2 1.2
      vertex 0 -4 1.2
      vertex 0.522104 -3.96578 1.2
    endloop
  endfacet
  facet normal 0 0 1
    outer loop
      vertex -0.261052 -1.98289 1.2
      vertex 0 -4 1.2
      vertex 0 -2 1.2
    endloop
  endfacet
  facet normal 0 0 1
    outer loop
      vertex -0.522104 -3.96578 1.2
      vertex -0.261052 -1.98289 1.2
      vertex -0.517637 -1.93185 1.2
    endloop
  endfacet
  facet normal 0 0 1
    outer loop
      vertex -0.261052 -1.98289 1.2
      vertex -0.522104 -3.96578 1.2
      vertex 0 -4 1.2
    endloop
  endfacet
  facet normal 0 0 1
    outer loop
      vertex -1.03528 -3.8637 1.2
      vertex -0.517637 -1.93185 1.2
      vertex -0.765367 -1.84776 1.2
    endloop
  endfacet
  facet normal 0 0 1
    outer loop
      vertex -1.53073 -3.69552 1.2
      vertex -0.765367 -1.84776 1.2
      vertex -1 -1.73205 1.2
    endloop
  endfacet
  facet normal 0 0 1
    outer loop
      vertex -0.517637 -1.93185 1.2
      vertex -1.03528 -3.8637 1.2
      vertex -0.522104 -3.96578 1.2
    endloop
  endfacet
  facet normal 0 0 1
    outer loop
      vertex -2 -3.4641 1.2
      vertex -1 -1.73205 1.2
      vertex -1.21752 -1.58671 1.2
    endloop
  endfacet
  facet normal 0 0 1
    outer loop
      vertex -2 -3.4641 1.2
      vertex -1.21752 -1.58671 1.2
      vertex -1.41421 -1.41421 1.2
    endloop
  endfacet
  facet normal 0 0 1
    outer loop
      vertex -0.765367 -1.84776 1.2
      vertex -1.53073 -3.69552 1.2
      vertex -1.03528 -3.8637 1.2
    endloop
  endfacet
  facet normal 0 0 1
    outer loop
      vertex -2 -3.4641 1.2
      vertex -1.41421 -1.41421 1.2
      vertex -1.58671 -1.21752 1.2
    endloop
  endfacet
  facet normal 0 0 1
    outer loop
      vertex -2 -3.4641 1.2
      vertex -1.58671 -1.21752 1.2
      vertex -1.73205 -1 1.2
    endloop
  endfacet
  facet normal 0 0 1
    outer loop
      vertex -2 -3.4641 1.2
      vertex -1.73205 -1 1.2
      vertex -1.84776 -0.765367 1.2
    endloop
  endfacet
  facet normal 0 0 1
    outer loop
      vertex -2 -3.4641 1.2
      vertex -1.84776 -0.765367 1.2
      vertex -1.93185 -0.517637 1.2
    endloop
  endfacet
  facet normal 0 0 1
    outer loop
      vertex -2 -3.4641 1.2
      vertex -1.93185 -0.517637 1.2
      vertex -1.98289 -0.261052 1.2
    endloop
  endfacet
  facet normal 0 0 1
    outer loop
      vertex -1 -1.73205 1.2
      vertex -2 -3.4641 1.2
      vertex -1.53073 -3.69552 1.2
    endloop
  endfacet
  facet normal 0 0 1
    outer loop
      vertex -2 -3.4641 1.2
      vertex -1.98289 -0.261052 1.2
      vertex -2 0 1.2
    endloop
  endfacet
  facet normal -0.321435 -0.946932 0
    outer loop
      vertex -1.53073 -3.69552 0
      vertex -1.03528 -3.8637 1.2
      vertex -1.53073 -3.69552 1.2
    endloop
  endfacet
  facet normal -0.321435 -0.946932 -0
    outer loop
      vertex -1.03528 -3.8637 1.2
      vertex -1.53073 -3.69552 0
      vertex -1.03528 -3.8637 0
    endloop
  endfacet
  facet normal -0.896871 -0.442291 0
    outer loop
      vertex -3.4641 -2 0
      vertex -3.69552 -1.53073 1.2
      vertex -3.69552 -1.53073 0
    endloop
  endfacet
  facet normal -0.896871 -0.442291 0
    outer loop
      vertex -3.69552 -1.53073 1.2
      vertex -3.4641 -2 0
      vertex -3.4641 -2 1.2
    endloop
  endfacet
  facet normal -0.896871 0.442291 0
    outer loop
      vertex -3.69552 1.53073 0
      vertex -3.4641 2 1.2
      vertex -3.4641 2 0
    endloop
  endfacet
  facet normal -0.896871 0.442291 0
    outer loop
      vertex -3.4641 2 1.2
      vertex -3.69552 1.53073 0
      vertex -3.69552 1.53073 1.2
    endloop
  endfacet
  facet normal 0.980784 0.195098 0
    outer loop
      vertex 1.98289 0.261052 3.4
      vertex 1.93185 0.517637 1.2
      vertex 1.93185 0.517637 3.4
    endloop
  endfacet
  facet normal 0.980784 0.195098 0
    outer loop
      vertex 1.93185 0.517637 1.2
      vertex 1.98289 0.261052 3.4
      vertex 1.98289 0.261052 1.2
    endloop
  endfacet
  facet normal 0.997859 0.0654022 0
    outer loop
      vertex 2 0 3.4
      vertex 1.98289 0.261052 1.2
      vertex 1.98289 0.261052 3.4
    endloop
  endfacet
  facet normal 0.997859 0.0654022 0
    outer loop
      vertex 1.98289 0.261052 1.2
      vertex 2 0 3.4
      vertex 2 0 1.2
    endloop
  endfacet
  facet normal 0.0654022 0.997859 -0
    outer loop
      vertex 0.261052 1.98289 1.2
      vertex 0 2 3.4
      vertex 0.261052 1.98289 3.4
    endloop
  endfacet
  facet normal 0.0654022 0.997859 0
    outer loop
      vertex 0 2 3.4
      vertex 0.261052 1.98289 1.2
      vertex 0 2 1.2
    endloop
  endfacet
  facet normal -0.195098 0.980784 0
    outer loop
      vertex -0.261052 1.98289 1.2
      vertex -0.517637 1.93185 3.4
      vertex -0.261052 1.98289 3.4
    endloop
  endfacet
  facet normal -0.195098 0.980784 0
    outer loop
      vertex -0.517637 1.93185 3.4
      vertex -0.261052 1.98289 1.2
      vertex -0.517637 1.93185 1.2
    endloop
  endfacet
  facet normal 0.555564 -0.831474 0
    outer loop
      vertex 1 -1.73205 1.2
      vertex 1.21752 -1.58671 3.4
      vertex 1 -1.73205 3.4
    endloop
  endfacet
  facet normal 0.555564 -0.831474 0
    outer loop
      vertex 1.21752 -1.58671 3.4
      vertex 1 -1.73205 1.2
      vertex 1.21752 -1.58671 1.2
    endloop
  endfacet
  facet normal -0.89687 0.442294 0
    outer loop
      vertex -1.84776 0.765367 1.2
      vertex -1.73205 1 3.4
      vertex -1.73205 1 1.2
    endloop
  endfacet
  facet normal -0.89687 0.442294 0
    outer loop
      vertex -1.73205 1 3.4
      vertex -1.84776 0.765367 1.2
      vertex -1.84776 0.765367 3.4
    endloop
  endfacet
  facet normal -0.946934 0.321429 0
    outer loop
      vertex -1.93185 0.517637 1.2
      vertex -1.84776 0.765367 3.4
      vertex -1.84776 0.765367 1.2
    endloop
  endfacet
  facet normal -0.946934 0.321429 0
    outer loop
      vertex -1.84776 0.765367 3.4
      vertex -1.93185 0.517637 1.2
      vertex -1.93185 0.517637 3.4
    endloop
  endfacet
  facet normal -0.89687 -0.442294 0
    outer loop
      vertex -1.73205 -1 1.2
      vertex -1.84776 -0.765367 3.4
      vertex -1.84776 -0.765367 1.2
    endloop
  endfacet
  facet normal -0.89687 -0.442294 0
    outer loop
      vertex -1.84776 -0.765367 3.4
      vertex -1.73205 -1 1.2
      vertex -1.73205 -1 3.4
    endloop
  endfacet
  facet normal -0.321429 0.946934 0
    outer loop
      vertex -0.517637 1.93185 1.2
      vertex -0.765367 1.84776 3.4
      vertex -0.517637 1.93185 3.4
    endloop
  endfacet
  facet normal -0.321429 0.946934 0
    outer loop
      vertex -0.765367 1.84776 3.4
      vertex -0.517637 1.93185 1.2
      vertex -0.765367 1.84776 1.2
    endloop
  endfacet
  facet normal 0.997859 -0.0654022 0
    outer loop
      vertex 1.98289 -0.261052 3.4
      vertex 2 0 1.2
      vertex 2 0 3.4
    endloop
  endfacet
  facet normal 0.997859 -0.0654022 0
    outer loop
      vertex 2 0 1.2
      vertex 1.98289 -0.261052 3.4
      vertex 1.98289 -0.261052 1.2
    endloop
  endfacet
  facet normal -0.946934 -0.321429 0
    outer loop
      vertex -1.84776 -0.765367 1.2
      vertex -1.93185 -0.517637 3.4
      vertex -1.93185 -0.517637 1.2
    endloop
  endfacet
  facet normal -0.946934 -0.321429 0
    outer loop
      vertex -1.93185 -0.517637 3.4
      vertex -1.84776 -0.765367 1.2
      vertex -1.84776 -0.765367 3.4
    endloop
  endfacet
  facet normal -0.831474 0.555564 0
    outer loop
      vertex -1.73205 1 1.2
      vertex -1.58671 1.21752 3.4
      vertex -1.58671 1.21752 1.2
    endloop
  endfacet
  facet normal -0.831474 0.555564 0
    outer loop
      vertex -1.58671 1.21752 3.4
      vertex -1.73205 1 1.2
      vertex -1.73205 1 3.4
    endloop
  endfacet
  facet normal -0.980784 0.195098 0
    outer loop
      vertex -1.98289 0.261052 1.2
      vertex -1.93185 0.517637 3.4
      vertex -1.93185 0.517637 1.2
    endloop
  endfacet
  facet normal -0.980784 0.195098 0
    outer loop
      vertex -1.93185 0.517637 3.4
      vertex -1.98289 0.261052 1.2
      vertex -1.98289 0.261052 3.4
    endloop
  endfacet
  facet normal 0.946934 -0.321429 0
    outer loop
      vertex 1.84776 -0.765367 3.4
      vertex 1.93185 -0.517637 1.2
      vertex 1.93185 -0.517637 3.4
    endloop
  endfacet
  facet normal 0.946934 -0.321429 0
    outer loop
      vertex 1.93185 -0.517637 1.2
      vertex 1.84776 -0.765367 3.4
      vertex 1.84776 -0.765367 1.2
    endloop
  endfacet
  facet normal 0.659362 -0.751826 0
    outer loop
      vertex 1.21752 -1.58671 1.2
      vertex 1.41421 -1.41421 3.4
      vertex 1.21752 -1.58671 3.4
    endloop
  endfacet
  facet normal 0.659362 -0.751826 0
    outer loop
      vertex 1.41421 -1.41421 3.4
      vertex 1.21752 -1.58671 1.2
      vertex 1.41421 -1.41421 1.2
    endloop
  endfacet
  facet normal 0.321429 0.946934 -0
    outer loop
      vertex 0.765367 1.84776 1.2
      vertex 0.517637 1.93185 3.4
      vertex 0.765367 1.84776 3.4
    endloop
  endfacet
  facet normal 0.321429 0.946934 0
    outer loop
      vertex 0.517637 1.93185 3.4
      vertex 0.765367 1.84776 1.2
      vertex 0.517637 1.93185 1.2
    endloop
  endfacet
  facet normal -0.751826 -0.659362 0
    outer loop
      vertex -1.41421 -1.41421 1.2
      vertex -1.58671 -1.21752 3.4
      vertex -1.58671 -1.21752 1.2
    endloop
  endfacet
  facet normal -0.751826 -0.659362 0
    outer loop
      vertex -1.58671 -1.21752 3.4
      vertex -1.41421 -1.41421 1.2
      vertex -1.41421 -1.41421 3.4
    endloop
  endfacet
  facet normal -0.659362 0.751826 0
    outer loop
      vertex -1.21752 1.58671 1.2
      vertex -1.41421 1.41421 3.4
      vertex -1.21752 1.58671 3.4
    endloop
  endfacet
  facet normal -0.659362 0.751826 0
    outer loop
      vertex -1.41421 1.41421 3.4
      vertex -1.21752 1.58671 1.2
      vertex -1.41421 1.41421 1.2
    endloop
  endfacet
  facet normal -0.997859 0.0654022 0
    outer loop
      vertex -2 0 1.2
      vertex -1.98289 0.261052 3.4
      vertex -1.98289 0.261052 1.2
    endloop
  endfacet
  facet normal -0.997859 0.0654022 0
    outer loop
      vertex -1.98289 0.261052 3.4
      vertex -2 0 1.2
      vertex -2 0 3.4
    endloop
  endfacet
  facet normal 0.555564 0.831474 -0
    outer loop
      vertex 1.21752 1.58671 1.2
      vertex 1 1.73205 3.4
      vertex 1.21752 1.58671 3.4
    endloop
  endfacet
  facet normal 0.555564 0.831474 0
    outer loop
      vertex 1 1.73205 3.4
      vertex 1.21752 1.58671 1.2
      vertex 1 1.73205 1.2
    endloop
  endfacet
  facet normal 0.831474 -0.555564 0
    outer loop
      vertex 1.58671 -1.21752 3.4
      vertex 1.73205 -1 1.2
      vertex 1.73205 -1 3.4
    endloop
  endfacet
  facet normal 0.831474 -0.555564 0
    outer loop
      vertex 1.73205 -1 1.2
      vertex 1.58671 -1.21752 3.4
      vertex 1.58671 -1.21752 1.2
    endloop
  endfacet
  facet normal 0.831474 0.555564 0
    outer loop
      vertex 1.73205 1 3.4
      vertex 1.58671 1.21752 1.2
      vertex 1.58671 1.21752 3.4
    endloop
  endfacet
  facet normal 0.831474 0.555564 0
    outer loop
      vertex 1.58671 1.21752 1.2
      vertex 1.73205 1 3.4
      vertex 1.73205 1 1.2
    endloop
  endfacet
  facet normal -0.751826 0.659362 0
    outer loop
      vertex -1.58671 1.21752 1.2
      vertex -1.41421 1.41421 3.4
      vertex -1.41421 1.41421 1.2
    endloop
  endfacet
  facet normal -0.751826 0.659362 0
    outer loop
      vertex -1.41421 1.41421 3.4
      vertex -1.58671 1.21752 1.2
      vertex -1.58671 1.21752 3.4
    endloop
  endfacet
  facet normal 0.321429 -0.946934 0
    outer loop
      vertex 0.517637 -1.93185 1.2
      vertex 0.765367 -1.84776 3.4
      vertex 0.517637 -1.93185 3.4
    endloop
  endfacet
  facet normal 0.321429 -0.946934 0
    outer loop
      vertex 0.765367 -1.84776 3.4
      vertex 0.517637 -1.93185 1.2
      vertex 0.765367 -1.84776 1.2
    endloop
  endfacet
  facet normal 0.751826 0.659362 0
    outer loop
      vertex 1.58671 1.21752 3.4
      vertex 1.41421 1.41421 1.2
      vertex 1.41421 1.41421 3.4
    endloop
  endfacet
  facet normal 0.751826 0.659362 0
    outer loop
      vertex 1.41421 1.41421 1.2
      vertex 1.58671 1.21752 3.4
      vertex 1.58671 1.21752 1.2
    endloop
  endfacet
  facet normal 0.0654022 -0.997859 0
    outer loop
      vertex 0 -2 1.2
      vertex 0.261052 -1.98289 3.4
      vertex 0 -2 3.4
    endloop
  endfacet
  facet normal 0.0654022 -0.997859 0
    outer loop
      vertex 0.261052 -1.98289 3.4
      vertex 0 -2 1.2
      vertex 0.261052 -1.98289 1.2
    endloop
  endfacet
  facet normal 0.659362 0.751826 -0
    outer loop
      vertex 1.41421 1.41421 1.2
      vertex 1.21752 1.58671 3.4
      vertex 1.41421 1.41421 3.4
    endloop
  endfacet
  facet normal 0.659362 0.751826 0
    outer loop
      vertex 1.21752 1.58671 3.4
      vertex 1.41421 1.41421 1.2
      vertex 1.21752 1.58671 1.2
    endloop
  endfacet
  facet normal -0.997859 -0.0654022 0
    outer loop
      vertex -1.98289 -0.261052 1.2
      vertex -2 0 3.4
      vertex -2 0 1.2
    endloop
  endfacet
  facet normal -0.997859 -0.0654022 0
    outer loop
      vertex -2 0 3.4
      vertex -1.98289 -0.261052 1.2
      vertex -1.98289 -0.261052 3.4
    endloop
  endfacet
  facet normal -0.659362 -0.751826 0
    outer loop
      vertex -1.41421 -1.41421 1.2
      vertex -1.21752 -1.58671 3.4
      vertex -1.41421 -1.41421 3.4
    endloop
  endfacet
  facet normal -0.659362 -0.751826 -0
    outer loop
      vertex -1.21752 -1.58671 3.4
      vertex -1.41421 -1.41421 1.2
      vertex -1.21752 -1.58671 1.2
    endloop
  endfacet
  facet normal -0.555564 0.831474 0
    outer loop
      vertex -1 1.73205 1.2
      vertex -1.21752 1.58671 3.4
      vertex -1 1.73205 3.4
    endloop
  endfacet
  facet normal -0.555564 0.831474 0
    outer loop
      vertex -1.21752 1.58671 3.4
      vertex -1 1.73205 1.2
      vertex -1.21752 1.58671 1.2
    endloop
  endfacet
  facet normal 0.89687 0.442294 0
    outer loop
      vertex 1.84776 0.765367 3.4
      vertex 1.73205 1 1.2
      vertex 1.73205 1 3.4
    endloop
  endfacet
  facet normal 0.89687 0.442294 0
    outer loop
      vertex 1.73205 1 1.2
      vertex 1.84776 0.765367 3.4
      vertex 1.84776 0.765367 1.2
    endloop
  endfacet
  facet normal -0.0654022 -0.997859 0
    outer loop
      vertex -0.261052 -1.98289 1.2
      vertex 0 -2 3.4
      vertex -0.261052 -1.98289 3.4
    endloop
  endfacet
  facet normal -0.0654022 -0.997859 -0
    outer loop
      vertex 0 -2 3.4
      vertex -0.261052 -1.98289 1.2
      vertex 0 -2 1.2
    endloop
  endfacet
  facet normal 0.195098 -0.980784 0
    outer loop
      vertex 0.261052 -1.98289 1.2
      vertex 0.517637 -1.93185 3.4
      vertex 0.261052 -1.98289 3.4
    endloop
  endfacet
  facet normal 0.195098 -0.980784 0
    outer loop
      vertex 0.517637 -1.93185 3.4
      vertex 0.261052 -1.98289 1.2
      vertex 0.517637 -1.93185 1.2
    endloop
  endfacet
  facet normal 0.442294 0.89687 -0
    outer loop
      vertex 1 1.73205 1.2
      vertex 0.765367 1.84776 3.4
      vertex 1 1.73205 3.4
    endloop
  endfacet
  facet normal 0.442294 0.89687 0
    outer loop
      vertex 0.765367 1.84776 3.4
      vertex 1 1.73205 1.2
      vertex 0.765367 1.84776 1.2
    endloop
  endfacet
  facet normal 0.89687 -0.442294 0
    outer loop
      vertex 1.73205 -1 3.4
      vertex 1.84776 -0.765367 1.2
      vertex 1.84776 -0.765367 3.4
    endloop
  endfacet
  facet normal 0.89687 -0.442294 0
    outer loop
      vertex 1.84776 -0.765367 1.2
      vertex 1.73205 -1 3.4
      vertex 1.73205 -1 1.2
    endloop
  endfacet
  facet normal 0.980784 -0.195098 0
    outer loop
      vertex 1.93185 -0.517637 3.4
      vertex 1.98289 -0.261052 1.2
      vertex 1.98289 -0.261052 3.4
    endloop
  endfacet
  facet normal 0.980784 -0.195098 0
    outer loop
      vertex 1.98289 -0.261052 1.2
      vertex 1.93185 -0.517637 3.4
      vertex 1.93185 -0.517637 1.2
    endloop
  endfacet
  facet normal -0.980784 -0.195098 0
    outer loop
      vertex -1.93185 -0.517637 1.2
      vertex -1.98289 -0.261052 3.4
      vertex -1.98289 -0.261052 1.2
    endloop
  endfacet
  facet normal -0.980784 -0.195098 0
    outer loop
      vertex -1.98289 -0.261052 3.4
      vertex -1.93185 -0.517637 1.2
      vertex -1.93185 -0.517637 3.4
    endloop
  endfacet
  facet normal -0.195098 -0.980784 0
    outer loop
      vertex -0.517637 -1.93185 1.2
      vertex -0.261052 -1.98289 3.4
      vertex -0.517637 -1.93185 3.4
    endloop
  endfacet
  facet normal -0.195098 -0.980784 -0
    outer loop
      vertex -0.261052 -1.98289 3.4
      vertex -0.517637 -1.93185 1.2
      vertex -0.261052 -1.98289 1.2
    endloop
  endfacet
  facet normal 0.195098 0.980784 -0
    outer loop
      vertex 0.517637 1.93185 1.2
      vertex 0.261052 1.98289 3.4
      vertex 0.517637 1.93185 3.4
    endloop
  endfacet
  facet normal 0.195098 0.980784 0
    outer loop
      vertex 0.261052 1.98289 3.4
      vertex 0.517637 1.93185 1.2
      vertex 0.261052 1.98289 1.2
    endloop
  endfacet
  facet normal 0.946934 0.321429 0
    outer loop
      vertex 1.93185 0.517637 3.4
      vertex 1.84776 0.765367 1.2
      vertex 1.84776 0.765367 3.4
    endloop
  endfacet
  facet normal 0.946934 0.321429 0
    outer loop
      vertex 1.84776 0.765367 1.2
      vertex 1.93185 0.517637 3.4
      vertex 1.93185 0.517637 1.2
    endloop
  endfacet
  facet normal 0.442294 -0.89687 0
    outer loop
      vertex 0.765367 -1.84776 1.2
      vertex 1 -1.73205 3.4
      vertex 0.765367 -1.84776 3.4
    endloop
  endfacet
  facet normal 0.442294 -0.89687 0
    outer loop
      vertex 1 -1.73205 3.4
      vertex 0.765367 -1.84776 1.2
      vertex 1 -1.73205 1.2
    endloop
  endfacet
  facet normal 0.751826 -0.659362 0
    outer loop
      vertex 1.41421 -1.41421 3.4
      vertex 1.58671 -1.21752 1.2
      vertex 1.58671 -1.21752 3.4
    endloop
  endfacet
  facet normal 0.751826 -0.659362 0
    outer loop
      vertex 1.58671 -1.21752 1.2
      vertex 1.41421 -1.41421 3.4
      vertex 1.41421 -1.41421 1.2
    endloop
  endfacet
  facet normal -0.831474 -0.555564 0
    outer loop
      vertex -1.58671 -1.21752 1.2
      vertex -1.73205 -1 3.4
      vertex -1.73205 -1 1.2
    endloop
  endfacet
  facet normal -0.831474 -0.555564 0
    outer loop
      vertex -1.73205 -1 3.4
      vertex -1.58671 -1.21752 1.2
      vertex -1.58671 -1.21752 3.4
    endloop
  endfacet
  facet normal -0.0654022 0.997859 0
    outer loop
      vertex 0 2 1.2
      vertex -0.261052 1.98289 3.4
      vertex 0 2 3.4
    endloop
  endfacet
  facet normal -0.0654022 0.997859 0
    outer loop
      vertex -0.261052 1.98289 3.4
      vertex 0 2 1.2
      vertex -0.261052 1.98289 1.2
    endloop
  endfacet
  facet normal -0.321429 -0.946934 0
    outer loop
      vertex -0.765367 -1.84776 1.2
      vertex -0.517637 -1.93185 3.4
      vertex -0.765367 -1.84776 3.4
    endloop
  endfacet
  facet normal -0.321429 -0.946934 -0
    outer loop
      vertex -0.517637 -1.93185 3.4
      vertex -0.765367 -1.84776 1.2
      vertex -0.517637 -1.93185 1.2
    endloop
  endfacet
  facet normal -0.442294 0.89687 0
    outer loop
      vertex -0.765367 1.84776 1.2
      vertex -1 1.73205 3.4
      vertex -0.765367 1.84776 3.4
    endloop
  endfacet
  facet normal -0.442294 0.89687 0
    outer loop
      vertex -1 1.73205 3.4
      vertex -0.765367 1.84776 1.2
      vertex -1 1.73205 1.2
    endloop
  endfacet
  facet normal -0.442294 -0.89687 0
    outer loop
      vertex -1 -1.73205 1.2
      vertex -0.765367 -1.84776 3.4
      vertex -1 -1.73205 3.4
    endloop
  endfacet
  facet normal -0.442294 -0.89687 -0
    outer loop
      vertex -0.765367 -1.84776 3.4
      vertex -1 -1.73205 1.2
      vertex -0.765367 -1.84776 1.2
    endloop
  endfacet
  facet normal -0.555564 -0.831474 0
    outer loop
      vertex -1.21752 -1.58671 1.2
      vertex -1 -1.73205 3.4
      vertex -1.21752 -1.58671 3.4
    endloop
  endfacet
  facet normal -0.555564 -0.831474 -0
    outer loop
      vertex -1 -1.73205 3.4
      vertex -1.21752 -1.58671 1.2
      vertex -1 -1.73205 1.2
    endloop
  endfacet
  facet normal 0 0 1
    outer loop
      vertex 1.98289 0.261052 3.4
      vertex 1.98289 -0.261052 3.4
      vertex 2 0 3.4
    endloop
  endfacet
  facet normal 0 0 1
    outer loop
      vertex 1.93185 0.517637 3.4
      vertex 1.98289 -0.261052 3.4
      vertex 1.98289 0.261052 3.4
    endloop
  endfacet
  facet normal 0 0 1
    outer loop
      vertex 1.93185 0.517637 3.4
      vertex 1.93185 -0.517637 3.4
      vertex 1.98289 -0.261052 3.4
    endloop
  endfacet
  facet normal 0 0 1
    outer loop
      vertex 1.84776 0.765367 3.4
      vertex 1.93185 -0.517637 3.4
      vertex 1.93185 0.517637 3.4
    endloop
  endfacet
  facet normal 0 0 1
    outer loop
      vertex 1.84776 0.765367 3.4
      vertex 1.84776 -0.765367 3.4
      vertex 1.93185 -0.517637 3.4
    endloop
  endfacet
  facet normal 0 0 1
    outer loop
      vertex 1.73205 1 3.4
      vertex 1.84776 -0.765367 3.4
      vertex 1.84776 0.765367 3.4
    endloop
  endfacet
  facet normal 0 0 1
    outer loop
      vertex 1.73205 1 3.4
      vertex 1.73205 -1 3.4
      vertex 1.84776 -0.765367 3.4
    endloop
  endfacet
  facet normal 0 0 1
    outer loop
      vertex 1.58671 1.21752 3.4
      vertex 1.73205 -1 3.4
      vertex 1.73205 1 3.4
    endloop
  endfacet
  facet normal 0 0 1
    outer loop
      vertex 1.58671 1.21752 3.4
      vertex 1.58671 -1.21752 3.4
      vertex 1.73205 -1 3.4
    endloop
  endfacet
  facet normal 0 0 1
    outer loop
      vertex 1.41421 1.41421 3.4
      vertex 1.58671 -1.21752 3.4
      vertex 1.58671 1.21752 3.4
    endloop
  endfacet
  facet normal 0 0 1
    outer loop
      vertex 1.41421 1.41421 3.4
      vertex 1.41421 -1.41421 3.4
      vertex 1.58671 -1.21752 3.4
    endloop
  endfacet
  facet normal 0 0 1
    outer loop
      vertex 1.21752 1.58671 3.4
      vertex 1.41421 -1.41421 3.4
      vertex 1.41421 1.41421 3.4
    endloop
  endfacet
  facet normal 0 0 1
    outer loop
      vertex 1.21752 1.58671 3.4
      vertex 1.21752 -1.58671 3.4
      vertex 1.41421 -1.41421 3.4
    endloop
  endfacet
  facet normal 0 0 1
    outer loop
      vertex 1 1.73205 3.4
      vertex 1.21752 -1.58671 3.4
      vertex 1.21752 1.58671 3.4
    endloop
  endfacet
  facet normal 0 0 1
    outer loop
      vertex 1 1.73205 3.4
      vertex 1 -1.73205 3.4
      vertex 1.21752 -1.58671 3.4
    endloop
  endfacet
  facet normal 0 0 1
    outer loop
      vertex 0.765367 1.84776 3.4
      vertex 1 -1.73205 3.4
      vertex 1 1.73205 3.4
    endloop
  endfacet
  facet normal 0 0 1
    outer loop
      vertex 0.765367 1.84776 3.4
      vertex 0.765367 -1.84776 3.4
      vertex 1 -1.73205 3.4
    endloop
  endfacet
  facet normal 0 0 1
    outer loop
      vertex 0.517637 1.93185 3.4
      vertex 0.765367 -1.84776 3.4
      vertex 0.765367 1.84776 3.4
    endloop
  endfacet
  facet normal 0 0 1
    outer loop
      vertex 0.517637 1.93185 3.4
      vertex 0.517637 -1.93185 3.4
      vertex 0.765367 -1.84776 3.4
    endloop
  endfacet
  facet normal 0 0 1
    outer loop
      vertex 0.261052 1.98289 3.4
      vertex 0.517637 -1.93185 3.4
      vertex 0.517637 1.93185 3.4
    endloop
  endfacet
  facet normal 0 0 1
    outer loop
      vertex 0.261052 1.98289 3.4
      vertex 0.261052 -1.98289 3.4
      vertex 0.517637 -1.93185 3.4
    endloop
  endfacet
  facet normal 0 0 1
    outer loop
      vertex 0 2 3.4
      vertex 0.261052 -1.98289 3.4
      vertex 0.261052 1.98289 3.4
    endloop
  endfacet
  facet normal 0 0 1
    outer loop
      vertex 0 2 3.4
      vertex 0 -2 3.4
      vertex 0.261052 -1.98289 3.4
    endloop
  endfacet
  facet normal -0 0 1
    outer loop
      vertex -0.261052 1.98289 3.4
      vertex 0 -2 3.4
      vertex 0 2 3.4
    endloop
  endfacet
  facet normal 0 0 1
    outer loop
      vertex -0.261052 1.98289 3.4
      vertex -0.261052 -1.98289 3.4
      vertex 0 -2 3.4
    endloop
  endfacet
  facet normal -0 0 1
    outer loop
      vertex -0.517637 1.93185 3.4
      vertex -0.261052 -1.98289 3.4
      vertex -0.261052 1.98289 3.4
    endloop
  endfacet
  facet normal 0 0 1
    outer loop
      vertex -0.517637 1.93185 3.4
      vertex -0.517637 -1.93185 3.4
      vertex -0.261052 -1.98289 3.4
    endloop
  endfacet
  facet normal -0 0 1
    outer loop
      vertex -0.765367 1.84776 3.4
      vertex -0.517637 -1.93185 3.4
      vertex -0.517637 1.93185 3.4
    endloop
  endfacet
  facet normal 0 0 1
    outer loop
      vertex -0.765367 1.84776 3.4
      vertex -0.765367 -1.84776 3.4
      vertex -0.517637 -1.93185 3.4
    endloop
  endfacet
  facet normal -0 0 1
    outer loop
      vertex -1 1.73205 3.4
      vertex -0.765367 -1.84776 3.4
      vertex -0.765367 1.84776 3.4
    endloop
  endfacet
  facet normal 0 0 1
    outer loop
      vertex -1 1.73205 3.4
      vertex -1 -1.73205 3.4
      vertex -0.765367 -1.84776 3.4
    endloop
  endfacet
  facet normal -0 0 1
    outer loop
      vertex -1.21752 1.58671 3.4
      vertex -1 -1.73205 3.4
      vertex -1 1.73205 3.4
    endloop
  endfacet
  facet normal 0 0 1
    outer loop
      vertex -1.21752 1.58671 3.4
      vertex -1.21752 -1.58671 3.4
      vertex -1 -1.73205 3.4
    endloop
  endfacet
  facet normal -0 0 1
    outer loop
      vertex -1.41421 1.41421 3.4
      vertex -1.21752 -1.58671 3.4
      vertex -1.21752 1.58671 3.4
    endloop
  endfacet
  facet normal 0 0 1
    outer loop
      vertex -1.41421 1.41421 3.4
      vertex -1.41421 -1.41421 3.4
      vertex -1.21752 -1.58671 3.4
    endloop
  endfacet
  facet normal -0 0 1
    outer loop
      vertex -1.58671 1.21752 3.4
      vertex -1.41421 -1.41421 3.4
      vertex -1.41421 1.41421 3.4
    endloop
  endfacet
  facet normal 0 0 1
    outer loop
      vertex -1.58671 1.21752 3.4
      vertex -1.58671 -1.21752 3.4
      vertex -1.41421 -1.41421 3.4
    endloop
  endfacet
  facet normal -0 0 1
    outer loop
      vertex -1.73205 1 3.4
      vertex -1.58671 -1.21752 3.4
      vertex -1.58671 1.21752 3.4
    endloop
  endfacet
  facet normal 0 0 1
    outer loop
      vertex -1.73205 1 3.4
      vertex -1.73205 -1 3.4
      vertex -1.58671 -1.21752 3.4
    endloop
  endfacet
  facet normal -0 0 1
    outer loop
      vertex -1.84776 0.765367 3.4
      vertex -1.73205 -1 3.4
      vertex -1.73205 1 3.4
    endloop
  endfacet
  facet normal 0 0 1
    outer loop
      vertex -1.84776 0.765367 3.4
      vertex -1.84776 -0.765367 3.4
      vertex -1.73205 -1 3.4
    endloop
  endfacet
  facet normal -0 0 1
    outer loop
      vertex -1.93185 0.517637 3.4
      vertex -1.84776 -0.765367 3.4
      vertex -1.84776 0.765367 3.4
    endloop
  endfacet
  facet normal 0 0 1
    outer loop
      vertex -1.93185 0.517637 3.4
      vertex -1.93185 -0.517637 3.4
      vertex -1.84776 -0.765367 3.4
    endloop
  endfacet
  facet normal -0 0 1
    outer loop
      vertex -1.98289 0.261052 3.4
      vertex -1.93185 -0.517637 3.4
      vertex -1.93185 0.517637 3.4
    endloop
  endfacet
  facet normal 0 0 1
    outer loop
      vertex -1.98289 0.261052 3.4
      vertex -1.98289 -0.261052 3.4
      vertex -1.93185 -0.517637 3.4
    endloop
  endfacet
  facet normal 0 -0 1
    outer loop
      vertex -1.98289 -0.261052 3.4
      vertex -1.98289 0.261052 3.4
      vertex -2 0 3.4
    endloop
  endfacet
endsolid OpenSCAD_Model
